<?xml version="1.0" encoding="utf-8"?>
<!-- Generator: Adobe Illustrator 17.0.0, SVG Export Plug-In . SVG Version: 6.00 Build 0)  -->
<!DOCTYPE svg PUBLIC "-//W3C//DTD SVG 1.1//EN" "http://www.w3.org/Graphics/SVG/1.1/DTD/svg11.dtd">
<svg version="1.1" id="AffiliateWP" xmlns="http://www.w3.org/2000/svg" xmlns:xlink="http://www.w3.org/1999/xlink" x="0px"
	 y="0px" width="328px" height="54px" viewBox="0 0 328 54" enable-background="new 0 0 328 54" xml:space="preserve">
<path id="logo" fill="#ffffff" d="M46.55,31.351c-0.526,0-1.041,0.049-1.548,0.121l-7.339-13.207
	c1.621-1.935,2.599-4.425,2.599-7.14c0-6.143-4.997-11.14-11.14-11.14s-11.141,4.997-11.141,11.14c0,2.661,0.941,5.107,2.504,7.025
	l-7.65,13.346c-0.554-0.085-1.117-0.143-1.694-0.143C4.997,31.352,0,36.349,0,42.492s4.997,11.141,11.14,11.141
	s11.141-4.997,11.141-11.141c0-2.662-0.941-5.107-2.505-7.025l7.65-13.346c0.554,0.085,1.118,0.143,1.694,0.143
	c0.526,0,1.041-0.049,1.547-0.121l7.339,13.209c-1.62,1.935-2.599,4.424-2.599,7.139c0,6.143,4.997,11.141,11.14,11.141
	s11.14-4.997,11.14-11.141C57.69,36.349,52.692,31.351,46.55,31.351z M29.123,7.31c2.103,0,3.815,1.711,3.815,3.815
	s-1.711,3.815-3.815,3.815c-2.103,0-3.815-1.711-3.815-3.815C25.308,9.021,27.02,7.31,29.123,7.31z M11.142,46.307
	c-2.103,0-3.815-1.711-3.815-3.815c0-2.103,1.711-3.815,3.815-3.815s3.815,1.711,3.815,3.815
	C14.956,44.596,13.244,46.307,11.142,46.307z M46.55,46.307c-2.103,0-3.815-1.711-3.815-3.815c0-2.103,1.711-3.815,3.815-3.815
	c2.103,0,3.815,1.711,3.815,3.815C50.363,44.596,48.652,46.307,46.55,46.307z"/>
<g id="text">
	<path fill="#ffffff" d="M82.405,10.311h12.839l10.998,34.641H95.728l-1.841-6.443H82.405l-1.841,6.443h-9.254L82.405,10.311z
		 M84.343,31.678h7.606L88.17,18.354L84.343,31.678z"/>
	<path fill="#ffffff" d="M109.157,25.525h-3.198v-5.91h3.198v-1.938c0-6.298,3.876-9.254,9.884-9.254
		c1.599,0,2.762,0.194,3.876,0.484v6.347c-0.629-0.193-1.357-0.34-2.326-0.34c-1.938,0-2.81,1.162-2.81,2.762v1.938h7.364v-2.229
		c0-6.298,3.924-9.302,9.932-9.302c1.598,0,2.714,0.193,3.827,0.484v6.346c-0.629-0.193-1.26-0.291-2.277-0.291
		c-1.986,0-2.81,1.114-2.81,2.762v2.229h5.088v5.91h-5.088v19.428h-8.672V25.525h-7.364v19.428h-8.624
		C109.157,44.953,109.157,25.525,109.157,25.525z"/>
	<path fill="#ffffff" d="M140.973,12.734c0-2.567,2.035-4.505,4.748-4.505s4.796,1.938,4.796,4.505s-2.083,4.457-4.796,4.457
		C143.007,17.192,140.973,15.302,140.973,12.734z M141.409,19.613h8.672v25.339h-8.672V19.613z"/>
	<path fill="#ffffff" d="M154.728,8.47h8.624v36.482h-8.624V8.47z"/>
	<path fill="#ffffff" d="M167.561,12.734c0-2.567,2.035-4.505,4.748-4.505s4.796,1.938,4.796,4.505s-2.083,4.457-4.796,4.457
		C169.595,17.192,167.561,15.302,167.561,12.734z M167.997,19.613h8.672v25.339h-8.672V19.613z"/>
	<path fill="#ffffff" d="M179.784,37.928c0-5.959,5.04-8.285,13.469-8.285h2.423v-0.581c0-2.422-0.581-4.021-3.343-4.021
		c-2.374,0-3.247,1.405-3.44,3.003h-8.14c0.388-6.105,5.184-9.108,12.112-9.108c6.977,0,11.434,2.859,11.434,9.593v16.424h-8.431
		v-2.955c-1.212,1.841-3.44,3.537-7.51,3.537C183.805,45.533,179.784,43.305,179.784,37.928z M195.675,36.086v-1.55h-2.277
		c-3.488,0-5.04,0.678-5.04,2.762c0,1.453,0.969,2.374,3.004,2.374C193.834,39.671,195.675,38.266,195.675,36.086z"/>
	<path fill="#ffffff" d="M209.443,36.813V25.525h-3.052v-5.91h3.052v-5.281h8.672v5.281h4.99v5.91h-4.99V35.99
		c0,1.841,0.921,2.665,2.568,2.665c0.969,0,1.696-0.145,2.47-0.436v6.589c-1.114,0.291-2.762,0.726-4.796,0.726
		C212.641,45.533,209.443,42.772,209.443,36.813z"/>
	<path fill="#ffffff" d="M224.626,32.597V32.21c0-8.139,6.057-13.275,13.71-13.275c6.928,0,12.888,3.972,12.888,13.081v2.277
		h-17.829c0.243,3.343,2.181,5.281,5.281,5.281c2.859,0,4.069-1.308,4.409-3.004h8.139c-0.775,5.717-5.184,8.964-12.839,8.964
		C230.44,45.533,224.626,40.883,224.626,32.597z M242.794,29.4c-0.145-3.052-1.647-4.748-4.457-4.748
		c-2.616,0-4.409,1.696-4.845,4.748C233.492,29.4,242.794,29.4,242.794,29.4z"/>
	<path fill="#ffffff" d="M251.151,10.311h10.029l4.457,21.608l4.651-21.608h8.817l5.038,21.802l4.7-21.802h9.205l-8.091,34.641
		H279.59l-5.329-21.996l-5.378,21.996h-9.689L251.151,10.311z"/>
	<path fill="#ffffff" d="M300.917,10.311h13.178c9.496,0,13.905,4.215,13.905,11.579v0.194c0,7.267-4.893,11.191-13.469,11.191
		H310.8v11.676h-9.884L300.917,10.311L300.917,10.311z M313.658,26.494c3.198,0,4.893-1.502,4.893-4.36V21.94
		c0-2.955-1.745-4.167-4.845-4.167h-2.907v8.721L313.658,26.494L313.658,26.494z"/>
</g>
</svg>
