<?xml version="1.0" encoding="utf-8"?>
<!-- Generator: Adobe Illustrator 17.0.0, SVG Export Plug-In . SVG Version: 6.00 Build 0)  -->
<!DOCTYPE svg PUBLIC "-//W3C//DTD SVG 1.1//EN" "http://www.w3.org/Graphics/SVG/1.1/DTD/svg11.dtd">
<svg version="1.1" id="Layer_1" xmlns="http://www.w3.org/2000/svg" xmlns:xlink="http://www.w3.org/1999/xlink" x="0px" y="0px"
	 width="184px" height="69px" viewBox="0 0 184 69" enable-background="new 0 0 184 69" xml:space="preserve">
<g>
	<path fill="#4A7E9A" d="M12.452,57.474c0.054,2.494-0.245,4.594-0.897,6.299c-0.896,2.372-2.419,3.58-4.568,3.626
		c-0.545,0.012-1.279-0.13-2.203-0.426c-0.723-0.243-1.445-0.484-2.167-0.728c-0.054,0.173-0.078,0.36-0.073,0.561
		c0.003,0.144,0.021,0.352,0.056,0.622c0.034,0.272,0.054,0.479,0.057,0.623c0.009,0.43-0.229,0.65-0.717,0.661
		c-0.488,0.01-0.894-0.182-1.218-0.576c-0.205-0.197-0.381-1.039-0.527-2.527c-0.111-1.173-0.174-2.089-0.188-2.749L0,62.603
		l0.302-24.012l0.603-0.013c0.401-0.009,0.785,0.191,1.152,0.598c0.367,0.409,0.556,0.828,0.564,1.257
		c0.023,1.061-0.079,2.641-0.307,4.739c-0.228,2.099-0.329,3.679-0.307,4.738c0.003,0.115,0.015,0.66,0.035,1.635
		c0.227-0.091,0.507-0.427,0.838-1.008c0.415-0.726,0.777-1.235,1.087-1.529c0.562-0.528,1.258-0.802,2.09-0.82
		c1.404-0.03,2.692,0.517,3.864,1.638c1.054,1.01,1.769,2.242,2.145,3.697C12.287,54.495,12.416,55.812,12.452,57.474z
		 M10.179,57.759c-0.039-1.782-0.259-3.316-0.658-4.602c-0.589-2-1.527-2.987-2.817-2.959c-1.577,0.034-2.799,1.225-3.666,3.573
		c-0.678,1.855-0.996,3.717-0.956,5.585c0.036,1.667,0.354,3.083,0.952,4.25c0.75,1.565,1.856,2.333,3.319,2.302
		c1.462-0.031,2.529-1.09,3.201-3.176C10.009,61.256,10.218,59.598,10.179,57.759z"/>
	<path fill="#4A7E9A" d="M27.314,62.445c0.027,1.263-0.795,2.412-2.464,3.452c-1.5,0.95-2.924,1.439-4.271,1.469
		c-3.842,0.082-5.814-2.313-5.919-7.187c-0.046-2.15,0.291-4.465,1.012-6.947c0.964-3.233,2.247-4.867,3.853-4.901
		c1.377-0.029,2.896,0.634,4.561,1.989c1.664,1.355,2.511,2.721,2.54,4.097c0.038,1.778-0.646,3.341-2.051,4.69
		s-3.011,2.044-4.816,2.082c-0.172,0.004-0.54-0.131-1.105-0.406c-0.565-0.274-0.948-0.41-1.148-0.406
		c-0.373,0.008-0.557,0.127-0.552,0.356c0.071,3.296,1.195,4.921,3.374,4.875c1.118-0.023,2.143-0.418,3.072-1.185
		c0.563-0.442,1.18-1.129,1.849-2.062c0.528-0.728,0.88-1.095,1.052-1.098C26.959,61.249,27.297,61.644,27.314,62.445z
		 M24.178,54.598c-0.021-1.003-0.329-1.936-0.92-2.798c-0.594-0.862-1.362-1.283-2.308-1.263c-1.147,0.024-2.063,0.762-2.749,2.21
		c-0.576,1.216-0.851,2.47-0.823,3.76c0.019,0.832,0.298,1.521,0.841,2.068c0.542,0.548,1.229,0.813,2.061,0.795
		c1.176-0.025,2.14-0.548,2.892-1.568C23.867,56.87,24.203,55.802,24.178,54.598z"/>
	<path fill="#4A7E9A" d="M41.801,63.891c0.021,1.006-0.721,1.87-2.225,2.592c-1.25,0.573-2.463,0.873-3.638,0.898
		c-0.774,0.017-1.667-0.153-2.679-0.507c-0.55-0.219-1.437-0.807-2.662-1.763c-1.342-1.04-2.017-1.763-2.025-2.168
		c-0.02-0.894,0.503-1.31,1.564-1.246l0.259-0.006c0.076,0.868,1.014,1.79,2.812,2.765c1.625,0.894,2.926,1.329,3.9,1.308
		c1.261-0.027,1.883-0.472,1.864-1.334c-0.012-0.517-0.801-1.219-2.369-2.105c-2.147-1.189-3.616-2.149-4.406-2.88
		c-1.61-1.489-2.436-3.225-2.478-5.208c-0.032-1.494,0.324-2.925,1.069-4.292c0.854-1.627,1.954-2.457,3.302-2.486
		c0.975-0.021,2.159,0.406,3.556,1.279c1.396,0.873,2.217,1.766,2.467,2.678c0.245,0.77,0.379,1.669,0.401,2.702
		c0.023,1.118-0.15,2.341-0.523,3.668c-0.253,0.206-0.553,0.312-0.896,0.32c-0.201,0.004-0.518-0.067-0.951-0.216
		c-0.433-0.148-0.651-0.309-0.655-0.481c0.002,0.115,0.152-0.203,0.452-0.956c0.219-0.492,0.315-1.383,0.287-2.673
		c-0.065-3.067-1.06-4.581-2.979-4.54c-1.004,0.021-1.792,0.715-2.365,2.078c-0.492,1.104-0.727,2.215-0.702,3.336
		c0.03,1.408,0.876,2.755,2.539,4.042c0.554,0.448,2.08,1.408,4.579,2.877C40.954,62.544,41.788,63.316,41.801,63.891z"/>
	<path fill="#4A7E9A" d="M50.852,52.648c-0.227,0.177-0.768,0.332-1.625,0.465c-0.943,0.135-1.486,0.247-1.628,0.336
		c-0.022,0.316-0.002,1.908,0.06,4.774c0.048,2.236,0.108,3.74,0.184,4.513c0.007,0.316,0.089,0.815,0.247,1.501
		c0.157,0.685,0.241,1.214,0.249,1.586c0.005,0.229-0.134,0.462-0.415,0.697c-0.282,0.235-0.538,0.355-0.768,0.36
		c-0.573,0.013-1.044-0.565-1.413-1.732c-0.248-0.855-0.38-1.67-0.396-2.444c-0.087-4.042-0.151-7.023-0.192-8.944
		c-0.171-0.14-0.813-0.125-1.928,0.042c-0.891,0.134-1.345-0.187-1.361-0.96c-0.023-1.089,1.126-1.616,3.45-1.581l0.393-7.795
		c-0.002-0.086-0.041-0.221-0.116-0.406c-0.076-0.185-0.114-0.321-0.116-0.407c-0.004-0.172,0.106-0.339,0.333-0.501
		c0.226-0.162,0.496-0.232,0.812-0.211c1.005,0.065,1.519,0.556,1.538,1.473c0.015,0.717-0.062,1.794-0.231,3.231
		c-0.171,1.438-0.248,2.501-0.233,3.189c0.008,0.344,0.043,0.673,0.107,0.987l2.362-0.179c0.802-0.017,1.21,0.29,1.224,0.92
		C51.396,52.021,51.218,52.382,50.852,52.648z"/>
	<path fill="#4A7E9A" d="M75.586,48.546c0.226,2.462-0.219,5.871-1.329,10.224c-1.187,4.844-2.497,7.281-3.93,7.312
		c-1.721,0.037-3.337-1.75-4.848-5.359c-0.937-2.188-1.737-4.781-2.404-7.779c-0.317-1.397-0.492-2.872-0.525-4.42
		c-0.005-0.229,0.112-0.468,0.351-0.717c0.238-0.248,0.473-0.376,0.702-0.381c0.344-0.007,0.865,0.269,1.566,0.827
		c-0.104,0.49-0.151,0.979-0.141,1.466c0.037,1.749,0.427,3.848,1.167,6.298c0.679,2.223,1.468,4.214,2.366,5.972
		c0.507,0.965,0.919,1.443,1.235,1.437c1.117-0.024,2.044-2.295,2.778-6.814c0.556-3.51,0.811-6.355,0.764-8.534
		c-0.004-0.172,0.128-0.361,0.396-0.567c0.268-0.206,0.502-0.312,0.703-0.316C75.154,47.179,75.537,47.63,75.586,48.546z"/>
	<path fill="#4A7E9A" d="M89.525,66.617c0.008,0.4-0.302,0.608-0.933,0.622c-0.688,0.015-1.109-0.264-1.267-0.833
		c-0.029-0.086-0.057-0.645-0.079-1.677c-0.006-0.286-0.054-0.515-0.144-0.685c-1.579,1.21-3.301,1.835-5.164,1.875
		c-1.29,0.027-2.545-0.305-3.765-0.995c-1.394-0.772-2.103-1.762-2.129-2.966c-0.024-1.175,0.768-2.339,2.378-3.492
		c1.468-1.064,2.833-1.61,4.095-1.637l4.256-0.091c0.168-0.176,0.248-0.479,0.238-0.908c-0.041-1.92-0.23-3.365-0.565-4.333
		c-0.55-1.623-1.585-2.418-3.104-2.386c-1.092,0.023-2.079,0.733-2.967,2.128c-0.805,1.28-1.193,2.493-1.169,3.639
		c0.001,0.058,0.003,0.144,0.005,0.258c0.003,0.115,0.005,0.187,0.005,0.215c0.005,0.229-0.107,0.346-0.337,0.351
		c-0.286,0.006-0.605-0.159-0.957-0.496c-0.352-0.336-0.529-0.634-0.535-0.892c-0.018-0.802,0.204-1.818,0.666-3.048
		c0.461-1.228,0.971-2.164,1.531-2.807c0.7-0.79,1.58-1.196,2.642-1.219c1.634-0.035,3.151,0.449,4.547,1.452
		c1.487,1.086,2.263,2.418,2.323,3.994L89.525,66.617z M87.099,59.829c-0.024-1.146-0.926-1.701-2.702-1.663
		c-1.404,0.03-2.633,0.301-3.682,0.811c-1.335,0.66-1.987,1.621-1.961,2.882c0.017,0.773,0.388,1.367,1.114,1.782
		c0.61,0.36,1.33,0.53,2.162,0.513c1.232-0.026,2.392-0.452,3.478-1.279C86.594,62.048,87.125,61.033,87.099,59.829z"/>
	<path fill="#4A7E9A" d="M95.724,64.806c0.016,0.746-0.378,1.127-1.18,1.145c-1.262,0.026-1.934-2.555-2.017-7.743l-0.285-19.311
		c-0.007-0.315-0.06-0.766-0.158-1.352c-0.099-0.585-0.151-1.021-0.157-1.309c0.535-0.413,0.991-0.624,1.363-0.632
		c0.401-0.009,0.805,0.126,1.213,0.404c0.407,0.278,0.615,0.618,0.624,1.019c0.006,0.287-0.057,0.661-0.19,1.123
		c-0.16,0.578-0.253,0.938-0.278,1.081c-0.303,1.958-0.415,4.684-0.34,8.182c0.121,5.648,0.165,8.372,0.132,8.171
		c0.161,3.524,0.447,6.17,0.858,7.94c0.002,0.086,0.071,0.278,0.206,0.576C95.65,64.398,95.72,64.634,95.724,64.806z"/>
	<path fill="#4A7E9A" d="M109.836,48.844c0.019,0.889-0.046,2.216-0.194,3.983s-0.209,3.295-0.181,4.586
		c0.011,0.516,0.082,1.497,0.214,2.942c0.13,1.446,0.203,2.484,0.217,3.115c0.027,1.262-0.1,2.023-0.381,2.288
		c-0.17,0.118-0.412,0.181-0.728,0.188c-0.631,0.014-1.067-0.25-1.308-0.79c-0.126-0.541-0.253-1.069-0.378-1.583
		c-0.805,1.296-2.206,2.129-4.205,2.5c-0.744,0.13-1.611-0.184-2.603-0.939c-0.903-0.672-1.505-1.35-1.806-2.034
		c-0.423-0.941-0.663-2.766-0.721-5.473l-0.201-9.373c-0.19-0.86,0.287-1.303,1.434-1.327c0.802-0.017,1.214,0.433,1.234,1.35
		c0.029,1.376,0.024,3.169-0.014,5.378c-0.025,2.811-0.03,4.603-0.014,5.377c-0.007,1.033,0.244,2.06,0.754,3.081
		c0.6,1.221,1.345,1.821,2.232,1.803c1.463-0.032,2.573-1.031,3.335-2.998c0.542-1.474,0.794-3.085,0.757-4.835l-0.121-5.633
		c-0.005-0.229-0.091-0.55-0.258-0.962c-0.166-0.412-0.252-0.747-0.258-1.005c-0.003-0.143,0.009-0.301,0.033-0.474
		c0.393-0.38,0.789-0.59,1.19-0.628C109.156,47.239,109.812,47.726,109.836,48.844z"/>
	<path fill="#4A7E9A" d="M124.624,60.357c0.026,1.262-0.795,2.412-2.465,3.452c-1.501,0.949-2.922,1.438-4.27,1.468
		c-3.842,0.083-5.815-2.312-5.92-7.187c-0.046-2.15,0.291-4.465,1.013-6.947c0.963-3.233,2.247-4.867,3.853-4.901
		c1.377-0.029,2.896,0.633,4.561,1.989c1.663,1.355,2.511,2.721,2.54,4.097c0.038,1.778-0.646,3.341-2.051,4.69
		c-1.406,1.349-3.011,2.044-4.817,2.083c-0.172,0.004-0.54-0.131-1.105-0.407c-0.564-0.274-0.947-0.41-1.147-0.406
		c-0.373,0.008-0.558,0.127-0.553,0.356c0.071,3.297,1.196,4.922,3.375,4.875c1.118-0.024,2.143-0.419,3.071-1.186
		c0.564-0.442,1.181-1.129,1.85-2.061c0.528-0.728,0.879-1.094,1.052-1.098C124.268,59.16,124.606,59.555,124.624,60.357z
		 M121.487,52.509c-0.021-1.003-0.329-1.936-0.921-2.799c-0.594-0.861-1.36-1.283-2.307-1.262c-1.147,0.024-2.064,0.762-2.749,2.21
		c-0.576,1.216-0.851,2.47-0.823,3.76c0.019,0.832,0.298,1.521,0.841,2.068c0.542,0.548,1.229,0.813,2.061,0.795
		c1.175-0.025,2.14-0.547,2.892-1.568C121.176,54.781,121.513,53.712,121.487,52.509z"/>
</g>
<path fill="#4A7E9A" d="M183.555,17.63L172.68,0.555C172.459,0.211,172.077,0,171.667,0s-0.792,0.211-1.013,0.555L159.78,17.63
	c-0.352,0.555-0.19,1.303,0.368,1.659s1.301,0.19,1.657-0.37l8.324-13.069c-0.394,19.297-4.862,33.304-13.316,41.631
	c-7.559,7.446-15.701,7.402-15.803,7.408c-0.009,0-0.019,0-0.028,0c-0.813,0-1.481,0.65-1.499,1.468
	c-0.018,0.828,0.64,1.514,1.468,1.532c0.017,0,0.049,0.001,0.097,0.001c1.065,0,9.682-0.255,17.795-8.196
	c9.105-8.911,13.898-23.703,14.287-43.964l8.401,13.19c0.356,0.56,1.099,0.727,1.657,0.37c0.359-0.23,0.555-0.619,0.555-1.015
	C183.742,18.054,183.681,17.831,183.555,17.63z"/>
</svg>
