<?xml version="1.0" encoding="utf-8"?>
<!-- Generator: Adobe Illustrator 17.0.0, SVG Export Plug-In . SVG Version: 6.00 Build 0)  -->
<!DOCTYPE svg PUBLIC "-//W3C//DTD SVG 1.1//EN" "http://www.w3.org/Graphics/SVG/1.1/DTD/svg11.dtd">
<svg version="1.1" id="Layer_1" xmlns="http://www.w3.org/2000/svg" xmlns:xlink="http://www.w3.org/1999/xlink" x="0px" y="0px"
	 width="32px" height="32px" viewBox="0 0 32 32" enable-background="new 0 0 32 32" xml:space="preserve">
<path fill="#FFFFFF" d="M31.418,3.858c-0.431-0.099-1.21-0.195-2.386-0.295c-1.206-0.101-1.95-0.111-2.345-0.035
	c-0.4,0.077-1.122,0.443-2.209,1.121c-1.055,0.661-2.672,1.963-4.805,3.87c-2.133,1.91-4.214,3.999-6.187,6.208
	c-1.838,2.057-3.64,4.25-5.363,6.525c-0.646-1.925-1.309-3.279-2.026-4.126c-0.806-0.956-1.538-1.497-2.234-1.657
	c-0.557-0.129-1.276-0.006-2.2,0.374c-0.949,0.389-1.501,0.892-1.638,1.496c-0.104,0.456,0.112,1.113,0.68,2.072
	c1.001,1.691,1.84,3.455,2.492,5.245c0.418,1.117,0.704,1.796,0.874,2.075c0.142,0.235,0.5,0.549,2.013,0.894
	c0.772,0.176,1.407,0.265,1.89,0.265c0.517,0,0.883-0.1,1.115-0.302c0.379-0.316,1.136-1.284,2.313-2.959
	c2.827-4.061,6.091-7.868,9.702-11.317c3.611-3.448,6.811-5.99,9.507-7.549c0.825-0.456,0.983-0.58,1.038-0.624
	c0.176-0.143,0.289-0.316,0.334-0.512C32.05,4.334,31.936,3.977,31.418,3.858z"/>
</svg>
