<?xml version="1.0" encoding="utf-8"?>
<!-- Generator: Adobe Illustrator 17.0.0, SVG Export Plug-In . SVG Version: 6.00 Build 0)  -->
<!DOCTYPE svg PUBLIC "-//W3C//DTD SVG 1.1//EN" "http://www.w3.org/Graphics/SVG/1.1/DTD/svg11.dtd">
<svg version="1.1" id="Layer_1" xmlns="http://www.w3.org/2000/svg" xmlns:xlink="http://www.w3.org/1999/xlink" x="0px" y="0px"
	 width="36px" height="32px" viewBox="0 0 36 32" enable-background="new 0 0 36 32" xml:space="preserve">
<path fill="#221F1F" d="M35.238,0H0.762C0.341,0,0,0.341,0,0.762v24.381c0,0.421,0.341,0.762,0.762,0.762h17.969l5.872,5.872
	C24.749,31.923,24.944,32,25.142,32c0.098,0,0.198-0.019,0.292-0.058c0.284-0.118,0.47-0.396,0.47-0.704v-5.333h9.334
	c0.421,0,0.762-0.341,0.762-0.762V0.762C36,0.341,35.659,0,35.238,0z M34.476,24.381h-9.334c-0.421,0-0.762,0.341-0.762,0.762v4.256
	l-4.795-4.795c-0.143-0.143-0.336-0.223-0.539-0.223H1.524V1.524h32.952V24.381z"/>
</svg>
