<?xml version="1.0" encoding="utf-8"?>
<!-- Generator: Adobe Illustrator 17.0.0, SVG Export Plug-In . SVG Version: 6.00 Build 0)  -->
<!DOCTYPE svg PUBLIC "-//W3C//DTD SVG 1.1//EN" "http://www.w3.org/Graphics/SVG/1.1/DTD/svg11.dtd">
<svg version="1.1" id="Layer_1" xmlns="http://www.w3.org/2000/svg" xmlns:xlink="http://www.w3.org/1999/xlink" x="0px" y="0px"
	 width="32px" height="32px" viewBox="0 0 32 32" enable-background="new 0 0 32 32" xml:space="preserve">
<g id="rss_1_">
	<path fill="#FFFFFF" d="M4.312,31.962c-2.347,0-4.249-1.9-4.249-4.247c0-2.345,1.902-4.247,4.249-4.247
		c2.343,0,4.249,1.902,4.249,4.247C8.561,30.062,6.655,31.962,4.312,31.962z M14.969,32c0-4.006-1.554-7.779-4.369-10.61
		c-2.811-2.826-6.532-4.384-10.537-4.384v-6.134c11.348,0,21.04,9.78,21.04,21.128H14.969z M25.805,32
		c0-14.263-11.724-25.868-25.742-25.868V0c17.354,0,31.874,14.355,31.874,32H25.805z"/>
</g>
</svg>
