<?xml version="1.0" encoding="utf-8"?>
<!-- Generator: Adobe Illustrator 17.0.0, SVG Export Plug-In . SVG Version: 6.00 Build 0)  -->
<!DOCTYPE svg PUBLIC "-//W3C//DTD SVG 1.1//EN" "http://www.w3.org/Graphics/SVG/1.1/DTD/svg11.dtd">
<svg version="1.1" id="Layer_1" xmlns="http://www.w3.org/2000/svg" xmlns:xlink="http://www.w3.org/1999/xlink" x="0px" y="0px"
	 width="38px" height="32px" viewBox="0 0 38 32" enable-background="new 0 0 38 32" xml:space="preserve">
<g id="vimeo_1_">
	<path fill="#FFFFFF" d="M29.5,22.194C24.457,28.732,20.192,32,16.701,32c-2.16,0-3.988-1.995-5.482-5.982
		c-1-3.657-1.995-7.315-2.995-10.972C7.117,11.06,5.925,9.065,4.653,9.065c-0.277,0-1.248,0.581-2.91,1.745L0,8.567
		c1.829-1.606,3.626-3.214,5.398-4.822c2.439-2.105,4.268-3.211,5.488-3.324c2.878-0.275,4.651,1.691,5.317,5.903
		c0.719,4.542,1.216,7.366,1.498,8.475c0.829,3.768,1.743,5.65,2.741,5.65c0.777,0,1.937-1.218,3.488-3.655
		c1.554-2.439,2.383-4.292,2.495-5.567c0.221-2.106-0.613-3.16-2.495-3.16c-0.885,0-1.802,0.196-2.743,0.583
		c1.829-5.927,5.319-8.81,10.472-8.644c3.824,0.11,5.621,2.576,5.4,7.396C36.896,11.004,34.376,15.934,29.5,22.194z"/>
</g>
</svg>
