<?xml version="1.0" encoding="utf-8"?>
<!-- Generator: Adobe Illustrator 17.0.0, SVG Export Plug-In . SVG Version: 6.00 Build 0)  -->
<!DOCTYPE svg PUBLIC "-//W3C//DTD SVG 1.1//EN" "http://www.w3.org/Graphics/SVG/1.1/DTD/svg11.dtd">
<svg version="1.1" id="Layer_1" xmlns="http://www.w3.org/2000/svg" xmlns:xlink="http://www.w3.org/1999/xlink" x="0px" y="0px"
	 width="46px" height="32px" viewBox="0 0 46 32" enable-background="new 0 0 46 32" xml:space="preserve">
<g>
	<path id="The_Sharpness" opacity="0.12" fill-rule="evenodd" clip-rule="evenodd" fill="#FFFFFF" d="M18.05,9.118l10.781,7.199
		l1.513-0.785L18.05,9.118z"/>
	<g id="Lozenge">
		<g>
			<path fill="#FFFFFF" d="M45.043,6.903c0,0-0.445-3.135-1.809-4.516c-1.73-1.812-3.669-1.821-4.559-1.927
				C32.309,0,22.759,0,22.759,0h-0.02c0,0-9.55,0-15.917,0.46C5.932,0.566,3.994,0.575,2.263,2.387
				C0.899,3.768,0.455,6.903,0.455,6.903S0,10.585,0,14.267v3.452c0,3.682,0.455,7.364,0.455,7.364s0.444,3.135,1.808,4.516
				c1.731,1.812,4.004,1.755,5.017,1.945C10.92,31.892,22.749,32,22.749,32s9.56-0.014,15.927-0.475
				c0.889-0.106,2.829-0.115,4.559-1.927c1.364-1.381,1.809-4.516,1.809-4.516s0.454-3.682,0.454-7.364v-3.452
				C45.497,10.585,45.043,6.903,45.043,6.903z M18.052,21.901L18.05,9.118l12.294,6.414L18.052,21.901z"/>
		</g>
	</g>
</g>
</svg>
