<?xml version="1.0" encoding="utf-8"?>
<!-- Generator: Adobe Illustrator 17.0.0, SVG Export Plug-In . SVG Version: 6.00 Build 0)  -->
<!DOCTYPE svg PUBLIC "-//W3C//DTD SVG 1.1//EN" "http://www.w3.org/Graphics/SVG/1.1/DTD/svg11.dtd">
<svg version="1.1" id="Layer_1" xmlns="http://www.w3.org/2000/svg" xmlns:xlink="http://www.w3.org/1999/xlink" x="0px" y="0px"
	 width="33px" height="32px" viewBox="0 0 33 32" enable-background="new 0 0 33 32" xml:space="preserve">
<path fill-rule="evenodd" clip-rule="evenodd" fill="#FFFFFF" d="M16.404,0C7.346,0,0,7.345,0,16.406
	c0,7.247,4.7,13.396,11.22,15.566c0.82,0.15,1.12-0.356,1.12-0.791c0-0.389-0.014-1.421-0.022-2.79
	c-4.563,0.991-5.526-2.199-5.526-2.199c-0.746-1.895-1.821-2.4-1.821-2.4c-1.489-1.018,0.113-0.997,0.113-0.997
	c1.646,0.116,2.513,1.691,2.513,1.691c1.463,2.507,3.84,1.783,4.774,1.363c0.149-1.06,0.573-1.783,1.042-2.193
	c-3.643-0.414-7.473-1.821-7.473-8.108c0-1.791,0.639-3.255,1.689-4.402C7.458,10.73,6.895,9.062,7.788,6.804
	c0,0,1.377-0.441,4.511,1.682c1.309-0.364,2.712-0.546,4.107-0.552c1.393,0.006,2.797,0.188,4.107,0.552
	c3.132-2.123,4.507-1.682,4.507-1.682c0.895,2.259,0.332,3.927,0.163,4.342c1.051,1.147,1.686,2.611,1.686,4.402
	c0,6.302-3.836,7.689-7.49,8.095c0.589,0.506,1.114,1.508,1.114,3.038c0,2.193-0.02,3.963-0.02,4.5c0,0.439,0.295,0.949,1.128,0.789
	c6.513-2.174,11.209-8.318,11.209-15.564C32.81,7.345,25.464,0,16.404,0z"/>
</svg>
