<?xml version="1.0" encoding="utf-8"?>
<!-- Generator: Adobe Illustrator 17.0.0, SVG Export Plug-In . SVG Version: 6.00 Build 0)  -->
<!DOCTYPE svg PUBLIC "-//W3C//DTD SVG 1.1//EN" "http://www.w3.org/Graphics/SVG/1.1/DTD/svg11.dtd">
<svg version="1.1" id="twitter" xmlns="http://www.w3.org/2000/svg" xmlns:xlink="http://www.w3.org/1999/xlink" x="0px" y="0px"
	 width="40px" height="32px" viewBox="0 0 40 32" enable-background="new 0 0 40 32" xml:space="preserve">
<path id="bird" fill="#FFFFFF" d="M39.378,3.788c-1.448,0.642-3.006,1.077-4.64,1.272c1.669-0.999,2.95-2.583,3.553-4.469
	c-1.56,0.925-3.289,1.598-5.13,1.96C31.686,0.981,29.587,0,27.264,0c-4.462,0-8.078,3.617-8.078,8.078
	c0,0.634,0.071,1.25,0.209,1.841C12.679,9.582,6.727,6.366,2.743,1.478C2.048,2.671,1.649,4.058,1.649,5.54
	c0,2.803,1.426,5.275,3.594,6.724c-1.324-0.042-2.569-0.405-3.66-1.01c0,0.033-0.001,0.068-0.001,0.102
	c0,3.914,2.785,7.179,6.48,7.922c-0.678,0.185-1.392,0.283-2.129,0.283c-0.521,0-1.026-0.05-1.52-0.145
	c1.027,3.209,4.012,5.545,7.547,5.61c-2.765,2.167-6.249,3.458-10.034,3.458c-0.652,0-1.296-0.038-1.927-0.113
	C3.575,30.662,7.821,32,12.384,32c14.86,0,22.985-12.31,22.985-22.985c0-0.351-0.007-0.699-0.023-1.045
	C36.926,6.831,38.295,5.407,39.378,3.788z"/>
</svg>
