<?xml version="1.0" encoding="utf-8"?>
<!-- Generator: Adobe Illustrator 17.0.0, SVG Export Plug-In . SVG Version: 6.00 Build 0)  -->
<!DOCTYPE svg PUBLIC "-//W3C//DTD SVG 1.1//EN" "http://www.w3.org/Graphics/SVG/1.1/DTD/svg11.dtd">
<svg version="1.1" id="Layer_1" xmlns="http://www.w3.org/2000/svg" xmlns:xlink="http://www.w3.org/1999/xlink" x="0px" y="0px"
	 width="32px" height="32px" viewBox="0 0 32 32" enable-background="new 0 0 32 32" xml:space="preserve">
<g>
	<g>
		<path fill="#FFFFFF" d="M16.852,18.269l-1.501-1.165c-0.457-0.379-1.082-0.879-1.082-1.795c0-0.92,0.625-1.504,1.168-2.046
			c1.748-1.376,3.495-2.84,3.495-5.926c0-3.173-1.997-4.843-2.954-5.635h2.58L21.267,0h-8.205c-2.251,0-5.496,0.533-7.871,2.494
			C3.4,4.038,2.527,6.168,2.527,8.085c0,3.255,2.499,6.554,6.912,6.554c0.417,0,0.873-0.041,1.331-0.084
			c-0.206,0.501-0.414,0.919-0.414,1.628c0,1.293,0.664,2.085,1.25,2.836C9.73,19.148,6.23,19.356,3.65,20.942
			c-2.458,1.461-3.205,3.589-3.205,5.09c0,3.09,2.913,5.968,8.952,5.968c7.162,0,10.953-3.963,10.953-7.886
			C20.35,21.231,18.685,19.813,16.852,18.269z M11.397,13.47c-3.583,0-5.206-4.632-5.206-7.426c0-1.088,0.206-2.211,0.915-3.089
			c0.668-0.836,1.831-1.378,2.918-1.378c3.454,0,5.245,4.673,5.245,7.679c0,0.752-0.083,2.085-1.041,3.048
			C13.559,12.972,12.438,13.47,11.397,13.47z M11.439,30.251c-4.455,0-7.328-2.131-7.328-5.095c0-2.963,2.664-3.965,3.581-4.297
			c1.748-0.588,3.998-0.67,4.373-0.67c0.416,0,0.625,0,0.956,0.042c3.167,2.254,4.542,3.378,4.542,5.511
			C17.562,28.327,15.437,30.251,11.439,30.251z"/>
		<polygon fill="#FFFFFF" points="27.369,13.406 27.369,9.234 25.308,9.234 25.308,13.406 21.142,13.406 21.142,15.49 25.308,15.49 
			25.308,19.688 27.369,19.688 27.369,15.49 31.556,15.49 31.556,13.406 		"/>
	</g>
</g>
</svg>
