<?xml version="1.0" encoding="utf-8"?>
<!-- Generator: Adobe Illustrator 17.0.0, SVG Export Plug-In . SVG Version: 6.00 Build 0)  -->
<!DOCTYPE svg PUBLIC "-//W3C//DTD SVG 1.1//EN" "http://www.w3.org/Graphics/SVG/1.1/DTD/svg11.dtd">
<svg version="1.1" id="Layer_1" xmlns="http://www.w3.org/2000/svg" xmlns:xlink="http://www.w3.org/1999/xlink" x="0px" y="0px"
	 width="32px" height="32px" viewBox="0 0 32 32" enable-background="new 0 0 32 32" xml:space="preserve">
<g>
	<path fill="#072460" d="M14.667,22.667H14c-0.368,0-0.667,0.298-0.667,0.667C13.333,23.702,13.631,24,14,24h0.667
		c0.368,0,0.667-0.298,0.667-0.667C15.333,22.965,15.035,22.667,14.667,22.667z"/>
	<path fill="#072460" d="M27.758,22.667h-1.454c-0.368,0-0.667,0.298-0.667,0.667c0,0.368,0.298,0.667,0.667,0.667h1.454
		c0.368,0,0.667-0.298,0.667-0.667C28.424,22.965,28.126,22.667,27.758,22.667z"/>
	<path fill="#072460" d="M23.393,22.667h-1.454c-0.368,0-0.667,0.298-0.667,0.667c0,0.368,0.298,0.667,0.667,0.667h1.454
		c0.368,0,0.667-0.298,0.667-0.667C24.06,22.965,23.762,22.667,23.393,22.667z"/>
	<path fill="#072460" d="M19.03,22.667h-1.454c-0.368,0-0.667,0.298-0.667,0.667c0,0.368,0.298,0.667,0.667,0.667h1.454
		c0.368,0,0.667-0.298,0.667-0.667C19.696,22.965,19.398,22.667,19.03,22.667z"/>
	<path fill="#072460" d="M31.333,22.667h-0.667c-0.368,0-0.667,0.298-0.667,0.667C30,23.702,30.298,24,30.666,24h0.667
		C31.702,24,32,23.702,32,23.333C32,22.965,31.702,22.667,31.333,22.667z"/>
	<path fill="#072460" d="M14.082,21.133c0.131,0.134,0.303,0.201,0.477,0.201c0.168,0,0.337-0.064,0.466-0.19
		c0.263-0.258,0.268-0.68,0.01-0.943c-0.881-0.901-1.678-1.902-2.379-2.971l10.435,4.058c0.342,0.133,0.729-0.036,0.863-0.379
		c0.134-0.344-0.036-0.73-0.379-0.863l-10.413-4.049l18.416-7.258C31.827,8.64,31.992,8.403,32,8.136
		c0.007-0.267-0.146-0.512-0.388-0.624C29.427,6.509,27.09,6,24.667,6C19.06,6,14.22,9.718,11.219,14.61
		c-1.195-2.554-1.885-5.311-1.885-7.943C9.333,4.094,7.24,2,4.667,2S0,4.094,0,6.667s2.094,4.667,4.667,4.667
		c1.459,0,2.747-0.687,3.604-1.739c0.36,2.19,1.087,4.385,2.149,6.428c-1.053,2.031-1.795,4.203-2.156,6.375
		c-0.857-1.048-2.142-1.731-3.598-1.731C2.094,20.667,0,22.76,0,25.333S2.094,30,4.667,30s4.667-2.094,4.667-4.667
		c0-2.628,0.692-5.384,1.878-7.934C12.039,18.749,12.992,20.018,14.082,21.133z M24.667,7.333c1.672,0,3.297,0.263,4.853,0.783
		L12.64,14.768C15.42,10.5,19.726,7.333,24.667,7.333z M4.667,10c-1.838,0-3.333-1.495-3.333-3.333s1.495-3.333,3.333-3.333
		S8,4.829,8,6.667S6.505,10,4.667,10z M4.667,28.667c-1.838,0-3.333-1.495-3.333-3.333S2.829,22,4.667,22S8,23.495,8,25.333
		S6.505,28.667,4.667,28.667z"/>
</g>
</svg>
