<?xml version="1.0" encoding="utf-8"?>
<!-- Generator: Adobe Illustrator 17.0.0, SVG Export Plug-In . SVG Version: 6.00 Build 0)  -->
<!DOCTYPE svg PUBLIC "-//W3C//DTD SVG 1.1//EN" "http://www.w3.org/Graphics/SVG/1.1/DTD/svg11.dtd">
<svg version="1.1" id="Layer_1" xmlns="http://www.w3.org/2000/svg" xmlns:xlink="http://www.w3.org/1999/xlink" x="0px" y="0px"
	 width="24px" height="24px" viewBox="0 0 24 24" enable-background="new 0 0 24 24" xml:space="preserve">
<g opacity="0.1">
	
		<path fill="none" stroke="#202B5D" stroke-width="1.0928" stroke-linecap="round" stroke-linejoin="round" stroke-miterlimit="10" d="
		M19.057,11.454c0-3.621-2.937-6.557-6.557-6.557c-3.622,0-6.557,2.936-6.557,6.557c0,3.054,2.09,5.614,4.918,6.342v1.307h3.278
		v-1.307C16.965,17.067,19.057,14.508,19.057,11.454z"/>
	
		<line fill="none" stroke="#202B5D" stroke-width="1.0928" stroke-linecap="round" stroke-linejoin="round" stroke-miterlimit="10" x1="13.047" y1="23.475" x2="11.954" y2="23.475"/>
	
		<line fill="none" stroke="#202B5D" stroke-width="1.0928" stroke-linecap="round" stroke-linejoin="round" stroke-miterlimit="10" x1="14.14" y1="21.289" x2="10.861" y2="21.289"/>
	
		<line fill="none" stroke="#202B5D" stroke-width="1.0928" stroke-linecap="round" stroke-linejoin="round" stroke-miterlimit="10" x1="12.5" y1="0.525" x2="12.5" y2="2.711"/>
	
		<line fill="none" stroke="#202B5D" stroke-width="1.0928" stroke-linecap="round" stroke-linejoin="round" stroke-miterlimit="10" x1="23.429" y1="11.454" x2="21.243" y2="11.454"/>
	
		<line fill="none" stroke="#202B5D" stroke-width="1.0928" stroke-linecap="round" stroke-linejoin="round" stroke-miterlimit="10" x1="1.572" y1="11.454" x2="3.758" y2="11.454"/>
	
		<line fill="none" stroke="#202B5D" stroke-width="1.0928" stroke-linecap="round" stroke-linejoin="round" stroke-miterlimit="10" x1="3.999" y1="2.954" x2="6.317" y2="5.273"/>
	
		<line fill="none" stroke="#202B5D" stroke-width="1.0928" stroke-linecap="round" stroke-linejoin="round" stroke-miterlimit="10" x1="21" y1="2.954" x2="18.681" y2="5.273"/>
</g>
</svg>
