

<?xml version="1.0" encoding="utf-8"?>

<!-- Generator: Adobe Illustrator 17.0.0, SVG Export Plug-In . SVG Version: 6.00 Build 0)  -->
<!DOCTYPE svg PUBLIC "-//W3C//DTD SVG 1.1//EN" "http://www.w3.org/Graphics/SVG/1.1/DTD/svg11.dtd">
<svg version="1.1" id="Layer_1" xmlns="http://www.w3.org/2000/svg" xmlns:xlink="http://www.w3.org/1999/xlink" x="0px" y="0px"
	 width="24px" height="24px" viewBox="0 0 24 24" enable-background="new 0 0 24 24" xml:space="preserve">


<style type="text/css">
 .button.external:hover #icon-external path {
    <!-- fill: #4a7e9a; -->
  }
</style>

<path id="test" fill="#ffffff" d="M23.959,1.657c-0.012-0.062-0.035-0.119-0.053-0.179c-0.02-0.069-0.036-0.139-0.064-0.206
	c-0.029-0.071-0.069-0.135-0.106-0.202c-0.028-0.051-0.05-0.104-0.083-0.153c-0.151-0.226-0.346-0.421-0.572-0.572
	c-0.049-0.033-0.102-0.055-0.153-0.083c-0.067-0.037-0.131-0.077-0.202-0.106C22.66,0.13,22.59,0.114,22.521,0.094
	c-0.06-0.018-0.117-0.041-0.178-0.053C22.209,0.014,22.075,0,21.939,0H7.515C6.377,0,5.454,0.923,5.454,2.061
	c0,1.138,0.923,2.061,2.061,2.061h9.45L0.604,20.482c-0.805,0.805-0.805,2.109,0,2.914C1.006,23.799,1.533,24,2.061,24
	c0.527,0,1.054-0.201,1.457-0.604L19.879,7.035v9.45c0,1.138,0.923,2.061,2.061,2.061c1.138,0,2.061-0.923,2.061-2.061V2.061
	C24,1.925,23.986,1.79,23.959,1.657z"/>
</svg>
