<?xml version="1.0" encoding="utf-8"?>
<!-- Generator: Adobe Illustrator 17.0.0, SVG Export Plug-In . SVG Version: 6.00 Build 0)  -->
<!DOCTYPE svg PUBLIC "-//W3C//DTD SVG 1.1//EN" "http://www.w3.org/Graphics/SVG/1.1/DTD/svg11.dtd">
<svg version="1.1" id="Layer_1" xmlns="http://www.w3.org/2000/svg" xmlns:xlink="http://www.w3.org/1999/xlink" x="0px" y="0px"
	 width="35px" height="32px" viewBox="0 0 35 32" enable-background="new 0 0 35 32" xml:space="preserve">
<g id="heart_x5F_empty_1_" display="none">
	<path id="heart_x5F_empty" display="inline" fill="#EA284E" d="M17.542,4.552C11.612-4.53,0,1.423,0,9.799
		C0,16.258,10.097,21.821,17.542,32c7.445-10.179,17.542-15.742,17.542-22.201C35.085,1.423,23.841-4.53,17.542,4.552z
		 M17.542,26.04c-2.289-2.645-4.668-4.976-6.775-7.039c-3.797-3.715-7.045-6.897-7.045-9.202c0-3.478,3.237-6.077,6.133-6.077
		c1.789,0,3.327,0.964,4.569,2.866l3.024,4.631l3.152-4.546c1.338-1.931,2.995-2.952,4.79-2.952c2.818,0,5.971,2.598,5.971,6.077
		c0,2.305-3.251,5.486-7.015,9.17C22.21,21.064,19.828,23.395,17.542,26.04z"/>
</g>
<g>
	<g>
		<path fill="#EA284E" d="M9.879,0.023l0,3c2.022,0,3.811,1.104,5.175,3.192l2.437,3.732l2.54-3.663
			c1.48-2.134,3.342-3.262,5.385-3.262c3.503,0,6.692,3.241,6.692,6.799c0,2.609-3.351,5.889-7.231,9.687
			c-2.316,2.267-4.864,4.761-7.311,7.667c-2.447-2.905-4.995-5.399-7.311-7.667c-3.88-3.798-7.231-7.079-7.231-9.687
			c0-1.748,0.756-3.442,2.129-4.769c1.335-1.29,3.058-2.03,4.726-2.03L9.879,0.023 M25.416,0.023c-2.757,0-5.615,1.329-7.85,4.552
			c-2.104-3.222-4.924-4.552-7.686-4.552C4.856,0.023,0.023,4.418,0.023,9.822c0,6.459,10.097,12.022,17.542,22.201
			c7.445-10.179,17.542-15.742,17.542-22.201C35.108,4.419,30.428,0.023,25.416,0.023L25.416,0.023z"/>
	</g>
</g>
</svg>
