<?xml version="1.0" encoding="utf-8"?>
<!-- Generator: Adobe Illustrator 17.0.0, SVG Export Plug-In . SVG Version: 6.00 Build 0)  -->
<!DOCTYPE svg PUBLIC "-//W3C//DTD SVG 1.1//EN" "http://www.w3.org/Graphics/SVG/1.1/DTD/svg11.dtd">
<svg version="1.1" id="Layer_1" xmlns="http://www.w3.org/2000/svg" xmlns:xlink="http://www.w3.org/1999/xlink" x="0px" y="0px"
	 width="36px" height="32px" viewBox="0 0 36 32" enable-background="new 0 0 36 32" xml:space="preserve">
<g id="heart_x5F_empty_1_">
	<path id="heart_x5F_empty" fill="#EA284E" d="M17.542,4.552C11.612-4.53,0,1.423,0,9.799C0,16.258,10.097,21.821,17.542,32
		c7.445-10.179,17.542-15.742,17.542-22.201C35.085,1.423,23.841-4.53,17.542,4.552z M17.542,26.04
		c-2.289-2.645-4.668-4.976-6.775-7.039c-3.797-3.715-7.045-6.897-7.045-9.202c0-3.478,3.237-6.077,6.133-6.077
		c1.789,0,3.327,0.964,4.569,2.866l3.024,4.631l3.152-4.546c1.338-1.931,2.995-2.952,4.79-2.952c2.818,0,5.971,2.598,5.971,6.077
		c0,2.305-3.251,5.486-7.015,9.17C22.21,21.064,19.828,23.395,17.542,26.04z"/>
</g>
</svg>
