<?xml version="1.0" encoding="utf-8"?>
<!-- Generator: Adobe Illustrator 17.0.0, SVG Export Plug-In . SVG Version: 6.00 Build 0)  -->
<!DOCTYPE svg PUBLIC "-//W3C//DTD SVG 1.1//EN" "http://www.w3.org/Graphics/SVG/1.1/DTD/svg11.dtd">
<svg version="1.1" id="Layer_1" xmlns:sketch="http://www.bohemiancoding.com/sketch/ns"
	 xmlns="http://www.w3.org/2000/svg" xmlns:xlink="http://www.w3.org/1999/xlink" x="0px" y="0px" width="20px" height="24px"
	 viewBox="0 0 20 24" enable-background="new 0 0 20 24" xml:space="preserve">
<title>logo</title>
<desc>Created with Sketch.</desc>
<g id="Page-1" sketch:type="MSPage">
	<path id="Imported-Layers" sketch:type="MSShapeGroup" fill="#072460" d="M9.352,12.236H7.254v-1.39H5.807
		c-0.325,0-0.588-0.271-0.588-0.606c0-0.335,0.263-0.606,0.588-0.606h1.447V8.281H5.807c-0.325,0-0.588-0.272-0.588-0.606
		c0-0.335,0.263-0.606,0.588-0.606h1.447V5.642h2.134c2.062,0,3.303,0.756,3.518,2.559h6.96C19.654,2.976,16.406,0,9.672,0H0v23.77
		h7.254v-6.405h2.738c5.999,0,9.54-2.698,9.859-7.71h-6.96C12.635,11.35,11.424,12.236,9.352,12.236"/>
</g>
</svg>
