<?xml version="1.0" encoding="UTF-8" standalone="no"?>
<svg width="20px" height="24px" viewBox="0 0 20 24" version="1.1" xmlns="http://www.w3.org/2000/svg" xmlns:xlink="http://www.w3.org/1999/xlink" xmlns:sketch="http://www.bohemiancoding.com/sketch/ns">
    <!-- Generator: Sketch 3.0.3 (7892) - http://www.bohemiancoding.com/sketch -->
    <title>logo</title>
    <desc>Created with Sketch.</desc>
    <defs></defs>
    <g id="Page-1" stroke="none" stroke-width="1" fill="none" fill-rule="evenodd" sketch:type="MSPage">
        <path d="M9.35176471,12.2363636 L7.25388235,12.2363636 L7.25388235,10.8465455 L5.80682353,10.8465455 C5.48188235,10.8465455 5.21858824,10.5752727 5.21858824,10.2407273 C5.21858824,9.90593939 5.48188235,9.63466667 5.80682353,9.63466667 L7.25388235,9.63466667 L7.25388235,8.28145455 L5.80682353,8.28145455 C5.48188235,8.28145455 5.21858824,8.00993939 5.21858824,7.67539394 C5.21858824,7.34060606 5.48188235,7.06933333 5.80682353,7.06933333 L7.25388235,7.06933333 L7.25388235,5.64193939 L9.38752941,5.64193939 C11.4494118,5.64193939 12.6903529,6.39757576 12.9058824,8.20121212 L19.8654118,8.20121212 C19.6538824,2.97648485 16.4063529,0 9.672,0 L0,0 L0,23.7701818 L7.25388235,23.7701818 L7.25388235,17.3653333 L9.992,17.3653333 C15.9910588,17.3653333 19.5324706,14.6673939 19.8510588,9.65575758 L12.8905882,9.65575758 C12.6348235,11.3500606 11.4235294,12.2363636 9.35176471,12.2363636" id="Imported-Layers" fill="#f3f6fd" sketch:type="MSShapeGroup"></path>
    </g>
</svg>