<?xml version="1.0" encoding="utf-8"?>
<!-- Generator: Adobe Illustrator 17.0.0, SVG Export Plug-In . SVG Version: 6.00 Build 0)  -->
<!DOCTYPE svg PUBLIC "-//W3C//DTD SVG 1.1//EN" "http://www.w3.org/Graphics/SVG/1.1/DTD/svg11.dtd">
<svg version="1.1" id="Layer_1" xmlns="http://www.w3.org/2000/svg" xmlns:xlink="http://www.w3.org/1999/xlink" x="0px" y="0px"
	 width="24px" height="32px" viewBox="0 0 24 32" enable-background="new 0 0 24 32" xml:space="preserve">
<g>
	<path fill="#072460" d="M0,32h24V12h-4V8c0-4.411-3.589-8-8-8C7.589,0,4,3.589,4,8v4H0V32z M10.667,20
		c0-0.735,0.598-1.333,1.333-1.333c0.735,0,1.333,0.598,1.333,1.333c0,0.491-0.27,0.917-0.667,1.148v3.519
		c0,0.368-0.299,0.667-0.667,0.667c-0.368,0-0.667-0.299-0.667-0.667v-3.519C10.937,20.917,10.667,20.491,10.667,20z M5.333,8
		c0-3.676,2.991-6.667,6.667-6.667S18.667,4.324,18.667,8v4H5.333V8z"/>
</g>
</svg>
