<?xml version="1.0" encoding="utf-8"?>
<!-- Generator: Adobe Illustrator 17.0.0, SVG Export Plug-In . SVG Version: 6.00 Build 0)  -->
<!DOCTYPE svg PUBLIC "-//W3C//DTD SVG 1.1//EN" "http://www.w3.org/Graphics/SVG/1.1/DTD/svg11.dtd">
<svg version="1.1" id="Layer_1" xmlns="http://www.w3.org/2000/svg" xmlns:xlink="http://www.w3.org/1999/xlink" x="0px" y="0px"
	 width="32px" height="32px" viewBox="0 0 32 32" enable-background="new 0 0 32 32" xml:space="preserve">
<path fill="#FFFFFF" d="M30.667,14.667H17.349l0.013-13.332C17.362,0.598,16.766,0.001,16.03,0h-0.001
	c-0.736,0-1.333,0.596-1.333,1.332l-0.013,13.335H1.333C0.597,14.667,0,15.264,0,16c0,0.736,0.597,1.333,1.333,1.333h13.346
	l-0.013,13.332c-0.001,0.736,0.596,1.334,1.332,1.335H16c0.736,0,1.333-0.596,1.334-1.332l0.013-13.335h13.321
	C31.403,17.333,32,16.736,32,16C32,15.264,31.403,14.667,30.667,14.667z"/>
</svg>
