<?xml version="1.0" encoding="utf-8"?>
<!-- Generator: Adobe Illustrator 17.0.0, SVG Export Plug-In . SVG Version: 6.00 Build 0)  -->
<!DOCTYPE svg PUBLIC "-//W3C//DTD SVG 1.1//EN" "http://www.w3.org/Graphics/SVG/1.1/DTD/svg11.dtd">
<svg version="1.1" id="RCP" xmlns="http://www.w3.org/2000/svg" xmlns:xlink="http://www.w3.org/1999/xlink" x="0px" y="0px"
	 width="328px" height="48px" viewBox="0 0 328 48" enable-background="new 0 0 328 48" xml:space="preserve">
<path fill="#ffffff" d="M0,11.877h9.926c6.631,0,10.315,2.695,10.315,8.043v0.145c0,3.614-1.912,5.633-4.57,6.66l6.06,10.493h-7.658
	l-5.141-9.073H7.235v9.073H0V11.877z M9.57,23.429c2.45,0,3.651-1.027,3.651-3.084v-0.141c0-2.057-1.275-2.873-3.609-2.873H7.235
	v6.097H9.57z"/>
<path fill="#ffffff" d="M21.805,28.181v-0.286c0-5.952,4.429-9.711,10.033-9.711c5.066,0,9.421,2.906,9.421,9.57v1.664H28.221
	c0.174,2.446,1.598,3.866,3.866,3.866c2.086,0,2.972-0.96,3.22-2.198h5.952c-0.563,4.181-3.792,6.557-9.388,6.557
	C26.061,37.643,21.805,34.241,21.805,28.181z M35.101,25.838c-0.108-2.231-1.209-3.473-3.262-3.473
	c-1.921,0-3.229,1.242-3.543,3.473H35.101z"/>
<path fill="#ffffff" d="M42.063,31.335h5.845c0.215,1.345,0.82,2.09,2.624,2.09c1.565,0,2.268-0.604,2.268-1.523
	c0-0.886-0.886-1.312-3.436-1.668c-4.959-0.637-7.053-2.09-7.053-5.952c0-4.114,3.651-6.097,7.939-6.097
	c4.57,0,7.765,1.56,8.187,5.989h-5.745c-0.248-1.242-0.919-1.842-2.368-1.842c-1.382,0-2.094,0.6-2.094,1.453
	c0,0.886,0.853,1.242,3.121,1.523c5.141,0.637,7.616,1.987,7.616,5.952c0,4.396-3.262,6.383-8.394,6.383
	C45.291,37.643,42.203,35.445,42.063,31.335z"/>
<path fill="#ffffff" d="M61.409,31.261v-8.258h-2.235v-4.321h2.235V14.82h6.341v3.862h3.651v4.321h-3.651v7.658
	c0,1.345,0.671,1.95,1.879,1.95c0.712,0,1.242-0.108,1.805-0.319v4.818c-0.811,0.215-2.02,0.534-3.51,0.534
	C63.744,37.643,61.409,35.623,61.409,31.261z"/>
<path fill="#ffffff" d="M73.529,18.682h6.341v3.684c1.176-2.765,3.121-3.97,5.994-3.932v5.919c-3.866-0.108-5.994,1.097-5.994,4.077
	v8.788h-6.341V18.682z"/>
<path fill="#ffffff" d="M87.006,13.648c0-1.879,1.49-3.295,3.469-3.295c1.987,0,3.51,1.416,3.51,3.295s-1.523,3.262-3.51,3.262
	C88.497,16.91,87.006,15.527,87.006,13.648z M87.321,18.682h6.35v18.535h-6.35V18.682z"/>
<path fill="#ffffff" d="M95.508,28.181v-0.286c0-6.167,4.429-9.711,9.893-9.711c4.537,0,8.717,1.983,9.073,7.62h-5.96
	c-0.281-1.738-1.134-2.695-2.972-2.695c-2.235,0-3.551,1.594-3.551,4.715v0.281c0,3.229,1.242,4.893,3.651,4.893
	c1.78,0,3.013-1.064,3.229-3.084h5.704c-0.174,4.677-3.328,7.728-9.322,7.728C99.722,37.643,95.508,34.419,95.508,28.181z"/>
<path fill="#ffffff" d="M117.074,31.261v-8.258h-2.235v-4.321h2.235V14.82h6.341v3.862h3.651v4.321h-3.651v7.658
	c0,1.345,0.671,1.95,1.879,1.95c0.712,0,1.242-0.108,1.805-0.319v4.818c-0.811,0.215-2.02,0.534-3.51,0.534
	C119.408,37.643,117.074,35.623,117.074,31.261z"/>
<path fill="#ffffff" d="M132.695,24.704v-0.281c0-7.798,5.53-12.935,12.939-12.935c6.59,0,11.159,3.046,11.764,9.744h-7.475
	c-0.29-2.587-1.705-4.003-4.255-4.003c-3.262,0-5.315,2.55-5.315,7.157v0.286c0,4.57,1.945,7.161,5.422,7.161
	c2.55,0,4.354-1.349,4.71-4.147h7.235c-0.497,6.557-5.249,9.959-11.805,9.959C137.058,37.643,132.695,32.469,132.695,24.704z"/>
<path fill="#ffffff" d="M158.582,28.181v-0.286c0-5.952,4.429-9.711,10.174-9.711c5.704,0,10.1,3.651,10.1,9.533v0.286
	c0,6.023-4.429,9.64-10.141,9.64C163.011,37.643,158.582,34.171,158.582,28.181z M172.407,28.073v-0.286
	c0-3.117-1.242-4.855-3.651-4.855c-2.376,0-3.684,1.668-3.684,4.785v0.286c0,3.187,1.233,4.926,3.684,4.926
	C171.132,32.929,172.407,31.157,172.407,28.073z"/>
<path fill="#ffffff" d="M180.677,18.682h6.341v2.976c0.993-1.912,3.013-3.473,6.101-3.473c3.576,0,6.06,2.231,6.06,6.983v12.049
	h-6.35V26.443c0-2.09-0.811-3.121-2.657-3.121c-1.879,0-3.154,1.134-3.154,3.51v10.385h-6.341V18.682z"/>
<path fill="#ffffff" d="M202.549,31.261v-8.258h-2.235v-4.321h2.235V14.82h6.341v3.862h3.651v4.321h-3.651v7.658
	c0,1.345,0.671,1.95,1.879,1.95c0.712,0,1.242-0.108,1.805-0.319v4.818c-0.811,0.215-2.02,0.534-3.51,0.534
	C204.883,37.643,202.549,35.623,202.549,31.261z"/>
<path fill="#ffffff" d="M213.277,28.181v-0.286c0-5.952,4.429-9.711,10.033-9.711c5.066,0,9.421,2.906,9.421,9.57v1.664h-13.039
	c0.174,2.446,1.598,3.866,3.866,3.866c2.086,0,2.972-0.96,3.22-2.198h5.952c-0.563,4.181-3.792,6.557-9.388,6.557
	C217.533,37.643,213.277,34.241,213.277,28.181z M226.564,25.838c-0.099-2.231-1.2-3.473-3.253-3.473
	c-1.921,0-3.229,1.242-3.551,3.473H226.564z"/>
<path fill="#ffffff" d="M234.685,18.682h6.341v2.976c0.993-1.912,3.013-3.473,6.101-3.473c3.576,0,6.06,2.231,6.06,6.983v12.049
	h-6.35V26.443c0-2.09-0.811-3.121-2.657-3.121c-1.879,0-3.154,1.134-3.154,3.51v10.385h-6.341V18.682z"/>
<path fill="#ffffff" d="M256.557,31.261v-8.258h-2.235v-4.321h2.235V14.82h6.341v3.862h3.651v4.321h-3.651v7.658
	c0,1.345,0.671,1.95,1.879,1.95c0.712,0,1.242-0.108,1.805-0.319v4.818c-0.811,0.215-2.02,0.534-3.51,0.534
	C258.892,37.643,256.557,35.623,256.557,31.261z"/>
<path fill="#ffffff" d="M273.486,11.877h9.644c6.946,0,10.174,3.084,10.174,8.469v0.145c0,5.315-3.585,8.183-9.86,8.183h-2.724
	v8.543h-7.235V11.877z M282.808,23.715c2.343,0,3.585-1.101,3.585-3.191v-0.141c0-2.161-1.275-3.051-3.543-3.051h-2.128v6.383
	H282.808z"/>
<path fill="#ffffff" d="M294.754,18.682h6.341v3.684c1.176-2.765,3.121-3.97,5.994-3.932v5.919
	c-3.866-0.108-5.994,1.097-5.994,4.077v8.788h-6.341V18.682z"/>
<path fill="#ffffff" d="M307.726,28.181v-0.286c0-5.952,4.429-9.711,10.174-9.711c5.704,0,10.1,3.651,10.1,9.533v0.286
	c0,6.023-4.429,9.64-10.141,9.64C312.155,37.643,307.726,34.171,307.726,28.181z M321.551,28.073v-0.286
	c0-3.117-1.242-4.855-3.651-4.855c-2.376,0-3.684,1.668-3.684,4.785v0.286c0,3.187,1.233,4.926,3.684,4.926
	C320.276,32.929,321.551,31.157,321.551,28.073z"/>
</svg>
