<?xml version="1.0" encoding="utf-8"?>
<!-- Generator: Adobe Illustrator 17.0.0, SVG Export Plug-In . SVG Version: 6.00 Build 0)  -->
<!DOCTYPE svg PUBLIC "-//W3C//DTD SVG 1.1//EN" "http://www.w3.org/Graphics/SVG/1.1/DTD/svg11.dtd">

<svg version="1.1" xmlns="http://www.w3.org/2000/svg" xmlns:xlink="http://www.w3.org/1999/xlink" x="0px" y="0px"
	 width="32px" height="32px" viewBox="0 0 32 32" enable-background="new 0 0 32 32" xml:space="preserve">



        <style>
           .edd-remove-from-cart:hover path {
				fill: #373737;
			}
        </style>
    

<g>
	<path fill="#22acda" d="M17.86,15.999l4.114-4.114c0.568-0.568,0.568-1.489,0.001-2.057c-0.568-0.568-1.491-0.568-2.057,0
		l-4.115,4.114L11.689,9.83c-0.568-0.568-1.489-0.568-2.057,0s-0.568,1.489,0,2.057L13.745,16l-4.114,4.114
		c-0.568,0.568-0.568,1.49,0,2.057c0.284,0.284,0.656,0.426,1.029,0.426s0.744-0.142,1.029-0.425l4.114-4.114l4.114,4.114
		c0.284,0.283,0.657,0.425,1.029,0.425s0.745-0.142,1.029-0.425c0.567-0.568,0.567-1.49,0-2.058L17.86,15.999z"/>
	<path fill="#22acda" d="M16,0C7.178,0,0,7.178,0,16c0,8.823,7.178,16,16,16c8.823,0,16-7.177,16-16C32,7.178,24.823,0,16,0z
		 M16,29.092C8.782,29.092,2.909,23.219,2.909,16S8.782,2.909,16,2.909S29.092,8.782,29.092,16S23.219,29.092,16,29.092z"/>

</g>
</svg>
