<?xml version="1.0" encoding="utf-8"?>
<!-- Generator: Adobe Illustrator 17.0.0, SVG Export Plug-In . SVG Version: 6.00 Build 0)  -->
<!DOCTYPE svg PUBLIC "-//W3C//DTD SVG 1.1//EN" "http://www.w3.org/Graphics/SVG/1.1/DTD/svg11.dtd">
<svg version="1.1" id="Layer_1" xmlns="http://www.w3.org/2000/svg" xmlns:xlink="http://www.w3.org/1999/xlink" x="0px" y="0px"
	 width="32px" height="32px" viewBox="0 0 32 32" enable-background="new 0 0 32 32" xml:space="preserve">
<g>
	<path fill="#072460" d="M9.248,13.672c-0.287-0.241-0.716-0.203-0.956,0.086l-3.428,4.105c-0.339-2.44,0.159-4.923,1.467-7.114
		c1.599-2.68,4.212-4.619,7.169-5.317c3.898-0.923,7.976,0.371,10.638,3.375c0.248,0.28,0.677,0.304,0.957,0.058
		c0.281-0.249,0.308-0.677,0.058-0.958c-2.992-3.38-7.577-4.834-11.966-3.797c-3.312,0.783-6.237,2.95-8.022,5.944
		c-1.213,2.034-1.798,4.293-1.754,6.565l-2.168-3.229c-0.208-0.311-0.631-0.395-0.942-0.185c-0.311,0.209-0.394,0.63-0.185,0.942
		l3.783,5.634c0.119,0.178,0.315,0.289,0.528,0.3c0.012,0.001,0.024,0.001,0.036,0.001c0.201,0,0.392-0.089,0.521-0.244l4.351-5.209
		C9.574,14.34,9.535,13.912,9.248,13.672z"/>
	<path fill="#072460" d="M31.885,19.228l-3.782-5.635c-0.119-0.177-0.314-0.288-0.528-0.3c-0.155-0.001-0.302,0.059-0.429,0.15
		c-0.027,0.016-0.049,0.034-0.073,0.053c-0.016,0.016-0.04,0.022-0.055,0.04l-0.069,0.082c-0.008,0.011-0.018,0.019-0.025,0.03
		l-4.258,5.097c-0.24,0.288-0.201,0.716,0.086,0.956c0.288,0.24,0.717,0.203,0.956-0.086l3.265-3.909
		c0.118,4.912-3.466,9.677-8.476,10.86c-3.659,0.868-7.448-0.196-10.132-2.842c-0.266-0.262-0.697-0.26-0.96,0.008
		c-0.263,0.266-0.26,0.696,0.007,0.96c2.327,2.293,5.391,3.529,8.558,3.528c0.943,0,1.894-0.109,2.84-0.333
		c5.484-1.294,9.357-6.177,9.531-11.504l2.417,3.6c0.131,0.196,0.346,0.301,0.563,0.301c0.131,0,0.262-0.037,0.378-0.115
		C32.01,19.961,32.094,19.538,31.885,19.228z"/>
</g>
</svg>
