<?xml version="1.0" encoding="utf-8"?>
<!-- Generator: Adobe Illustrator 17.0.0, SVG Export Plug-In . SVG Version: 6.00 Build 0)  -->
<!DOCTYPE svg PUBLIC "-//W3C//DTD SVG 1.1//EN" "http://www.w3.org/Graphics/SVG/1.1/DTD/svg11.dtd">
<svg version="1.1" id="Layer_1" xmlns="http://www.w3.org/2000/svg" xmlns:xlink="http://www.w3.org/1999/xlink" x="0px" y="0px"
	 width="32px" height="32px" viewBox="0 0 32 32" enable-background="new 0 0 32 32" xml:space="preserve">
<g id="share_x5F_alt">
	<path fill="#FFFFFF" d="M26.75,21.818c-1.315,0-2.503,0.511-3.406,1.331l-9.327-5.501c0.125-0.531,0.21-1.077,0.21-1.648
		c0-0.588-0.091-1.151-0.226-1.697l9.3-5.486c0.909,0.84,2.114,1.365,3.449,1.365c2.812,0,5.091-2.278,5.091-5.091S29.562,0,26.75,0
		c-2.813,0-5.091,2.278-5.091,5.091c0,0.423,0.067,0.828,0.165,1.222l-9.097,5.364c-1.301-1.685-3.318-2.79-5.614-2.79
		C3.185,8.886,0,12.07,0,16s3.185,7.114,7.114,7.114c2.312,0,4.347-1.121,5.646-2.83l9.078,5.354
		c-0.105,0.409-0.179,0.83-0.179,1.271c0,2.813,2.278,5.091,5.091,5.091c2.812,0,5.091-2.278,5.091-5.091
		S29.562,21.818,26.75,21.818z"/>
</g>
</svg>
