<?xml version="1.0" encoding="UTF-8" standalone="no"?>
<svg width="24px" height="24px" viewBox="0 0 24 24" version="1.1" xmlns="http://www.w3.org/2000/svg" xmlns:xlink="http://www.w3.org/1999/xlink" xmlns:sketch="http://www.bohemiancoding.com/sketch/ns">
    <!-- Generator: Sketch 3.0.3 (7892) - http://www.bohemiancoding.com/sketch -->
    <title>Slice 1</title>
    <desc>Created with Sketch.</desc>
    <defs></defs>
    <g id="Page-1" stroke="none" stroke-width="1" fill="none" fill-rule="evenodd" sketch:type="MSPage">
        <path d="M23.5,9 L22.581,9 C21.542,5.343 18.657,2.458 15,1.419 L15,0.5 C15,0.224 14.776,0 14.5,0 L9.5,0 C9.224,0 9,0.224 9,0.5 L9,1.419 C5.343,2.458 2.458,5.343 1.419,9 L0.5,9 C0.224,9 0,9.224 0,9.5 L0,14.5 C0,14.776 0.224,15 0.5,15 L1.419,15 C2.458,18.657 5.343,21.542 9,22.581 L9,23.5 C9,23.776 9.224,24 9.5,24 L14.5,24 C14.776,24 15,23.776 15,23.5 L15,22.581 C18.657,21.542 21.542,18.657 22.581,15 L23.5,15 C23.776,15 24,14.776 24,14.5 L24,9.5 C24,9.224 23.776,9 23.5,9 L23.5,9 Z M10,1 L14,1 L14,6.882 C13.379,6.639 12.706,6.5 12,6.5 C11.294,6.5 10.621,6.639 10,6.882 L10,1 L10,1 Z M6.882,14 L1,14 L1,10 L6.882,10 C6.639,10.621 6.5,11.294 6.5,12 C6.5,12.706 6.639,13.379 6.882,14 L6.882,14 Z M14,23 L10,23 L10,17.118 C10.621,17.362 11.294,17.5 12,17.5 C12.706,17.5 13.379,17.362 14,17.118 L14,23 L14,23 Z M12,16.5 C9.519,16.5 7.5,14.481 7.5,12 C7.5,9.519 9.519,7.5 12,7.5 C14.482,7.5 16.5,9.519 16.5,12 C16.5,14.481 14.482,16.5 12,16.5 L12,16.5 Z M23,14 L17.118,14 C17.362,13.379 17.5,12.706 17.5,12 C17.5,11.294 17.362,10.621 17.118,10 L23,10 L23,14 L23,14 Z" id="Imported-Layers" fill="#aaa" sketch:type="MSShapeGroup"></path>
    </g>
</svg>