<?xml version="1.0" encoding="UTF-8" standalone="no"?>
<svg width="24px" height="24px" viewBox="0 0 24 24" version="1.1" xmlns="http://www.w3.org/2000/svg" xmlns:xlink="http://www.w3.org/1999/xlink" xmlns:sketch="http://www.bohemiancoding.com/sketch/ns">
    <!-- Generator: Sketch 3.0.3 (7892) - http://www.bohemiancoding.com/sketch -->
    <title>Slice 1</title>
    <desc>Created with Sketch.</desc>
    <defs></defs>
    <g id="Page-1" stroke="none" stroke-width="1" fill="none" fill-rule="evenodd" sketch:type="MSPage">
        <g id="Imported-EPS" sketch:type="MSLayerGroup" fill="#072460">
            <path d="M23.5,10 L22.808,10 C21.987,5.548 18.452,2.014 14,1.192 L14,0.5 C14,0.224 13.776,0 13.5,0 L10.5,0 C10.224,0 10,0.224 10,0.5 L10,1.192 C5.547,2.014 2.012,5.548 1.19,10 L0.5,10 C0.224,10 0,10.224 0,10.5 L0,13.5 C0,13.776 0.224,14 0.5,14 L1.19,14 C2.012,18.453 5.547,21.988 10,22.809 L10,23.5 C10,23.776 10.224,24 10.5,24 L13.5,24 C13.776,24 14,23.776 14,23.5 L14,22.809 C18.453,21.987 21.986,18.454 22.808,14 L23.5,14 C23.776,14 24,13.776 24,13.5 L24,10.5 C24,10.224 23.776,10 23.5,10 L23.5,10 Z M21.792,10 L17.118,10 C16.559,8.575 15.425,7.441 14,6.882 L14,2.208 C17.903,3.004 20.997,6.098 21.792,10 L21.792,10 Z M12,16.5 C9.519,16.5 7.5,14.481 7.5,12 C7.5,9.519 9.519,7.5 12,7.5 C14.481,7.5 16.5,9.519 16.5,12 C16.5,14.481 14.481,16.5 12,16.5 L12,16.5 Z M13,1 L13,6.595 C12.675,6.535 12.342,6.5 12,6.5 C11.659,6.5 11.325,6.536 11,6.596 L11,1 L13,1 L13,1 Z M10,2.208 L10,6.882 C8.576,7.441 7.441,8.575 6.882,10 L2.207,10 C3.002,6.098 6.097,3.004 10,2.208 L10,2.208 Z M1,11 L6.596,11 C6.536,11.325 6.5,11.658 6.5,12 C6.5,12.342 6.536,12.675 6.596,13 L1,13 L1,11 L1,11 Z M2.207,14 L6.883,14 C7.441,15.425 8.576,16.559 10,17.118 L10,21.792 C6.098,20.998 3.003,17.903 2.207,14 L2.207,14 Z M11,23 L11,17.404 C11.325,17.464 11.659,17.5 12,17.5 C12.342,17.5 12.675,17.465 13,17.404 L13,23 L11,23 L11,23 Z M14,21.792 L14,17.118 C15.425,16.559 16.559,15.425 17.118,14 L21.792,14 C20.997,17.903 17.903,20.998 14,21.792 L14,21.792 Z M23,13 L17.404,13 C17.464,12.675 17.5,12.342 17.5,12 C17.5,11.658 17.464,11.325 17.404,11 L23,11 L23,13 L23,13 Z" id="Imported-Layers" sketch:type="MSShapeGroup"></path>
        </g>
    </g>
</svg>