<?xml version="1.0" encoding="utf-8"?>
<!-- Generator: Adobe Illustrator 17.0.0, SVG Export Plug-In . SVG Version: 6.00 Build 0)  -->
<!DOCTYPE svg PUBLIC "-//W3C//DTD SVG 1.1//EN" "http://www.w3.org/Graphics/SVG/1.1/DTD/svg11.dtd">
<svg version="1.1" id="Layer_1" xmlns="http://www.w3.org/2000/svg" xmlns:xlink="http://www.w3.org/1999/xlink" x="0px" y="0px"
	 width="24px" height="24px" viewBox="0 0 24 24" enable-background="new 0 0 24 24" xml:space="preserve">
<path display="none" fill="#072460" d="M20.829,0.124c-0.107-0.094-0.245-0.137-0.396-0.12l-7.5,1C12.686,1.038,12.5,1.25,12.5,1.5
	V2H11H9.107L4.704,0.043c-0.25-0.111-0.547,0.002-0.66,0.254c-0.112,0.252,0.001,0.548,0.254,0.66L7.23,2.261
	C4.785,3.01,3,5.29,3,7.979V20.5C3,20.776,3.224,21,3.5,21S4,20.776,4,20.5V7.979C4,5.403,5.973,3.303,8.5,3.05v1.243
	C7.011,4.898,6,6.372,6,8v15.5C6,23.776,6.224,24,6.5,24h7c0.276,0,0.5-0.224,0.5-0.5V8c0-1.628-1.011-3.102-2.5-3.706V3h1v0.5
	c0,0.25,0.186,0.462,0.434,0.496l7.5,1C20.456,4.999,20.479,5,20.5,5c0.12,0,0.237-0.043,0.329-0.124C20.938,4.781,21,4.644,21,4.5
	v-4C21,0.356,20.938,0.219,20.829,0.124z M13,20h-2V10h2V20z M13,8v1h-2.5C10.224,9,10,9.224,10,9.5v11c0,0.276,0.224,0.5,0.5,0.5
	H13v2H7V8c0-1.317,0.881-2.498,2.143-2.873C9.355,5.063,9.5,4.869,9.5,4.647V3h1v1.647c0,0.221,0.146,0.416,0.357,0.479
	C12.119,5.502,13,6.684,13,8z M20,3.929l-6.5-0.867V1.938L20,1.071V3.929z"/>
<g opacity="0.2">
	<path fill="none" stroke="#072460" stroke-linecap="round" stroke-linejoin="round" stroke-miterlimit="10" d="M13,4.648V2.5h2
		v2.148c1.447,0.43,2.5,1.768,2.5,3.352v15.5h-7V8C10.5,6.416,11.556,5.078,13,4.648z"/>
	<path fill="none" stroke="#072460" stroke-linecap="round" stroke-linejoin="round" stroke-miterlimit="10" d="M19.5,0.5l-4.5,2
		h0.022c3.025,0,5.478,2.454,5.478,5.478V20.5"/>
	<polygon fill="none" stroke="#072460" stroke-linecap="round" stroke-linejoin="round" stroke-miterlimit="10" points="3.5,0.5 
		3.5,4.5 11,3.5 11,1.5 	"/>
	
		<line fill="none" stroke="#072460" stroke-linecap="round" stroke-linejoin="round" stroke-miterlimit="10" x1="13" y1="2.5" x2="11" y2="2.5"/>
	<polyline fill="none" stroke="#072460" stroke-linecap="round" stroke-linejoin="round" stroke-miterlimit="10" points="10.5,20.5 
		13.5,20.5 13.5,9.5 10.5,9.5 	"/>
</g>
</svg>
