<?xml version="1.0" encoding="UTF-8" standalone="no"?>
<!DOCTYPE svg PUBLIC "-//W3C//DTD SVG 1.1//EN" "http://www.w3.org/Graphics/SVG/1.1/DTD/svg11.dtd">
<svg width="100%" height="100%" viewBox="0 0 732 193" version="1.1" xmlns="http://www.w3.org/2000/svg" xmlns:xlink="http://www.w3.org/1999/xlink" xml:space="preserve" style="fill-rule:evenodd;clip-rule:evenodd;stroke-linejoin:round;stroke-miterlimit:1.41421;">
    <path id="logo_mark" d="M135.1,105.3C134.1,105.3 133.1,105.4 132.1,105.5L117.7,79.6C120.9,75.8 122.8,70.9 122.8,65.6C122.8,53.5 113,43.7 100.9,43.7C88.8,43.7 79,53.6 79,65.6C79,70.8 80.8,75.6 83.9,79.4L68.9,105.6C67.8,105.4 66.7,105.3 65.6,105.3C53.5,105.3 43.7,115.1 43.7,127.2C43.7,139.3 53.5,149.1 65.6,149.1C77.7,149.1 87.5,139.3 87.5,127.2C87.5,122 85.7,117.2 82.6,113.4L97.6,87.2C98.7,87.4 99.8,87.5 100.9,87.5C101.9,87.5 102.9,87.4 103.9,87.3L118.3,113.2C115.1,117 113.2,121.9 113.2,127.2C113.2,139.3 123,149.1 135.1,149.1C147.2,149.1 157,139.3 157,127.2C157,115.1 147.2,105.3 135.1,105.3ZM100.9,58.1C105,58.1 108.4,61.5 108.4,65.6C108.4,69.7 105,73.1 100.9,73.1C96.8,73.1 93.4,69.7 93.4,65.6C93.4,61.5 96.8,58.1 100.9,58.1ZM65.6,134.7C61.5,134.7 58.1,131.3 58.1,127.2C58.1,123.1 61.5,119.7 65.6,119.7C69.7,119.7 73.1,123.1 73.1,127.2C73.1,131.3 69.7,134.7 65.6,134.7ZM135.1,134.7C131,134.7 127.6,131.3 127.6,127.2C127.6,123.1 131,119.7 135.1,119.7C139.2,119.7 142.6,123.1 142.6,127.2C142.6,131.3 139.3,134.7 135.1,134.7Z" style="fill:white;fill-rule:nonzero;"/>
    <g id="logo_text">
        <path d="M205.5,64L230.7,64L252.3,132L231.7,132L228.1,119.3L205.6,119.3L202,132L183.8,132L205.5,64ZM209.3,106L224.2,106L216.8,79.8L209.3,106Z" style="fill:white;fill-rule:nonzero;"/>
        <path d="M258.1,93.9L251.8,93.9L251.8,82.3L258.1,82.3L258.1,78.5C258.1,66.1 265.7,60.3 277.5,60.3C280.6,60.3 282.9,60.7 285.1,61.3L285.1,73.8C283.9,73.4 282.4,73.1 280.5,73.1C276.7,73.1 275,75.4 275,78.5L275,82.3L289.5,82.3L289.5,77.9C289.5,65.5 297.2,59.6 309,59.6C312.1,59.6 314.3,60 316.5,60.6L316.5,73.1C315.3,72.7 314,72.5 312,72.5C308.1,72.5 306.5,74.7 306.5,77.9L306.5,82.3L316.5,82.3L316.5,93.9L306.5,93.9L306.5,132L289.5,132L289.5,93.9L275,93.9L275,132L258.1,132L258.1,93.9Z" style="fill:white;fill-rule:nonzero;"/>
        <path d="M320.5,68.8C320.5,63.8 324.5,60 329.8,60C335.1,60 339.2,63.8 339.2,68.8C339.2,73.8 335.1,77.6 329.8,77.6C324.5,77.5 320.5,73.8 320.5,68.8ZM321.4,82.3L338.4,82.3L338.4,132L321.4,132L321.4,82.3Z" style="fill:white;fill-rule:nonzero;"/>
        <rect x="347.5" y="60.4" width="16.9" height="71.6" style="fill:white;fill-rule:nonzero;"/>
        <path d="M372.7,68.8C372.7,63.8 376.7,60 382,60C387.3,60 391.4,63.8 391.4,68.8C391.4,73.8 387.3,77.6 382,77.6C376.7,77.5 372.7,73.8 372.7,68.8ZM373.6,82.3L390.6,82.3L390.6,132L373.6,132L373.6,82.3Z" style="fill:white;fill-rule:nonzero;"/>
        <path d="M396.7,118.2C396.7,106.5 406.6,101.9 423.1,101.9L427.9,101.9L427.9,100.8C427.9,96 426.8,92.9 421.3,92.9C416.6,92.9 414.9,95.7 414.5,98.8L398.5,98.8C399.3,86.8 408.7,80.9 422.3,80.9C436,80.9 444.7,86.5 444.7,99.7L444.7,132L428.1,132L428.1,126.2C425.7,129.8 421.3,133.1 413.4,133.1C404.6,133.2 396.7,128.8 396.7,118.2ZM427.9,114.6L427.9,111.6L423.4,111.6C416.6,111.6 413.5,112.9 413.5,117C413.5,119.9 415.4,121.7 419.4,121.7C424.3,121.7 427.9,118.9 427.9,114.6Z" style="fill:white;fill-rule:nonzero;"/>
        <path d="M455,116.1L455,93.9L449,93.9L449,82.3L455,82.3L455,71.9L472,71.9L472,82.3L481.8,82.3L481.8,93.9L472,93.9L472,114.4C472,118 473.8,119.6 477,119.6C478.9,119.6 480.3,119.3 481.9,118.7L481.9,131.6C479.7,132.2 476.5,133 472.5,133C461.2,133.2 455,127.8 455,116.1Z" style="fill:white;fill-rule:nonzero;"/>
        <path d="M484.8,107.8L484.8,107C484.8,91 496.7,80.9 511.7,80.9C525.3,80.9 537,88.7 537,106.6L537,111.1L502,111.1C502.5,117.7 506.3,121.5 512.4,121.5C518,121.5 520.4,118.9 521.1,115.6L537.1,115.6C535.6,126.8 526.9,133.2 511.9,133.2C496.2,133.2 484.8,124 484.8,107.8ZM520.4,101.5C520.1,95.5 517.2,92.2 511.6,92.2C506.5,92.2 502.9,95.5 502.1,101.5L520.4,101.5Z" style="fill:white;fill-rule:nonzero;"/>
        <path d="M536.8,64L556.5,64L565.3,106.4L574.4,64L591.7,64L601.6,106.8L610.8,64L628.9,64L613,132L592.6,132L582.1,88.8L571.7,132L552.7,132L536.8,64Z" style="fill:white;fill-rule:nonzero;"/>
        <path d="M634.6,64L660.5,64C679.1,64 687.8,72.3 687.8,86.7L687.8,87.1C687.8,101.4 678.2,109.1 661.4,109.1L654,109.1L654,132L634.6,132L634.6,64ZM659.6,95.8C665.9,95.8 669.2,92.9 669.2,87.2L669.2,86.8C669.2,81 665.8,78.6 659.7,78.6L654,78.6L654,95.7L659.6,95.7L659.6,95.8Z" style="fill:white;fill-rule:nonzero;"/>
    </g>
</svg>