<?xml version="1.0" encoding="UTF-8" standalone="no"?>
<!DOCTYPE svg PUBLIC "-//W3C//DTD SVG 1.1//EN" "http://www.w3.org/Graphics/SVG/1.1/DTD/svg11.dtd">
<svg width="100%" height="100%" viewBox="0 0 1162 200" version="1.1" xmlns="http://www.w3.org/2000/svg" xmlns:xlink="http://www.w3.org/1999/xlink" xml:space="preserve" xmlns:serif="http://www.serif.com/" style="fill-rule:evenodd;clip-rule:evenodd;stroke-linejoin:round;stroke-miterlimit:2;">
    <g id="Color-logo" serif:id="Color logo" transform="matrix(0.292152,0,0,0.292152,-1.60946e-13,10.4983)">
        <g transform="matrix(1.15146,0,0,1.15146,693.341,282.898)">
            <g transform="matrix(400,0,0,400,83.216,122.77)">
                <path d="M0.397,-0.246C0.397,-0.278 0.389,-0.306 0.373,-0.331C0.357,-0.355 0.331,-0.367 0.295,-0.367C0.282,-0.367 0.27,-0.365 0.259,-0.361C0.247,-0.357 0.236,-0.352 0.227,-0.347L0.227,-0.153C0.238,-0.144 0.25,-0.137 0.265,-0.132C0.279,-0.127 0.292,-0.124 0.305,-0.124C0.338,-0.124 0.362,-0.138 0.376,-0.165C0.39,-0.192 0.397,-0.219 0.397,-0.246ZM0.063,-0.484L0.145,-0.484L0.175,-0.444C0.199,-0.463 0.225,-0.477 0.253,-0.487C0.281,-0.497 0.309,-0.502 0.337,-0.502C0.413,-0.502 0.47,-0.478 0.508,-0.43C0.547,-0.381 0.566,-0.321 0.566,-0.248C0.566,-0.175 0.547,-0.114 0.508,-0.064C0.47,-0.014 0.411,0.011 0.331,0.011C0.314,0.011 0.297,0.008 0.279,0.003C0.261,-0.002 0.244,-0.008 0.227,-0.015L0.227,0.209L0.063,0.219L0.063,-0.484Z" style="fill:white;fill-rule:nonzero;"/>
            </g>
            <g transform="matrix(400,0,0,400,315.216,122.77)">
                <path d="M0.217,-0.12C0.23,-0.12 0.243,-0.123 0.257,-0.129C0.27,-0.135 0.283,-0.143 0.296,-0.154L0.296,-0.203L0.225,-0.203C0.21,-0.203 0.197,-0.199 0.188,-0.19C0.179,-0.181 0.174,-0.17 0.174,-0.157C0.174,-0.147 0.178,-0.138 0.187,-0.131C0.195,-0.124 0.205,-0.12 0.217,-0.12ZM0.256,-0.501C0.319,-0.501 0.368,-0.483 0.405,-0.447C0.442,-0.411 0.46,-0.364 0.46,-0.306L0.46,0L0.384,0L0.351,-0.038C0.335,-0.024 0.315,-0.012 0.291,-0.003C0.267,0.006 0.242,0.011 0.216,0.011C0.155,0.011 0.11,-0.004 0.081,-0.034C0.051,-0.064 0.036,-0.103 0.036,-0.152C0.036,-0.204 0.053,-0.243 0.088,-0.268C0.123,-0.293 0.168,-0.305 0.224,-0.305L0.295,-0.305C0.293,-0.323 0.286,-0.337 0.274,-0.347C0.261,-0.357 0.246,-0.362 0.227,-0.362C0.208,-0.362 0.187,-0.359 0.163,-0.353C0.138,-0.347 0.117,-0.34 0.099,-0.332L0.055,-0.455C0.078,-0.467 0.109,-0.478 0.148,-0.487C0.186,-0.496 0.222,-0.501 0.256,-0.501Z" style="fill:white;fill-rule:nonzero;"/>
            </g>
            <g transform="matrix(400,0,0,400,512.016,122.77)">
                <path d="M0.177,0.009L0.187,-0.017L0.008,-0.467L0.171,-0.485C0.188,-0.438 0.205,-0.391 0.222,-0.344C0.239,-0.297 0.256,-0.25 0.273,-0.204C0.29,-0.25 0.306,-0.297 0.322,-0.344C0.338,-0.391 0.354,-0.438 0.371,-0.485L0.537,-0.485L0.322,0.059C0.306,0.098 0.278,0.132 0.237,0.161C0.197,0.19 0.154,0.209 0.108,0.22L0.052,0.09C0.075,0.08 0.1,0.068 0.127,0.054C0.154,0.041 0.17,0.026 0.177,0.009Z" style="fill:white;fill-rule:nonzero;"/>
            </g>
            <g transform="matrix(400,0,0,400,722.016,122.77)">
                <path d="M0.301,-0.501C0.382,-0.501 0.447,-0.478 0.496,-0.433C0.545,-0.388 0.569,-0.323 0.569,-0.24C0.569,-0.16 0.543,-0.098 0.491,-0.055C0.439,-0.011 0.374,0.011 0.296,0.011C0.219,0.011 0.156,-0.011 0.107,-0.054C0.058,-0.097 0.034,-0.161 0.034,-0.245C0.034,-0.325 0.059,-0.388 0.11,-0.433C0.161,-0.478 0.224,-0.501 0.301,-0.501ZM0.298,-0.124C0.329,-0.124 0.354,-0.134 0.372,-0.153C0.39,-0.172 0.399,-0.201 0.399,-0.24C0.399,-0.277 0.391,-0.307 0.375,-0.33C0.358,-0.353 0.335,-0.365 0.304,-0.365C0.272,-0.365 0.247,-0.355 0.23,-0.334C0.213,-0.313 0.204,-0.284 0.204,-0.245C0.204,-0.207 0.212,-0.177 0.228,-0.156C0.244,-0.135 0.267,-0.124 0.298,-0.124Z" style="fill:white;fill-rule:nonzero;"/>
            </g>
            <g transform="matrix(400,0,0,400,954.816,122.77)">
                <path d="M0.237,0.019C0.17,0.019 0.122,0 0.094,-0.039C0.066,-0.078 0.052,-0.126 0.052,-0.183L0.052,-0.484L0.217,-0.484L0.217,-0.187C0.217,-0.164 0.223,-0.147 0.234,-0.135C0.245,-0.123 0.261,-0.117 0.282,-0.117C0.295,-0.117 0.31,-0.12 0.327,-0.127C0.344,-0.134 0.36,-0.141 0.375,-0.15L0.375,-0.484L0.54,-0.484L0.54,0L0.457,0L0.419,-0.043C0.398,-0.028 0.372,-0.014 0.34,-0.001C0.307,0.012 0.273,0.019 0.237,0.019Z" style="fill:white;fill-rule:nonzero;"/>
            </g>
            <g transform="matrix(400,0,0,400,1186.82,122.77)">
                <path d="M0.302,0.014C0.241,0.014 0.189,-0.002 0.146,-0.033C0.102,-0.064 0.08,-0.111 0.08,-0.173L0.08,-0.343L0.009,-0.343L0.009,-0.471L0.08,-0.471L0.08,-0.597L0.244,-0.621L0.244,-0.471L0.351,-0.471L0.376,-0.343L0.244,-0.343L0.244,-0.194C0.244,-0.172 0.25,-0.154 0.262,-0.141C0.273,-0.128 0.29,-0.121 0.313,-0.121C0.322,-0.121 0.332,-0.123 0.344,-0.126C0.355,-0.129 0.366,-0.133 0.377,-0.138L0.424,-0.025C0.413,-0.014 0.395,-0.005 0.37,0.002C0.345,0.01 0.323,0.014 0.302,0.014Z" style="fill:white;fill-rule:nonzero;"/>
            </g>
            <g transform="matrix(400,0,0,400,1352.02,122.77)">
                <path d="M0.262,-0.309C0.302,-0.295 0.34,-0.276 0.376,-0.251C0.412,-0.226 0.43,-0.191 0.43,-0.147C0.43,-0.097 0.413,-0.058 0.38,-0.031C0.346,-0.003 0.295,0.011 0.228,0.011C0.207,0.011 0.177,0.006 0.136,-0.004C0.095,-0.014 0.061,-0.029 0.034,-0.05L0.081,-0.164C0.102,-0.154 0.125,-0.145 0.151,-0.137C0.176,-0.128 0.198,-0.124 0.215,-0.124C0.23,-0.124 0.242,-0.127 0.25,-0.132C0.258,-0.137 0.262,-0.142 0.262,-0.148C0.262,-0.155 0.258,-0.162 0.25,-0.168C0.242,-0.174 0.229,-0.18 0.21,-0.186C0.17,-0.199 0.132,-0.218 0.096,-0.242C0.059,-0.266 0.041,-0.3 0.041,-0.343C0.041,-0.392 0.059,-0.431 0.096,-0.459C0.133,-0.487 0.183,-0.501 0.247,-0.501C0.267,-0.501 0.295,-0.496 0.331,-0.487C0.366,-0.478 0.397,-0.463 0.424,-0.442L0.377,-0.328C0.356,-0.339 0.336,-0.347 0.315,-0.355C0.294,-0.362 0.274,-0.365 0.255,-0.365C0.24,-0.365 0.229,-0.363 0.222,-0.358C0.215,-0.353 0.211,-0.348 0.211,-0.342C0.211,-0.336 0.215,-0.331 0.222,-0.326C0.229,-0.321 0.242,-0.316 0.262,-0.309Z" style="fill:white;fill-rule:nonzero;"/>
            </g>
            <g transform="matrix(400,0,0,400,1608.82,122.77)">
                <path d="M0.262,-0.309C0.302,-0.295 0.34,-0.276 0.376,-0.251C0.412,-0.226 0.43,-0.191 0.43,-0.147C0.43,-0.097 0.413,-0.058 0.38,-0.031C0.346,-0.003 0.295,0.011 0.228,0.011C0.207,0.011 0.177,0.006 0.136,-0.004C0.095,-0.014 0.061,-0.029 0.034,-0.05L0.081,-0.164C0.102,-0.154 0.125,-0.145 0.151,-0.137C0.176,-0.128 0.198,-0.124 0.215,-0.124C0.23,-0.124 0.242,-0.127 0.25,-0.132C0.258,-0.137 0.262,-0.142 0.262,-0.148C0.262,-0.155 0.258,-0.162 0.25,-0.168C0.242,-0.174 0.229,-0.18 0.21,-0.186C0.17,-0.199 0.132,-0.218 0.096,-0.242C0.059,-0.266 0.041,-0.3 0.041,-0.343C0.041,-0.392 0.059,-0.431 0.096,-0.459C0.133,-0.487 0.183,-0.501 0.247,-0.501C0.267,-0.501 0.295,-0.496 0.331,-0.487C0.366,-0.478 0.397,-0.463 0.424,-0.442L0.377,-0.328C0.356,-0.339 0.336,-0.347 0.315,-0.355C0.294,-0.362 0.274,-0.365 0.255,-0.365C0.24,-0.365 0.229,-0.363 0.222,-0.358C0.215,-0.353 0.211,-0.348 0.211,-0.342C0.211,-0.336 0.215,-0.331 0.222,-0.326C0.229,-0.321 0.242,-0.316 0.262,-0.309Z" style="fill:white;fill-rule:nonzero;"/>
            </g>
            <g transform="matrix(400,0,0,400,1784.02,122.77)">
                <path d="M0.289,-0.501C0.366,-0.501 0.424,-0.476 0.462,-0.426C0.499,-0.375 0.518,-0.316 0.518,-0.248L0.518,-0.193L0.212,-0.193C0.219,-0.17 0.232,-0.152 0.251,-0.141C0.27,-0.129 0.293,-0.123 0.321,-0.123C0.342,-0.123 0.363,-0.125 0.384,-0.13C0.405,-0.134 0.425,-0.141 0.446,-0.151L0.492,-0.038C0.466,-0.019 0.434,-0.006 0.396,0.001C0.357,0.008 0.328,0.011 0.308,0.011C0.227,0.011 0.162,-0.01 0.111,-0.052C0.059,-0.094 0.034,-0.157 0.034,-0.242C0.034,-0.322 0.058,-0.385 0.107,-0.432C0.155,-0.478 0.216,-0.501 0.289,-0.501ZM0.285,-0.367C0.265,-0.367 0.249,-0.361 0.235,-0.348C0.223,-0.335 0.214,-0.318 0.209,-0.295L0.361,-0.295C0.358,-0.314 0.351,-0.33 0.339,-0.345C0.327,-0.36 0.309,-0.367 0.285,-0.367Z" style="fill:white;fill-rule:nonzero;"/>
            </g>
            <g transform="matrix(400,0,0,400,1995.62,122.77)">
                <path d="M0.341,-0.485L0.374,-0.353C0.351,-0.353 0.326,-0.348 0.299,-0.34C0.272,-0.331 0.248,-0.317 0.225,-0.298L0.225,0L0.06,0L0.06,-0.484L0.143,-0.484L0.187,-0.427C0.207,-0.442 0.231,-0.455 0.259,-0.467C0.287,-0.479 0.314,-0.485 0.341,-0.485Z" style="fill:white;fill-rule:nonzero;"/>
            </g>
            <g transform="matrix(400,0,0,400,2140.02,122.77)">
                <path d="M0.195,0L0.009,-0.467L0.172,-0.485L0.274,-0.204L0.371,-0.485L0.537,-0.485L0.346,0L0.195,0Z" style="fill:white;fill-rule:nonzero;"/>
            </g>
            <g transform="matrix(400,0,0,400,2350.02,122.77)">
                <path d="M0.233,-0.641C0.233,-0.616 0.224,-0.595 0.206,-0.578C0.188,-0.561 0.167,-0.552 0.142,-0.552C0.117,-0.552 0.096,-0.561 0.079,-0.578C0.062,-0.595 0.053,-0.616 0.053,-0.641C0.053,-0.666 0.062,-0.687 0.079,-0.705C0.096,-0.723 0.117,-0.732 0.142,-0.732C0.167,-0.732 0.188,-0.723 0.206,-0.705C0.224,-0.687 0.233,-0.666 0.233,-0.641ZM0.225,-0.485L0.225,0L0.06,0L0.06,-0.485L0.225,-0.485Z" style="fill:white;fill-rule:nonzero;"/>
            </g>
            <g transform="matrix(400,0,0,400,2456.02,122.77)">
                <path d="M0.306,-0.365C0.277,-0.365 0.253,-0.354 0.234,-0.331C0.214,-0.308 0.204,-0.279 0.204,-0.242C0.204,-0.205 0.214,-0.177 0.234,-0.156C0.253,-0.135 0.277,-0.124 0.306,-0.124C0.325,-0.124 0.342,-0.126 0.358,-0.131C0.373,-0.135 0.391,-0.142 0.412,-0.152L0.459,-0.038C0.432,-0.017 0.403,-0.004 0.372,0.002C0.34,0.008 0.314,0.011 0.294,0.011C0.215,0.011 0.152,-0.011 0.105,-0.056C0.058,-0.101 0.034,-0.163 0.034,-0.242C0.034,-0.322 0.058,-0.385 0.105,-0.432C0.152,-0.478 0.215,-0.501 0.294,-0.501C0.314,-0.501 0.34,-0.498 0.372,-0.492C0.403,-0.485 0.432,-0.472 0.459,-0.451L0.412,-0.337C0.391,-0.347 0.373,-0.354 0.358,-0.359C0.343,-0.363 0.325,-0.365 0.306,-0.365Z" style="fill:white;fill-rule:nonzero;"/>
            </g>
            <g transform="matrix(400,0,0,400,2642.42,122.77)">
                <path d="M0.289,-0.501C0.366,-0.501 0.424,-0.476 0.462,-0.426C0.499,-0.375 0.518,-0.316 0.518,-0.248L0.518,-0.193L0.212,-0.193C0.219,-0.17 0.232,-0.152 0.251,-0.141C0.27,-0.129 0.293,-0.123 0.321,-0.123C0.342,-0.123 0.363,-0.125 0.384,-0.13C0.405,-0.134 0.425,-0.141 0.446,-0.151L0.492,-0.038C0.466,-0.019 0.434,-0.006 0.396,0.001C0.357,0.008 0.328,0.011 0.308,0.011C0.227,0.011 0.162,-0.01 0.111,-0.052C0.059,-0.094 0.034,-0.157 0.034,-0.242C0.034,-0.322 0.058,-0.385 0.107,-0.432C0.155,-0.478 0.216,-0.501 0.289,-0.501ZM0.285,-0.367C0.265,-0.367 0.249,-0.361 0.235,-0.348C0.223,-0.335 0.214,-0.318 0.209,-0.295L0.361,-0.295C0.358,-0.314 0.351,-0.33 0.339,-0.345C0.327,-0.36 0.309,-0.367 0.285,-0.367Z" style="fill:white;fill-rule:nonzero;"/>
            </g>
        </g>
        <g id="Logomark" transform="matrix(1.54489,0,0,1.54489,-88.7434,-89.1379)">
            <g transform="matrix(1,0,0,1,26.7033,26.7033)">
                <path d="M204.297,14.434C219.767,5.502 238.827,5.502 254.297,14.434C292.436,36.454 364.734,78.195 402.873,100.215C418.343,109.146 427.873,125.653 427.873,143.516L427.873,315.078C427.873,332.941 418.343,349.447 402.873,358.379C364.734,380.399 292.436,422.14 254.297,444.16C238.827,453.091 219.767,453.091 204.297,444.16C166.157,422.14 93.86,380.399 55.72,358.379C40.25,349.447 30.72,332.941 30.72,315.078L30.72,143.516C30.72,125.653 40.25,109.146 55.72,100.215C93.86,78.195 166.157,36.454 204.297,14.434ZM214.297,59.058C223.579,53.699 235.015,53.699 244.297,59.058C273.917,76.159 339.608,114.085 369.228,131.187C378.51,136.546 384.228,146.45 384.228,157.168L384.228,301.426C384.228,312.144 378.51,322.048 369.228,327.407C339.608,344.508 273.917,382.434 244.297,399.536C235.015,404.895 223.579,404.895 214.297,399.536C184.676,382.434 118.986,344.508 89.365,327.407C80.083,322.048 74.365,312.144 74.365,301.426L74.365,157.168C74.365,146.45 80.083,136.546 89.365,131.187C118.986,114.085 184.676,76.159 214.297,59.058Z" style="fill:white;"/>
            </g>
            <g transform="matrix(0.826793,0,0,0.826793,-590.781,59.3413)">
                <path d="M902.536,270.831C900.051,272.265 897.012,272.356 894.445,271.073C891.879,269.79 890.128,267.304 889.784,264.455C889.761,236.971 889.741,177.744 889.741,177.744C889.741,166.911 895.52,156.902 904.901,151.486C930.771,136.549 983.151,106.308 1009.02,91.372C1018.4,85.956 1029.96,85.956 1039.34,91.372C1065.21,106.308 1117.59,136.549 1143.46,151.486C1152.84,156.902 1158.62,166.911 1158.62,177.744L1158.62,297.971C1158.62,308.803 1152.84,318.813 1143.46,324.229C1117.59,339.165 1065.21,369.406 1039.34,384.342C1029.96,389.759 1018.4,389.759 1009.02,384.342C1009.02,384.342 957.017,354.277 933.34,340.528C931.172,338.758 930.012,336.037 930.237,333.248C930.462,330.459 932.043,327.958 934.466,326.559C962.457,310.364 1027.4,272.872 1027.4,272.872L1045.88,304.88C1054.45,319.74 1076.72,316.809 1081.16,300.236L1106.44,205.899C1109.19,195.624 1103.09,185.064 1092.82,182.311L998.481,157.034C981.908,152.593 968.238,170.407 976.817,185.267L995.297,217.275C995.297,217.275 930.572,254.644 902.536,270.831Z" style="fill:white;"/>
            </g>
        </g>
    </g>
</svg>
