<?xml version="1.0" encoding="UTF-8" standalone="no"?>
<!DOCTYPE svg PUBLIC "-//W3C//DTD SVG 1.1//EN" "http://www.w3.org/Graphics/SVG/1.1/DTD/svg11.dtd">
<svg width="100%" height="100%" viewBox="0 0 1000 142" version="1.1" xmlns="http://www.w3.org/2000/svg" xmlns:xlink="http://www.w3.org/1999/xlink" xml:space="preserve" xmlns:serif="http://www.serif.com/" style="fill-rule:evenodd;clip-rule:evenodd;stroke-linejoin:round;stroke-miterlimit:2;">
    <g id="Text" transform="matrix(2.96252,0,0,2.96252,-47.4002,-47.361)">
        <g>
            <g>
                <g>
                    <path d="M87.608,52.946C95.461,52.946 96.608,49.037 96.608,46.259C96.608,41.569 93.396,40.158 90.321,39.292C87.424,38.473 85.08,38.108 85.08,35.923C85.08,34.101 86.919,33.418 88.896,33.418C91.378,33.418 94.039,34.739 95.186,35.877L95.691,31.054C94.452,30.236 91.469,29.373 88.482,29.373C82.006,29.373 80.079,33.418 80.079,36.606C80.079,40.977 83.474,42.025 86.689,42.981C88.942,43.664 90.919,44.301 90.919,46.214C90.919,47.352 90.183,48.718 87.424,48.718C84.85,48.718 81.776,47.534 80.354,46.442L79.849,51.264C81.18,52.128 84.024,52.946 87.608,52.946Z" style="fill:white;"/>
                    <path d="M120.539,52.491L120.539,29.737L114.849,29.737L114.849,46.302C113.792,47.535 112.413,48.218 110.529,48.218C107.311,48.218 105.979,46.215 105.979,41.981L105.979,29.737L100.289,29.737L100.289,41.981C100.289,48.4 102.858,52.946 110.023,52.946C111.816,52.946 113.792,52.128 115.124,51.127L115.216,52.491L120.539,52.491Z" style="fill:white;"/>
                    <path d="M135.148,63.871C127.523,63.869 124.311,60.506 124.311,57.138C124.311,54.952 125.643,53.313 128.075,52.038C126.836,51.264 126.011,50.262 126.011,48.759C126.011,47.347 126.791,46.392 128.303,45.665C126.009,44.029 124.77,41.343 124.77,38.337C124.77,33.464 128.074,29.373 134.092,29.373C136.16,29.373 137.953,29.873 139.33,30.738C140.246,30.238 142.079,29.737 144.24,29.737L145.71,29.737L145.342,33.287L143.275,33.287C143,33.287 142.495,33.287 141.991,33.333C142.908,34.744 143.367,36.519 143.367,38.34C143.367,43.21 140.11,47.302 134.091,47.302C133.217,47.302 132.436,47.211 131.655,47.074C131.333,47.211 131.149,47.484 131.149,47.802C131.149,48.895 133.125,49.214 136.894,49.67C140.157,50.079 146.123,51.036 146.123,56.546C146.123,60.96 142.225,63.869 135.148,63.871ZM134.965,53.859C134.133,53.768 133.216,53.631 132.208,53.449C130.553,53.996 129.036,54.861 129.036,56.592C129.036,58.596 131.15,59.871 134.872,59.871C138.411,59.871 141.076,58.732 141.076,56.774C141.076,54.589 137.863,54.179 134.964,53.859L134.965,53.859ZM134.091,33.509C136.849,33.509 138.274,35.422 138.274,38.337C138.274,41.252 136.849,43.165 134.091,43.165C131.288,43.165 129.863,41.252 129.863,38.337C129.863,35.422 131.288,33.509 134.091,33.509Z" style="fill:white;"/>
                    <path d="M168.584,48.309L167.849,48.309C166.195,48.309 165.828,48.081 165.828,44.664L165.828,38.521C165.828,31.919 162.662,29.373 157.518,29.373C154.667,29.373 151.912,30.055 149.158,31.373L149.663,35.97C152.095,34.784 153.886,34.237 155.955,34.237C158.897,34.237 159.954,35.377 160.092,37.976C155.771,38.112 147.185,39.703 147.185,46.122C147.185,50.445 150.168,52.946 153.84,52.946C156.598,52.946 159.356,51.991 160.872,50.309C161.744,51.9 163.442,52.946 166.011,52.946L168.078,52.946L168.584,48.309ZM160.138,46.987C158.943,48.126 157.242,48.627 156.23,48.627C154.07,48.627 153.15,47.762 153.15,45.894C153.15,43.206 156.92,41.93 160.138,41.794L160.138,46.987Z" style="fill:white;"/>
                    <path d="M184.843,29.373L183.328,29.373C180.71,29.373 178.413,30.92 177.219,32.148L177.081,29.737L171.759,29.737L171.759,52.491L177.448,52.491L177.448,36.969C178.091,35.694 179.745,34.693 181.628,34.693L183.741,34.693L184.843,29.373Z" style="fill:white;"/>
                    <path d="M196.832,52.946C200.506,52.946 202.252,52.173 203.721,51.264L203.216,46.442C201.333,47.671 199.496,48.309 197.291,48.309C193.616,48.309 191.504,45.394 191.504,41.159C191.504,36.924 193.616,34.01 197.291,34.01C199.496,34.01 201.333,34.647 203.216,35.877L203.721,31.055C202.252,30.145 200.506,29.373 196.832,29.373C189.484,29.373 185.676,34.784 185.676,41.159C185.676,47.535 189.484,52.946 196.832,52.946Z" style="fill:white;"/>
                    <path d="M227.33,48.309L226.595,48.309C224.942,48.309 224.574,48.081 224.574,44.664L224.574,38.521C224.574,31.919 221.408,29.373 216.264,29.373C213.414,29.373 210.658,30.055 207.905,31.373L208.41,35.97C210.842,34.784 212.633,34.237 214.701,34.237C217.643,34.237 218.701,35.377 218.839,37.976C214.518,38.112 205.932,39.703 205.932,46.122C205.932,50.445 208.915,52.946 212.587,52.946C215.345,52.946 218.103,51.991 219.619,50.309C220.491,51.9 222.188,52.946 224.758,52.946L226.825,52.946L227.33,48.309ZM218.885,46.987C217.689,48.126 215.989,48.627 214.977,48.627C212.817,48.627 211.897,47.762 211.897,45.894C211.897,43.206 215.667,41.93 218.885,41.794L218.885,46.987Z" style="fill:white;"/>
                    <path d="M238.951,48.309C236.7,48.309 236.195,48.309 236.195,44.667L236.195,18.357L230.505,18.357L230.505,46.989C230.505,50.264 232.295,52.946 236.379,52.946L238.446,52.946L238.951,48.309Z" style="fill:white;"/>
                    <path d="M261.736,42.34C261.966,41.249 262.104,40.249 262.104,39.249C262.104,33.237 257.786,29.373 251.999,29.373C244.925,29.373 240.975,34.83 240.975,41.158C240.975,47.534 245.109,52.946 253.422,52.946C256.684,52.946 259.348,52.128 261.093,51.218L260.817,46.441C258.934,47.443 255.903,48.309 253.744,48.309C250.712,48.309 247.543,46.577 246.9,42.34L261.736,42.34ZM256.316,38.522C256.315,36.468 255.258,34.01 252.182,34.01C249.243,34.01 247.589,35.924 247.038,38.522L256.316,38.522Z" style="fill:white;"/>
                    <path d="M286.261,52.491L286.261,40.246C286.261,33.828 283.645,29.373 276.48,29.373C274.688,29.373 272.758,30.145 271.425,31.1L271.333,29.737L266.011,29.737L266.011,52.491L271.7,52.491L271.7,35.971C272.758,34.738 274.09,34.01 276.021,34.01C279.238,34.01 280.571,36.013 280.571,40.246L280.571,52.491L286.261,52.491Z" style="fill:white;"/>
                    <path d="M312.304,18.357L312.304,52.491L306.936,52.491L306.844,51.218C305.236,52.31 303.719,52.946 301.237,52.946C293.887,52.946 289.987,47.535 289.987,41.156C289.987,34.784 293.887,29.373 301.237,29.373C303.581,29.373 305.144,29.918 306.614,30.873L306.614,18.357L312.304,18.357ZM301.605,34.01C305.282,34.01 306.89,36.923 306.89,41.156C306.89,45.394 305.282,48.309 301.605,48.309C297.929,48.309 295.815,45.394 295.815,41.159C295.815,36.924 297.929,34.01 301.605,34.01Z" style="fill:white;"/>
                    <path d="M337.291,48.309L336.556,48.309C334.903,48.309 334.535,48.081 334.535,44.664L334.535,38.521C334.535,31.919 331.369,29.373 326.225,29.373C323.375,29.373 320.619,30.055 317.866,31.373L318.37,35.97C320.803,34.784 322.593,34.237 324.662,34.237C327.604,34.237 328.661,35.377 328.799,37.976C324.478,38.112 315.893,39.703 315.893,46.122C315.893,50.445 318.875,52.946 322.547,52.946C325.306,52.946 328.064,51.991 329.579,50.309C330.451,51.9 332.149,52.946 334.719,52.946L336.786,52.946L337.291,48.309ZM328.845,46.987C327.65,48.126 325.949,48.627 324.938,48.627C322.777,48.627 321.858,47.762 321.858,45.894C321.858,43.206 325.627,41.93 328.845,41.794L328.845,46.987Z" style="fill:white;"/>
                    <path d="M353.551,29.373L352.035,29.373C349.417,29.373 347.12,30.92 345.926,32.148L345.789,29.737L340.466,29.737L340.466,52.491L346.156,52.491L346.156,36.969C346.799,35.694 348.452,34.693 350.336,34.693L352.449,34.693L353.551,29.373Z" style="fill:white;"/>
                </g>
            </g>
        </g>
    </g>
    <g id="logo-mark" serif:id="logo mark" transform="matrix(2.96252,0,0,2.96252,-47.4002,-47.361)">
        <path d="M48.262,18.364C48.29,17.746 48.55,17.159 48.991,16.719C49.461,16.25 50.099,15.987 50.765,15.987C51.43,15.987 52.068,16.25 52.539,16.719C52.98,17.159 53.24,17.746 53.267,18.364L54.114,18.364C59.587,18.367 64.026,22.807 64.026,28.276L64.026,53.959C64.026,59.428 59.587,63.868 54.114,63.871L25.912,63.871C20.441,63.871 16,59.429 16,53.959L16,28.276C16,22.807 20.438,18.367 25.912,18.364L26.758,18.364C26.786,17.746 27.046,17.159 27.487,16.719C27.957,16.25 28.595,15.987 29.261,15.987C29.926,15.987 30.564,16.25 31.035,16.719C31.476,17.159 31.736,17.746 31.763,18.364L48.262,18.364ZM26.656,24.137C25.442,24.139 24.284,24.618 23.429,25.47C22.574,26.323 22.093,27.48 22.093,28.687L22.093,42.164C22.093,42.922 22.395,43.649 22.933,44.185C23.469,44.72 24.196,45.021 24.96,45.023L45.702,45.023C47.116,45.026 48.256,46.165 48.256,47.569L48.256,47.57C48.256,48.975 47.116,50.114 45.702,50.117L22.451,50.117C22.251,50.119 22.093,50.278 22.093,50.474L22.093,51.665C22.093,55.218 24.981,58.097 28.544,58.097L51.482,58.097C53.196,58.096 54.835,57.419 56.043,56.214C57.253,55.007 57.933,53.371 57.933,51.665L57.933,40.071C57.933,39.312 57.631,38.585 57.093,38.049C56.557,37.514 55.83,37.213 55.066,37.212L34.324,37.212C32.91,37.209 31.77,36.07 31.77,34.665L31.77,34.664C31.77,33.26 32.91,32.121 34.324,32.118L57.574,32.118C57.775,32.115 57.933,31.956 57.933,31.761L57.933,28.687C57.933,26.176 55.893,24.14 53.37,24.137L53.369,24.137C53.34,24.139 53.318,24.149 53.302,24.165C53.284,24.183 53.274,24.207 53.274,24.233L53.274,24.24C53.274,25.457 52.285,26.444 51.06,26.447L50.469,26.447C49.247,26.446 48.256,25.458 48.256,24.24L48.256,24.239C48.256,24.185 48.213,24.14 48.154,24.137L31.871,24.137C31.812,24.14 31.77,24.185 31.77,24.239L31.77,24.24C31.77,25.457 30.781,26.444 29.556,26.447L28.965,26.447C27.743,26.446 26.752,25.458 26.752,24.24L26.752,24.233C26.752,24.207 26.742,24.183 26.724,24.165C26.707,24.149 26.686,24.139 26.656,24.137Z" style="fill:white;"/>
    </g>
</svg>
