<?xml version="1.0" encoding="UTF-8" standalone="no"?>
<!DOCTYPE svg PUBLIC "-//W3C//DTD SVG 1.1//EN" "http://www.w3.org/Graphics/SVG/1.1/DTD/svg11.dtd">
<svg width="100%" height="100%" viewBox="0 0 1200 251" version="1.1" xmlns="http://www.w3.org/2000/svg" xmlns:xlink="http://www.w3.org/1999/xlink" xml:space="preserve" xmlns:serif="http://www.serif.com/" style="fill-rule:evenodd;clip-rule:evenodd;stroke-linejoin:round;stroke-miterlimit:2;">
    <g id="Logo-Mark" serif:id="Logo Mark" transform="matrix(1.00585,0,0,1.00585,-2.98978,-28.1637)">
        <path d="M1137.62,116.463L1137.62,105.981C1137.62,92.99 1148.24,82.395 1161.27,82.395C1174.3,82.395 1184.92,92.99 1184.92,105.981L1184.92,116.463L1191.53,116.463C1194.01,116.463 1196.04,118.447 1196,120.955L1196,159.889C1196,162.36 1193.97,164.382 1191.49,164.382L1131.01,164.382C1128.53,164.382 1126.5,162.36 1126.5,159.889L1126.5,120.955C1126.5,118.487 1128.52,116.467 1131.01,116.463L1137.62,116.463ZM1186.99,155.359L1186.99,125.41L1135.51,125.41L1135.51,155.359L1186.99,155.359ZM1171.48,28C1178.43,28.004 1184.1,33.655 1184.1,40.579L1184.1,72.961C1184.1,75.432 1182.07,77.454 1179.59,77.454C1177.11,77.454 1175.09,75.432 1175.09,72.961L1175.09,63.977L1021.71,63.977L1021.71,132.336C1021.71,134.32 1023.33,135.93 1025.32,135.93L1112.27,135.93C1114.79,135.93 1116.82,137.951 1116.82,140.422C1116.82,142.893 1114.79,144.915 1112.31,144.915L1025.32,144.915C1018.37,144.915 1012.7,139.262 1012.7,132.336L1012.7,40.579C1012.7,33.655 1018.33,28.004 1025.32,28L1171.48,28ZM1065.9,108.938C1068.38,108.942 1070.41,110.962 1070.41,113.431C1070.41,115.901 1068.38,117.923 1065.9,117.923L1044.24,117.923C1041.76,117.923 1039.73,115.901 1039.73,113.431C1039.73,110.962 1041.76,108.942 1044.24,108.938L1065.9,108.938ZM1175.91,116.425L1175.91,105.943C1175.91,97.894 1169.34,91.343 1161.27,91.343C1153.2,91.343 1146.63,97.894 1146.63,105.943L1146.63,116.425L1175.91,116.425ZM1098.38,92.84C1100.86,92.845 1102.88,94.865 1102.88,97.333C1102.88,99.804 1100.89,101.825 1098.38,101.825L1044.24,101.825C1041.76,101.825 1039.73,99.804 1039.73,97.333C1039.73,94.865 1041.76,92.845 1044.24,92.84L1098.38,92.84ZM1097.85,76.555C1100.34,76.56 1102.36,78.58 1102.36,81.048C1102.36,83.519 1100.33,85.54 1097.85,85.54L1043.71,85.54C1041.2,85.54 1039.21,83.519 1039.21,81.048C1039.21,78.58 1041.23,76.56 1043.71,76.555L1097.85,76.555ZM1175.09,54.992L1175.09,40.579C1175.09,38.595 1173.47,36.985 1171.48,36.985L1025.32,36.985C1023.33,36.985 1021.67,38.595 1021.67,40.579L1021.67,54.992L1175.09,54.992Z" style="fill:white;"/>
    </g>
    <g id="Logo-Text" serif:id="Logo Text" transform="matrix(1.00585,0,0,1.00585,-2.98978,-28.1637)">
        <g id="Pay--Calibri-" serif:id="Pay (Calibri)">
        </g>
        <g id="Simple--Calibri-" serif:id="Simple (Calibri)">
        </g>
        <g id="WP--Calibri-" serif:id="WP (Calibri)">
        </g>
        <g transform="matrix(196.167,0,0,183.333,1024.78,244.369)">
            <path d="M0.275,0L0.216,0.162C0.214,0.167 0.209,0.171 0.201,0.174C0.193,0.176 0.181,0.178 0.165,0.178C0.157,0.178 0.15,0.177 0.145,0.177C0.139,0.176 0.135,0.174 0.133,0.172C0.13,0.17 0.128,0.168 0.128,0.165C0.128,0.161 0.128,0.157 0.13,0.153L0.191,0C0.188,-0.001 0.185,-0.003 0.183,-0.006C0.18,-0.009 0.178,-0.012 0.177,-0.016L0.021,-0.436C0.018,-0.442 0.017,-0.448 0.017,-0.452C0.017,-0.456 0.018,-0.459 0.021,-0.461C0.023,-0.463 0.027,-0.465 0.033,-0.466C0.039,-0.466 0.047,-0.467 0.057,-0.467C0.066,-0.467 0.074,-0.467 0.08,-0.466C0.085,-0.466 0.09,-0.465 0.093,-0.463C0.096,-0.462 0.098,-0.46 0.1,-0.458C0.101,-0.455 0.103,-0.452 0.104,-0.448L0.23,-0.095L0.231,-0.095L0.353,-0.45C0.354,-0.456 0.357,-0.46 0.36,-0.462C0.362,-0.463 0.367,-0.465 0.372,-0.466C0.378,-0.466 0.386,-0.467 0.396,-0.467C0.405,-0.467 0.413,-0.466 0.418,-0.466C0.424,-0.465 0.429,-0.463 0.431,-0.461C0.434,-0.459 0.436,-0.456 0.436,-0.452C0.436,-0.448 0.435,-0.443 0.433,-0.437L0.275,0Z" style="fill:white;fill-rule:nonzero;"/>
        </g>
        <g transform="matrix(196.167,0,0,183.333,939.901,244.369)">
            <path d="M0.406,-0.012C0.406,-0.008 0.404,-0.005 0.402,-0.003C0.399,-0.001 0.396,0 0.391,0.001C0.387,0.002 0.38,0.003 0.371,0.003C0.363,0.003 0.356,0.002 0.351,0.001C0.346,0 0.342,-0.001 0.34,-0.003C0.338,-0.005 0.336,-0.008 0.336,-0.012L0.336,-0.056C0.317,-0.035 0.296,-0.019 0.272,-0.008C0.249,0.004 0.224,0.009 0.197,0.009C0.174,0.009 0.153,0.006 0.135,0C0.116,-0.006 0.1,-0.014 0.087,-0.026C0.073,-0.037 0.063,-0.051 0.056,-0.068C0.049,-0.084 0.045,-0.103 0.045,-0.125C0.045,-0.149 0.05,-0.171 0.06,-0.189C0.07,-0.207 0.085,-0.222 0.104,-0.234C0.122,-0.246 0.146,-0.255 0.173,-0.261C0.2,-0.267 0.231,-0.271 0.265,-0.271L0.326,-0.271L0.326,-0.305C0.326,-0.322 0.324,-0.337 0.32,-0.35C0.317,-0.363 0.311,-0.373 0.303,-0.382C0.295,-0.391 0.285,-0.397 0.272,-0.402C0.259,-0.406 0.244,-0.408 0.225,-0.408C0.205,-0.408 0.187,-0.406 0.172,-0.401C0.156,-0.396 0.142,-0.391 0.13,-0.385C0.118,-0.38 0.108,-0.375 0.1,-0.37C0.092,-0.365 0.086,-0.363 0.083,-0.363C0.08,-0.363 0.078,-0.363 0.076,-0.365C0.074,-0.366 0.072,-0.368 0.071,-0.371C0.069,-0.373 0.068,-0.377 0.067,-0.381C0.067,-0.385 0.066,-0.389 0.066,-0.394C0.066,-0.402 0.067,-0.409 0.068,-0.413C0.069,-0.418 0.072,-0.423 0.076,-0.427C0.081,-0.431 0.088,-0.436 0.099,-0.442C0.11,-0.447 0.122,-0.453 0.136,-0.457C0.15,-0.462 0.166,-0.466 0.182,-0.469C0.199,-0.472 0.215,-0.474 0.232,-0.474C0.264,-0.474 0.291,-0.47 0.313,-0.463C0.335,-0.456 0.353,-0.445 0.367,-0.431C0.38,-0.418 0.39,-0.4 0.396,-0.38C0.403,-0.359 0.406,-0.335 0.406,-0.308L0.406,-0.012ZM0.326,-0.212L0.257,-0.212C0.235,-0.212 0.215,-0.211 0.199,-0.207C0.183,-0.203 0.169,-0.198 0.159,-0.19C0.148,-0.183 0.14,-0.174 0.135,-0.164C0.13,-0.154 0.127,-0.142 0.127,-0.128C0.127,-0.106 0.135,-0.087 0.149,-0.074C0.164,-0.06 0.184,-0.054 0.21,-0.054C0.231,-0.054 0.251,-0.059 0.269,-0.07C0.287,-0.081 0.306,-0.097 0.326,-0.119L0.326,-0.212Z" style="fill:white;fill-rule:nonzero;"/>
        </g>
        <g transform="matrix(196.167,0,0,183.333,848.189,244.369)">
            <path d="M0.472,-0.447C0.472,-0.415 0.467,-0.387 0.457,-0.361C0.446,-0.336 0.431,-0.314 0.412,-0.296C0.392,-0.278 0.369,-0.265 0.341,-0.255C0.312,-0.245 0.279,-0.24 0.24,-0.24L0.168,-0.24L0.168,-0.013C0.168,-0.01 0.167,-0.008 0.166,-0.006C0.164,-0.004 0.162,-0.002 0.159,-0.001C0.156,0 0.152,0.001 0.146,0.002C0.141,0.003 0.134,0.003 0.126,0.003C0.118,0.003 0.111,0.003 0.106,0.002C0.1,0.001 0.096,0 0.093,-0.001C0.09,-0.002 0.087,-0.004 0.086,-0.006C0.085,-0.008 0.084,-0.01 0.084,-0.013L0.084,-0.596C0.084,-0.609 0.087,-0.618 0.094,-0.624C0.101,-0.629 0.109,-0.632 0.117,-0.632L0.252,-0.632C0.266,-0.632 0.279,-0.631 0.292,-0.63C0.304,-0.629 0.319,-0.627 0.336,-0.623C0.353,-0.619 0.371,-0.612 0.388,-0.602C0.406,-0.592 0.421,-0.579 0.434,-0.564C0.446,-0.549 0.455,-0.532 0.462,-0.512C0.469,-0.492 0.472,-0.471 0.472,-0.447ZM0.384,-0.44C0.384,-0.466 0.379,-0.487 0.369,-0.504C0.36,-0.522 0.348,-0.535 0.334,-0.543C0.32,-0.551 0.305,-0.557 0.29,-0.559C0.275,-0.561 0.26,-0.563 0.246,-0.563L0.168,-0.563L0.168,-0.309L0.244,-0.309C0.269,-0.309 0.29,-0.312 0.307,-0.319C0.324,-0.325 0.338,-0.334 0.349,-0.346C0.361,-0.358 0.369,-0.371 0.375,-0.387C0.381,-0.404 0.384,-0.421 0.384,-0.44Z" style="fill:white;fill-rule:nonzero;"/>
        </g>
        <g transform="matrix(196.167,0,0,183.333,715.719,244.369)">
            <path d="M0.45,-0.251C0.45,-0.238 0.447,-0.229 0.44,-0.224C0.434,-0.219 0.426,-0.216 0.418,-0.216L0.129,-0.216C0.129,-0.191 0.131,-0.169 0.136,-0.15C0.141,-0.13 0.149,-0.114 0.161,-0.1C0.172,-0.086 0.187,-0.075 0.205,-0.067C0.224,-0.06 0.246,-0.056 0.273,-0.056C0.294,-0.056 0.312,-0.058 0.329,-0.061C0.345,-0.065 0.359,-0.069 0.371,-0.073C0.383,-0.077 0.393,-0.081 0.4,-0.084C0.408,-0.088 0.414,-0.089 0.418,-0.089C0.42,-0.089 0.422,-0.089 0.424,-0.088C0.426,-0.087 0.427,-0.085 0.428,-0.083C0.429,-0.08 0.43,-0.077 0.43,-0.073C0.431,-0.069 0.431,-0.064 0.431,-0.058C0.431,-0.054 0.431,-0.05 0.431,-0.047C0.43,-0.044 0.43,-0.041 0.429,-0.039C0.429,-0.036 0.428,-0.034 0.427,-0.032C0.426,-0.03 0.424,-0.028 0.423,-0.027C0.421,-0.025 0.416,-0.022 0.407,-0.018C0.398,-0.014 0.387,-0.01 0.373,-0.006C0.359,-0.002 0.342,0.002 0.324,0.005C0.306,0.008 0.286,0.009 0.265,0.009C0.229,0.009 0.197,0.004 0.17,-0.006C0.143,-0.016 0.12,-0.031 0.102,-0.051C0.083,-0.071 0.069,-0.096 0.06,-0.125C0.05,-0.155 0.045,-0.19 0.045,-0.23C0.045,-0.268 0.05,-0.302 0.06,-0.332C0.07,-0.362 0.084,-0.387 0.102,-0.408C0.121,-0.429 0.143,-0.446 0.169,-0.457C0.195,-0.468 0.224,-0.474 0.256,-0.474C0.291,-0.474 0.32,-0.468 0.344,-0.457C0.369,-0.446 0.389,-0.431 0.404,-0.412C0.42,-0.394 0.431,-0.372 0.439,-0.346C0.446,-0.321 0.45,-0.294 0.45,-0.266L0.45,-0.251ZM0.369,-0.275C0.37,-0.317 0.36,-0.35 0.34,-0.375C0.321,-0.399 0.291,-0.411 0.252,-0.411C0.232,-0.411 0.215,-0.407 0.2,-0.399C0.185,-0.392 0.172,-0.382 0.162,-0.37C0.152,-0.357 0.144,-0.343 0.138,-0.326C0.133,-0.31 0.13,-0.293 0.129,-0.275L0.369,-0.275Z" style="fill:white;fill-rule:nonzero;"/>
        </g>
        <g transform="matrix(196.167,0,0,183.333,675.997,244.369)">
            <path d="M0.155,-0.012C0.155,-0.01 0.155,-0.007 0.153,-0.006C0.152,-0.004 0.15,-0.002 0.147,-0.001C0.144,0 0.14,0.001 0.135,0.002C0.13,0.003 0.123,0.003 0.115,0.003C0.107,0.003 0.1,0.003 0.095,0.002C0.09,0.001 0.086,0 0.083,-0.001C0.08,-0.002 0.078,-0.004 0.076,-0.006C0.075,-0.007 0.075,-0.01 0.075,-0.012L0.075,-0.665C0.075,-0.667 0.075,-0.669 0.076,-0.671C0.078,-0.673 0.08,-0.675 0.083,-0.676C0.086,-0.678 0.09,-0.679 0.095,-0.679C0.1,-0.68 0.107,-0.68 0.115,-0.68C0.123,-0.68 0.13,-0.68 0.135,-0.679C0.14,-0.679 0.144,-0.678 0.147,-0.676C0.15,-0.675 0.152,-0.673 0.153,-0.671C0.155,-0.669 0.155,-0.667 0.155,-0.665L0.155,-0.012Z" style="fill:white;fill-rule:nonzero;"/>
        </g>
        <g transform="matrix(196.167,0,0,183.333,578.229,244.369)">
            <path d="M0.479,-0.239C0.479,-0.2 0.475,-0.166 0.467,-0.135C0.458,-0.105 0.446,-0.079 0.43,-0.057C0.414,-0.036 0.394,-0.02 0.37,-0.008C0.346,0.003 0.319,0.009 0.289,0.009C0.276,0.009 0.264,0.008 0.252,0.005C0.241,0.003 0.231,-0.001 0.22,-0.007C0.209,-0.012 0.199,-0.019 0.188,-0.028C0.178,-0.036 0.167,-0.046 0.155,-0.058L0.155,0.162C0.155,0.165 0.155,0.167 0.153,0.169C0.152,0.171 0.15,0.173 0.147,0.174C0.144,0.175 0.14,0.176 0.135,0.177C0.13,0.177 0.123,0.178 0.115,0.178C0.107,0.178 0.1,0.177 0.095,0.177C0.09,0.176 0.086,0.175 0.083,0.174C0.08,0.173 0.078,0.171 0.076,0.169C0.075,0.167 0.075,0.165 0.075,0.162L0.075,-0.452C0.075,-0.455 0.075,-0.457 0.076,-0.459C0.077,-0.461 0.079,-0.462 0.082,-0.463C0.085,-0.465 0.089,-0.466 0.093,-0.466C0.098,-0.467 0.103,-0.467 0.11,-0.467C0.117,-0.467 0.122,-0.467 0.127,-0.466C0.131,-0.466 0.135,-0.465 0.138,-0.463C0.141,-0.462 0.143,-0.461 0.144,-0.459C0.145,-0.457 0.146,-0.455 0.146,-0.452L0.146,-0.393C0.159,-0.406 0.172,-0.418 0.184,-0.428C0.196,-0.438 0.209,-0.447 0.221,-0.453C0.234,-0.46 0.247,-0.465 0.26,-0.469C0.273,-0.472 0.287,-0.474 0.302,-0.474C0.334,-0.474 0.361,-0.467 0.383,-0.455C0.406,-0.443 0.424,-0.426 0.438,-0.404C0.452,-0.383 0.463,-0.358 0.469,-0.329C0.476,-0.301 0.479,-0.271 0.479,-0.239ZM0.396,-0.229C0.396,-0.252 0.394,-0.274 0.39,-0.295C0.387,-0.316 0.381,-0.334 0.373,-0.351C0.364,-0.367 0.353,-0.38 0.339,-0.39C0.325,-0.399 0.307,-0.404 0.286,-0.404C0.276,-0.404 0.266,-0.403 0.255,-0.4C0.245,-0.397 0.235,-0.392 0.225,-0.385C0.214,-0.378 0.203,-0.37 0.192,-0.359C0.18,-0.348 0.168,-0.334 0.155,-0.318L0.155,-0.144C0.178,-0.117 0.199,-0.096 0.219,-0.082C0.239,-0.067 0.26,-0.06 0.282,-0.06C0.302,-0.06 0.319,-0.065 0.334,-0.075C0.348,-0.084 0.36,-0.097 0.369,-0.114C0.378,-0.13 0.385,-0.148 0.389,-0.168C0.393,-0.189 0.396,-0.209 0.396,-0.229Z" style="fill:white;fill-rule:nonzero;"/>
        </g>
        <g transform="matrix(196.167,0,0,183.333,426.822,244.369)">
            <path d="M0.727,-0.012C0.727,-0.01 0.726,-0.007 0.725,-0.006C0.723,-0.004 0.721,-0.002 0.718,-0.001C0.715,0 0.711,0.001 0.706,0.002C0.701,0.003 0.694,0.003 0.687,0.003C0.678,0.003 0.672,0.003 0.667,0.002C0.661,0.001 0.657,0 0.654,-0.001C0.651,-0.002 0.649,-0.004 0.647,-0.006C0.646,-0.007 0.646,-0.01 0.646,-0.012L0.646,-0.279C0.646,-0.298 0.644,-0.315 0.641,-0.33C0.637,-0.345 0.632,-0.359 0.625,-0.37C0.618,-0.381 0.609,-0.389 0.598,-0.395C0.587,-0.401 0.574,-0.404 0.559,-0.404C0.54,-0.404 0.521,-0.397 0.503,-0.382C0.484,-0.368 0.463,-0.347 0.441,-0.319L0.441,-0.012C0.441,-0.01 0.44,-0.007 0.439,-0.006C0.438,-0.004 0.435,-0.002 0.432,-0.001C0.429,0 0.425,0.001 0.42,0.002C0.415,0.003 0.408,0.003 0.4,0.003C0.393,0.003 0.386,0.003 0.381,0.002C0.376,0.001 0.372,0 0.368,-0.001C0.365,-0.002 0.363,-0.004 0.362,-0.006C0.361,-0.007 0.36,-0.01 0.36,-0.012L0.36,-0.279C0.36,-0.298 0.359,-0.315 0.355,-0.33C0.351,-0.345 0.346,-0.359 0.339,-0.37C0.332,-0.381 0.323,-0.389 0.312,-0.395C0.301,-0.401 0.288,-0.404 0.273,-0.404C0.254,-0.404 0.236,-0.397 0.217,-0.382C0.198,-0.368 0.177,-0.347 0.155,-0.319L0.155,-0.012C0.155,-0.01 0.155,-0.007 0.153,-0.006C0.152,-0.004 0.15,-0.002 0.147,-0.001C0.144,0 0.14,0.001 0.135,0.002C0.13,0.003 0.123,0.003 0.115,0.003C0.107,0.003 0.1,0.003 0.095,0.002C0.09,0.001 0.086,0 0.083,-0.001C0.08,-0.002 0.078,-0.004 0.076,-0.006C0.075,-0.007 0.075,-0.01 0.075,-0.012L0.075,-0.452C0.075,-0.454 0.075,-0.456 0.076,-0.458C0.077,-0.46 0.079,-0.462 0.082,-0.463C0.085,-0.465 0.089,-0.466 0.093,-0.466C0.098,-0.467 0.104,-0.467 0.111,-0.467C0.118,-0.467 0.124,-0.467 0.129,-0.466C0.134,-0.466 0.138,-0.465 0.14,-0.463C0.143,-0.462 0.145,-0.46 0.146,-0.458C0.147,-0.456 0.147,-0.454 0.147,-0.452L0.147,-0.394C0.172,-0.421 0.196,-0.441 0.219,-0.454C0.243,-0.467 0.266,-0.474 0.29,-0.474C0.308,-0.474 0.325,-0.472 0.339,-0.467C0.354,-0.463 0.366,-0.457 0.377,-0.449C0.389,-0.442 0.398,-0.433 0.406,-0.422C0.414,-0.412 0.42,-0.4 0.425,-0.387C0.44,-0.403 0.454,-0.416 0.467,-0.427C0.48,-0.438 0.493,-0.447 0.505,-0.454C0.517,-0.461 0.529,-0.466 0.541,-0.469C0.552,-0.472 0.564,-0.474 0.576,-0.474C0.604,-0.474 0.628,-0.469 0.647,-0.459C0.666,-0.449 0.682,-0.436 0.694,-0.419C0.705,-0.402 0.714,-0.383 0.719,-0.361C0.724,-0.338 0.727,-0.315 0.727,-0.29L0.727,-0.012Z" style="fill:white;fill-rule:nonzero;"/>
        </g>
        <g transform="matrix(196.167,0,0,183.333,387.1,244.369)">
            <path d="M0.155,-0.012C0.155,-0.01 0.155,-0.007 0.153,-0.006C0.152,-0.004 0.15,-0.002 0.147,-0.001C0.144,0 0.14,0.001 0.135,0.002C0.13,0.003 0.123,0.003 0.115,0.003C0.107,0.003 0.1,0.003 0.095,0.002C0.09,0.001 0.086,0 0.083,-0.001C0.08,-0.002 0.078,-0.004 0.076,-0.006C0.075,-0.007 0.075,-0.01 0.075,-0.012L0.075,-0.452C0.075,-0.454 0.075,-0.456 0.076,-0.458C0.078,-0.46 0.08,-0.462 0.083,-0.463C0.086,-0.464 0.09,-0.465 0.095,-0.466C0.1,-0.466 0.107,-0.467 0.115,-0.467C0.123,-0.467 0.13,-0.466 0.135,-0.466C0.14,-0.465 0.144,-0.464 0.147,-0.463C0.15,-0.462 0.152,-0.46 0.153,-0.458C0.155,-0.456 0.155,-0.454 0.155,-0.452L0.155,-0.012ZM0.165,-0.6C0.165,-0.581 0.161,-0.568 0.154,-0.562C0.147,-0.555 0.133,-0.551 0.114,-0.551C0.095,-0.551 0.082,-0.555 0.075,-0.561C0.068,-0.568 0.065,-0.581 0.065,-0.599C0.065,-0.618 0.069,-0.631 0.076,-0.638C0.083,-0.645 0.096,-0.648 0.115,-0.648C0.134,-0.648 0.147,-0.645 0.154,-0.638C0.161,-0.631 0.165,-0.619 0.165,-0.6Z" style="fill:white;fill-rule:nonzero;"/>
        </g>
        <g transform="matrix(196.167,0,0,183.333,302.263,244.369)">
            <path d="M0.423,-0.177C0.423,-0.148 0.418,-0.121 0.407,-0.098C0.396,-0.075 0.381,-0.055 0.362,-0.039C0.342,-0.023 0.319,-0.011 0.293,-0.003C0.267,0.005 0.239,0.009 0.208,0.009C0.187,0.009 0.168,0.007 0.15,0.004C0.132,0 0.115,-0.004 0.101,-0.009C0.087,-0.014 0.075,-0.02 0.066,-0.025C0.056,-0.031 0.049,-0.036 0.046,-0.04C0.042,-0.043 0.039,-0.048 0.037,-0.054C0.036,-0.06 0.035,-0.069 0.035,-0.079C0.035,-0.086 0.035,-0.092 0.036,-0.096C0.036,-0.101 0.037,-0.105 0.039,-0.108C0.04,-0.111 0.042,-0.113 0.043,-0.114C0.045,-0.115 0.048,-0.116 0.05,-0.116C0.055,-0.116 0.061,-0.113 0.07,-0.107C0.078,-0.102 0.089,-0.096 0.102,-0.089C0.115,-0.083 0.13,-0.077 0.149,-0.071C0.167,-0.065 0.188,-0.063 0.212,-0.063C0.231,-0.063 0.247,-0.065 0.262,-0.07C0.278,-0.075 0.291,-0.082 0.302,-0.091C0.312,-0.1 0.321,-0.111 0.327,-0.124C0.333,-0.137 0.335,-0.151 0.335,-0.168C0.335,-0.186 0.331,-0.201 0.323,-0.214C0.315,-0.227 0.304,-0.238 0.291,-0.247C0.278,-0.257 0.262,-0.266 0.245,-0.274C0.228,-0.282 0.211,-0.29 0.193,-0.298C0.175,-0.306 0.158,-0.316 0.141,-0.326C0.124,-0.336 0.109,-0.348 0.095,-0.361C0.082,-0.375 0.071,-0.391 0.063,-0.409C0.054,-0.428 0.05,-0.45 0.05,-0.476C0.05,-0.502 0.055,-0.525 0.065,-0.546C0.074,-0.567 0.088,-0.584 0.105,-0.598C0.122,-0.612 0.142,-0.623 0.166,-0.63C0.189,-0.637 0.215,-0.641 0.242,-0.641C0.256,-0.641 0.27,-0.64 0.284,-0.637C0.299,-0.635 0.312,-0.632 0.324,-0.628C0.337,-0.624 0.348,-0.619 0.358,-0.614C0.368,-0.609 0.374,-0.605 0.377,-0.602C0.38,-0.599 0.382,-0.596 0.383,-0.594C0.384,-0.593 0.385,-0.59 0.386,-0.588C0.386,-0.585 0.387,-0.582 0.387,-0.578C0.388,-0.574 0.388,-0.569 0.388,-0.563C0.388,-0.557 0.387,-0.551 0.387,-0.547C0.386,-0.542 0.386,-0.538 0.385,-0.535C0.384,-0.532 0.382,-0.53 0.381,-0.529C0.379,-0.527 0.377,-0.526 0.375,-0.526C0.371,-0.526 0.365,-0.529 0.358,-0.533C0.35,-0.538 0.341,-0.543 0.33,-0.549C0.319,-0.554 0.305,-0.559 0.29,-0.564C0.275,-0.569 0.258,-0.571 0.239,-0.571C0.222,-0.571 0.206,-0.569 0.193,-0.564C0.18,-0.559 0.17,-0.553 0.161,-0.545C0.153,-0.538 0.146,-0.528 0.142,-0.518C0.138,-0.507 0.136,-0.495 0.136,-0.483C0.136,-0.466 0.14,-0.451 0.148,-0.438C0.156,-0.425 0.167,-0.414 0.18,-0.404C0.194,-0.395 0.209,-0.386 0.227,-0.377C0.244,-0.369 0.261,-0.361 0.279,-0.353C0.297,-0.344 0.315,-0.335 0.332,-0.325C0.349,-0.316 0.365,-0.304 0.378,-0.29C0.392,-0.277 0.403,-0.261 0.411,-0.242C0.419,-0.224 0.423,-0.202 0.423,-0.177Z" style="fill:white;fill-rule:nonzero;"/>
        </g>
        <g transform="matrix(196.167,0,0,183.333,166.307,244.369)">
            <path d="M0.472,-0.447C0.472,-0.415 0.467,-0.387 0.457,-0.361C0.446,-0.336 0.431,-0.314 0.412,-0.296C0.392,-0.278 0.369,-0.265 0.341,-0.255C0.312,-0.245 0.279,-0.24 0.24,-0.24L0.168,-0.24L0.168,-0.013C0.168,-0.01 0.167,-0.008 0.166,-0.006C0.164,-0.004 0.162,-0.002 0.159,-0.001C0.156,0 0.152,0.001 0.146,0.002C0.141,0.003 0.134,0.003 0.126,0.003C0.118,0.003 0.111,0.003 0.106,0.002C0.1,0.001 0.096,0 0.093,-0.001C0.09,-0.002 0.087,-0.004 0.086,-0.006C0.085,-0.008 0.084,-0.01 0.084,-0.013L0.084,-0.596C0.084,-0.609 0.087,-0.618 0.094,-0.624C0.101,-0.629 0.109,-0.632 0.117,-0.632L0.252,-0.632C0.266,-0.632 0.279,-0.631 0.292,-0.63C0.304,-0.629 0.319,-0.627 0.336,-0.623C0.353,-0.619 0.371,-0.612 0.388,-0.602C0.406,-0.592 0.421,-0.579 0.434,-0.564C0.446,-0.549 0.455,-0.532 0.462,-0.512C0.469,-0.492 0.472,-0.471 0.472,-0.447ZM0.384,-0.44C0.384,-0.466 0.379,-0.487 0.369,-0.504C0.36,-0.522 0.348,-0.535 0.334,-0.543C0.32,-0.551 0.305,-0.557 0.29,-0.559C0.275,-0.561 0.26,-0.563 0.246,-0.563L0.168,-0.563L0.168,-0.309L0.244,-0.309C0.269,-0.309 0.29,-0.312 0.307,-0.319C0.324,-0.325 0.338,-0.334 0.349,-0.346C0.361,-0.358 0.369,-0.371 0.375,-0.387C0.381,-0.404 0.384,-0.421 0.384,-0.44Z" style="fill:white;fill-rule:nonzero;"/>
        </g>
        <g transform="matrix(196.167,0,0,183.333,-2.91568,244.369)">
            <path d="M0.689,-0.019C0.688,-0.014 0.686,-0.01 0.683,-0.008C0.681,-0.005 0.677,-0.003 0.672,-0.001C0.668,0 0.662,0.001 0.656,0.002C0.649,0.003 0.641,0.003 0.631,0.003C0.621,0.003 0.612,0.003 0.605,0.002C0.598,0.001 0.592,0 0.588,-0.001C0.583,-0.003 0.58,-0.005 0.578,-0.008C0.575,-0.01 0.574,-0.014 0.572,-0.019L0.44,-0.496L0.439,-0.496L0.317,-0.019C0.316,-0.014 0.314,-0.01 0.312,-0.008C0.31,-0.005 0.306,-0.003 0.302,-0.001C0.298,0 0.293,0.001 0.286,0.002C0.279,0.003 0.271,0.003 0.26,0.003C0.25,0.003 0.241,0.003 0.233,0.002C0.226,0.001 0.22,0 0.216,-0.001C0.211,-0.003 0.208,-0.005 0.205,-0.008C0.203,-0.01 0.201,-0.014 0.2,-0.019L0.033,-0.602C0.031,-0.61 0.03,-0.615 0.03,-0.62C0.03,-0.624 0.031,-0.627 0.034,-0.629C0.037,-0.632 0.041,-0.633 0.047,-0.634C0.054,-0.634 0.062,-0.635 0.072,-0.635C0.082,-0.635 0.09,-0.635 0.096,-0.634C0.102,-0.634 0.107,-0.633 0.11,-0.631C0.113,-0.63 0.115,-0.628 0.116,-0.626C0.117,-0.624 0.118,-0.621 0.119,-0.617L0.261,-0.088L0.261,-0.088L0.396,-0.616C0.397,-0.62 0.398,-0.623 0.4,-0.625C0.401,-0.628 0.403,-0.63 0.407,-0.631C0.41,-0.632 0.415,-0.633 0.421,-0.634C0.427,-0.634 0.435,-0.635 0.444,-0.635C0.453,-0.635 0.461,-0.634 0.466,-0.634C0.471,-0.633 0.476,-0.632 0.479,-0.631C0.482,-0.63 0.485,-0.628 0.486,-0.625C0.488,-0.623 0.489,-0.62 0.49,-0.616L0.635,-0.088L0.636,-0.088L0.775,-0.617C0.776,-0.62 0.777,-0.623 0.778,-0.625C0.779,-0.628 0.781,-0.63 0.784,-0.631C0.787,-0.632 0.791,-0.633 0.797,-0.634C0.803,-0.634 0.81,-0.635 0.82,-0.635C0.83,-0.635 0.837,-0.634 0.843,-0.634C0.849,-0.633 0.853,-0.631 0.855,-0.629C0.858,-0.627 0.859,-0.623 0.859,-0.619C0.859,-0.615 0.858,-0.609 0.856,-0.602L0.689,-0.019Z" style="fill:white;fill-rule:nonzero;"/>
        </g>
    </g>
</svg>