<?xml version="1.0" encoding="UTF-8" standalone="no"?>
<svg width="16px" height="10px" viewBox="0 0 16 10" version="1.1" xmlns="http://www.w3.org/2000/svg" xmlns:xlink="http://www.w3.org/1999/xlink" xmlns:sketch="http://www.bohemiancoding.com/sketch/ns">
    <!-- Generator: Sketch 3.0.3 (7892) - http://www.bohemiancoding.com/sketch -->
    <title>right arrow</title>
    <desc>Created with Sketch.</desc>
    <defs></defs>
    <g id="Page-1" stroke="none" stroke-width="1" fill="none" fill-rule="evenodd" sketch:type="MSPage">
        <path d="M15.48,4.8035 C15.474,4.7735 15.463,4.7465 15.455,4.7175 C15.445,4.6835 15.437,4.6505 15.424,4.6175 C15.409,4.5835 15.39,4.5515 15.372,4.5195 C15.358,4.4945 15.348,4.4695 15.332,4.4455 C15.295,4.3905 15.253,4.3385 15.206,4.2925 L11.207,0.2925 C10.817,-0.0975 10.183,-0.0975 9.793,0.2925 C9.402,0.6835 9.402,1.3165 9.793,1.7065 L12.086,3.9995 L1,3.9995 C0.448,3.9995 0,4.4475 0,4.9995 C0,5.5515 0.448,5.9995 1,5.9995 L12.086,5.9995 L9.793,8.2925 C9.402,8.6835 9.402,9.3165 9.793,9.7065 C9.988,9.9025 10.244,9.9995 10.5,9.9995 C10.756,9.9995 11.012,9.9025 11.207,9.7065 L15.206,5.7075 C15.253,5.6605 15.295,5.6095 15.332,5.5545 C15.348,5.5305 15.358,5.5045 15.372,5.4795 C15.39,5.4475 15.409,5.4165 15.424,5.3815 C15.437,5.3495 15.445,5.3155 15.455,5.2825 C15.463,5.2535 15.474,5.2255 15.48,5.1955 C15.506,5.0665 15.506,4.9335 15.48,4.8035" id="Imported-Layers" fill="#74d7bf" sketch:type="MSShapeGroup"></path>
    </g>
</svg>