<?xml version="1.0" encoding="UTF-8" standalone="no"?>
<svg width="16px" height="16px" viewBox="0 0 16 16" version="1.1" xmlns="http://www.w3.org/2000/svg" xmlns:xlink="http://www.w3.org/1999/xlink" xmlns:sketch="http://www.bohemiancoding.com/sketch/ns">
    <!-- Generator: Sketch 3.0.3 (7892) - http://www.bohemiancoding.com/sketch -->
    <title>Slice 1</title>
    <desc>Created with Sketch.</desc>
    <defs></defs>
    <g id="Page-1" stroke="none" stroke-width="1" fill="none" fill-rule="evenodd" sketch:type="MSPage">
        <path d="M15.647,13.525 L12.892,10.771 C13.59,9.682 14.001,8.39 14.001,7 C14.001,3.134 10.867,0 7,0 C3.134,0 0,3.134 0,7 C0,10.866 3.134,14 7,14 C8.39,14 9.682,13.59 10.771,12.892 L13.525,15.647 C13.719,15.841 14.038,15.841 14.232,15.647 L15.647,14.232 C15.841,14.038 15.841,13.719 15.647,13.525 L15.647,13.525 Z M7,12 C4.244,12 2.001,9.757 2.001,7 C2.001,4.243 4.244,2 7,2 C9.757,2 12,4.243 12,7 C12,9.757 9.757,12 7,12 L7,12 Z" id="Imported-Layers" fill="#ffffff" sketch:type="MSShapeGroup"></path>
    </g>
</svg>