<?xml version="1.0" encoding="utf-8"?>
<!-- Generator: Adobe Illustrator 17.0.0, SVG Export Plug-In . SVG Version: 6.00 Build 0)  -->
<!DOCTYPE svg PUBLIC "-//W3C//DTD SVG 1.1//EN" "http://www.w3.org/Graphics/SVG/1.1/DTD/svg11.dtd">
<svg version="1.1" id="Layer_1" xmlns="http://www.w3.org/2000/svg" xmlns:xlink="http://www.w3.org/1999/xlink" x="0px" y="0px"
	 width="32px" height="32px" viewBox="0 0 32 32" enable-background="new 0 0 32 32" xml:space="preserve">
<g>
	<path fill="#ffffff" d="M28.651,10.653H3.349c-0.368,0-0.666,0.298-0.666,0.666v19.975c0,0.368,0.298,0.666,0.666,0.666h25.301
		c0.368,0,0.666-0.298,0.666-0.666V11.319C29.316,10.951,29.018,10.653,28.651,10.653z"/>
	<path fill="#ffffff" d="M10.008,9.321c0.368,0,0.666-0.298,0.666-0.666V6.658c0-2.937,2.39-5.327,5.327-5.327
		c2.937,0,5.327,2.39,5.327,5.327v1.997c0,0.368,0.298,0.666,0.666,0.666c0.368,0,0.666-0.298,0.666-0.666V6.658
		C22.658,2.987,19.671,0,16,0c-3.672,0-6.658,2.987-6.658,6.658v1.997C9.342,9.024,9.64,9.321,10.008,9.321z"/>
</g>
</svg>
