<svg xmlns:sketch="http://www.bohemiancoding.com/sketch/ns" xmlns:dc="http://purl.org/dc/elements/1.1/" xmlns:cc="http://creativecommons.org/ns#" xmlns:rdf="http://www.w3.org/1999/02/22-rdf-syntax-ns#" xmlns:svg="http://www.w3.org/2000/svg" xmlns="http://www.w3.org/2000/svg" xmlns:sodipodi="http://sodipodi.sourceforge.net/DTD/sodipodi-0.dtd" xmlns:inkscape="http://www.inkscape.org/namespaces/inkscape"><symbol viewBox="0 0 328 54" id="icon-affwp"><title>affwp</title> <path id="svgstoree0f5bf96e8ffcfa7d418c2087fa396ealogo" fill="#ffffff" d="M46.55,31.351c-0.526,0-1.041,0.049-1.548,0.121l-7.339-13.207
	c1.621-1.935,2.599-4.425,2.599-7.14c0-6.143-4.997-11.14-11.14-11.14s-11.141,4.997-11.141,11.14c0,2.661,0.941,5.107,2.504,7.025
	l-7.65,13.346c-0.554-0.085-1.117-0.143-1.694-0.143C4.997,31.352,0,36.349,0,42.492s4.997,11.141,11.14,11.141
	s11.141-4.997,11.141-11.141c0-2.662-0.941-5.107-2.505-7.025l7.65-13.346c0.554,0.085,1.118,0.143,1.694,0.143
	c0.526,0,1.041-0.049,1.547-0.121l7.339,13.209c-1.62,1.935-2.599,4.424-2.599,7.139c0,6.143,4.997,11.141,11.14,11.141
	s11.14-4.997,11.14-11.141C57.69,36.349,52.692,31.351,46.55,31.351z M29.123,7.31c2.103,0,3.815,1.711,3.815,3.815
	s-1.711,3.815-3.815,3.815c-2.103,0-3.815-1.711-3.815-3.815C25.308,9.021,27.02,7.31,29.123,7.31z M11.142,46.307
	c-2.103,0-3.815-1.711-3.815-3.815c0-2.103,1.711-3.815,3.815-3.815s3.815,1.711,3.815,3.815
	C14.956,44.596,13.244,46.307,11.142,46.307z M46.55,46.307c-2.103,0-3.815-1.711-3.815-3.815c0-2.103,1.711-3.815,3.815-3.815
	c2.103,0,3.815,1.711,3.815,3.815C50.363,44.596,48.652,46.307,46.55,46.307z"/> <g id="svgstoree0f5bf96e8ffcfa7d418c2087fa396eatext"> <path fill="#ffffff" d="M82.405,10.311h12.839l10.998,34.641H95.728l-1.841-6.443H82.405l-1.841,6.443h-9.254L82.405,10.311z
		 M84.343,31.678h7.606L88.17,18.354L84.343,31.678z"/> <path fill="#ffffff" d="M109.157,25.525h-3.198v-5.91h3.198v-1.938c0-6.298,3.876-9.254,9.884-9.254
		c1.599,0,2.762,0.194,3.876,0.484v6.347c-0.629-0.193-1.357-0.34-2.326-0.34c-1.938,0-2.81,1.162-2.81,2.762v1.938h7.364v-2.229
		c0-6.298,3.924-9.302,9.932-9.302c1.598,0,2.714,0.193,3.827,0.484v6.346c-0.629-0.193-1.26-0.291-2.277-0.291
		c-1.986,0-2.81,1.114-2.81,2.762v2.229h5.088v5.91h-5.088v19.428h-8.672V25.525h-7.364v19.428h-8.624
		C109.157,44.953,109.157,25.525,109.157,25.525z"/> <path fill="#ffffff" d="M140.973,12.734c0-2.567,2.035-4.505,4.748-4.505s4.796,1.938,4.796,4.505s-2.083,4.457-4.796,4.457
		C143.007,17.192,140.973,15.302,140.973,12.734z M141.409,19.613h8.672v25.339h-8.672V19.613z"/> <path fill="#ffffff" d="M154.728,8.47h8.624v36.482h-8.624V8.47z"/> <path fill="#ffffff" d="M167.561,12.734c0-2.567,2.035-4.505,4.748-4.505s4.796,1.938,4.796,4.505s-2.083,4.457-4.796,4.457
		C169.595,17.192,167.561,15.302,167.561,12.734z M167.997,19.613h8.672v25.339h-8.672V19.613z"/> <path fill="#ffffff" d="M179.784,37.928c0-5.959,5.04-8.285,13.469-8.285h2.423v-0.581c0-2.422-0.581-4.021-3.343-4.021
		c-2.374,0-3.247,1.405-3.44,3.003h-8.14c0.388-6.105,5.184-9.108,12.112-9.108c6.977,0,11.434,2.859,11.434,9.593v16.424h-8.431
		v-2.955c-1.212,1.841-3.44,3.537-7.51,3.537C183.805,45.533,179.784,43.305,179.784,37.928z M195.675,36.086v-1.55h-2.277
		c-3.488,0-5.04,0.678-5.04,2.762c0,1.453,0.969,2.374,3.004,2.374C193.834,39.671,195.675,38.266,195.675,36.086z"/> <path fill="#ffffff" d="M209.443,36.813V25.525h-3.052v-5.91h3.052v-5.281h8.672v5.281h4.99v5.91h-4.99V35.99
		c0,1.841,0.921,2.665,2.568,2.665c0.969,0,1.696-0.145,2.47-0.436v6.589c-1.114,0.291-2.762,0.726-4.796,0.726
		C212.641,45.533,209.443,42.772,209.443,36.813z"/> <path fill="#ffffff" d="M224.626,32.597V32.21c0-8.139,6.057-13.275,13.71-13.275c6.928,0,12.888,3.972,12.888,13.081v2.277
		h-17.829c0.243,3.343,2.181,5.281,5.281,5.281c2.859,0,4.069-1.308,4.409-3.004h8.139c-0.775,5.717-5.184,8.964-12.839,8.964
		C230.44,45.533,224.626,40.883,224.626,32.597z M242.794,29.4c-0.145-3.052-1.647-4.748-4.457-4.748
		c-2.616,0-4.409,1.696-4.845,4.748C233.492,29.4,242.794,29.4,242.794,29.4z"/> <path fill="#ffffff" d="M251.151,10.311h10.029l4.457,21.608l4.651-21.608h8.817l5.038,21.802l4.7-21.802h9.205l-8.091,34.641
		H279.59l-5.329-21.996l-5.378,21.996h-9.689L251.151,10.311z"/> <path fill="#ffffff" d="M300.917,10.311h13.178c9.496,0,13.905,4.215,13.905,11.579v0.194c0,7.267-4.893,11.191-13.469,11.191
		H310.8v11.676h-9.884L300.917,10.311L300.917,10.311z M313.658,26.494c3.198,0,4.893-1.502,4.893-4.36V21.94
		c0-2.955-1.745-4.167-4.845-4.167h-2.907v8.721L313.658,26.494L313.658,26.494z"/> </g> </symbol><symbol viewBox="0 0 32 32" id="icon-check"><title>check</title> <path fill="#FFFFFF" d="M31.418,3.858c-0.431-0.099-1.21-0.195-2.386-0.295c-1.206-0.101-1.95-0.111-2.345-0.035
	c-0.4,0.077-1.122,0.443-2.209,1.121c-1.055,0.661-2.672,1.963-4.805,3.87c-2.133,1.91-4.214,3.999-6.187,6.208
	c-1.838,2.057-3.64,4.25-5.363,6.525c-0.646-1.925-1.309-3.279-2.026-4.126c-0.806-0.956-1.538-1.497-2.234-1.657
	c-0.557-0.129-1.276-0.006-2.2,0.374c-0.949,0.389-1.501,0.892-1.638,1.496c-0.104,0.456,0.112,1.113,0.68,2.072
	c1.001,1.691,1.84,3.455,2.492,5.245c0.418,1.117,0.704,1.796,0.874,2.075c0.142,0.235,0.5,0.549,2.013,0.894
	c0.772,0.176,1.407,0.265,1.89,0.265c0.517,0,0.883-0.1,1.115-0.302c0.379-0.316,1.136-1.284,2.313-2.959
	c2.827-4.061,6.091-7.868,9.702-11.317c3.611-3.448,6.811-5.99,9.507-7.549c0.825-0.456,0.983-0.58,1.038-0.624
	c0.176-0.143,0.289-0.316,0.334-0.512C32.05,4.334,31.936,3.977,31.418,3.858z"/> </symbol><symbol viewBox="0 0 36 32" id="icon-comments"><title>comments</title> <path fill="#221F1F" d="M35.238,0H0.762C0.341,0,0,0.341,0,0.762v24.381c0,0.421,0.341,0.762,0.762,0.762h17.969l5.872,5.872
	C24.749,31.923,24.944,32,25.142,32c0.098,0,0.198-0.019,0.292-0.058c0.284-0.118,0.47-0.396,0.47-0.704v-5.333h9.334
	c0.421,0,0.762-0.341,0.762-0.762V0.762C36,0.341,35.659,0,35.238,0z M34.476,24.381h-9.334c-0.421,0-0.762,0.341-0.762,0.762v4.256
	l-4.795-4.795c-0.143-0.143-0.336-0.223-0.539-0.223H1.524V1.524h32.952V24.381z"/> </symbol><symbol viewBox="0 0 24 24" id="icon-docs"><title>docs</title> <g opacity="0.1"> <path fill="none" stroke="#202B5D" stroke-width="1.0928" stroke-linecap="round" stroke-linejoin="round" stroke-miterlimit="10" d="
		M19.057,11.454c0-3.621-2.937-6.557-6.557-6.557c-3.622,0-6.557,2.936-6.557,6.557c0,3.054,2.09,5.614,4.918,6.342v1.307h3.278
		v-1.307C16.965,17.067,19.057,14.508,19.057,11.454z"/> <line fill="none" stroke="#202B5D" stroke-width="1.0928" stroke-linecap="round" stroke-linejoin="round" stroke-miterlimit="10" x1="13.047" y1="23.475" x2="11.954" y2="23.475"/> <line fill="none" stroke="#202B5D" stroke-width="1.0928" stroke-linecap="round" stroke-linejoin="round" stroke-miterlimit="10" x1="14.14" y1="21.289" x2="10.861" y2="21.289"/> <line fill="none" stroke="#202B5D" stroke-width="1.0928" stroke-linecap="round" stroke-linejoin="round" stroke-miterlimit="10" x1="12.5" y1="0.525" x2="12.5" y2="2.711"/> <line fill="none" stroke="#202B5D" stroke-width="1.0928" stroke-linecap="round" stroke-linejoin="round" stroke-miterlimit="10" x1="23.429" y1="11.454" x2="21.243" y2="11.454"/> <line fill="none" stroke="#202B5D" stroke-width="1.0928" stroke-linecap="round" stroke-linejoin="round" stroke-miterlimit="10" x1="1.572" y1="11.454" x2="3.758" y2="11.454"/> <line fill="none" stroke="#202B5D" stroke-width="1.0928" stroke-linecap="round" stroke-linejoin="round" stroke-miterlimit="10" x1="3.999" y1="2.954" x2="6.317" y2="5.273"/> <line fill="none" stroke="#202B5D" stroke-width="1.0928" stroke-linecap="round" stroke-linejoin="round" stroke-miterlimit="10" x1="21" y1="2.954" x2="18.681" y2="5.273"/> </g> </symbol><symbol viewBox="0 0 328 48" id="icon-edd"><title>edd</title> <path fill="#ffffff" d="M113.249,17.096h-0.084l-0.029,0.079l-4.064,11.072l-4.232-11.074l-0.03-0.078h-0.083h-2.746h-0.183
	l0.072,0.168l5.842,13.682l-0.979,2.298c-0.103,0.19-0.218,0.359-0.343,0.505c-0.127,0.149-0.265,0.275-0.413,0.38
	c-0.143,0.099-0.311,0.174-0.499,0.224c-0.191,0.051-0.403,0.078-0.637,0.078v0.001c-0.117-0.002-0.235-0.012-0.35-0.031
	c-0.114-0.017-0.229-0.043-0.34-0.077h-0.003c-0.108-0.029-0.227-0.065-0.355-0.103v0.001l-0.348-0.106l-0.156-0.048v0.163v2.083
	V36.4l0.082,0.029c0.139,0.047,0.281,0.088,0.424,0.12c0.142,0.033,0.288,0.058,0.435,0.077v-0.001
	c0.144,0.019,0.29,0.032,0.433,0.039c0.146,0.008,0.292,0.011,0.435,0.011c0.365,0.002,0.703-0.027,1.014-0.088
	c0.315-0.061,0.605-0.156,0.868-0.28c0.263-0.125,0.511-0.29,0.741-0.493c0.228-0.2,0.442-0.442,0.641-0.721
	c0.196-0.276,0.391-0.599,0.582-0.966c0.19-0.363,0.375-0.768,0.556-1.214l6.434-15.652l0.069-0.166h-0.18H113.249z"/> <path fill="#ffffff" d="M129.599,19.262c-0.337-0.565-0.76-1.045-1.276-1.432c-0.511-0.387-1.074-0.682-1.686-0.88
	c-0.616-0.201-1.244-0.3-1.886-0.3c-0.825,0.004-1.568,0.134-2.218,0.39c-0.651,0.261-1.219,0.62-1.699,1.082
	c-0.485,0.463-0.882,1.005-1.197,1.62c-0.314,0.62-0.55,1.293-0.707,2.02c-0.153,0.727-0.232,1.482-0.232,2.267
	c0,1.037,0.114,1.998,0.345,2.881c0.227,0.889,0.589,1.662,1.078,2.326c0.494,0.665,1.127,1.18,1.904,1.553
	c0.778,0.372,1.712,0.56,2.804,0.565c0.437,0,0.882-0.062,1.337-0.184c0.458-0.122,0.9-0.305,1.328-0.543
	c0.427-0.238,0.817-0.534,1.17-0.885c0.359-0.355,0.651-0.759,0.882-1.216h0.053v2.451h1.572v-19.71h-1.572V19.262z M129.297,26.301
	c-0.197,0.718-0.494,1.347-0.882,1.885c-0.389,0.539-0.865,0.961-1.437,1.257c-0.568,0.301-1.223,0.453-1.965,0.459
	c-0.664,0-1.276-0.122-1.839-0.365c-0.559-0.238-1.048-0.592-1.463-1.054c-0.415-0.467-0.743-1.041-0.974-1.72
	c-0.232-0.678-0.354-1.454-0.363-2.33c-0.034-0.88,0.039-1.701,0.214-2.464c0.175-0.763,0.454-1.437,0.838-2.016
	c0.385-0.575,0.874-1.028,1.472-1.355c0.599-0.324,1.302-0.489,2.114-0.494c0.715,0.004,1.358,0.161,1.921,0.471
	c0.568,0.305,1.048,0.727,1.441,1.27c0.398,0.539,0.699,1.158,0.909,1.859c0.21,0.704,0.315,1.45,0.315,2.244
	C129.599,24.796,129.498,25.578,129.297,26.301z"/> <rect x="134.786" y="17.026" fill="#ffffff" width="1.572" height="13.953"/> <path fill="#ffffff" d="M24.001,0C17.373,0,11.373,2.686,7.03,7.029C2.686,11.372,0,17.373,0,24c0,6.627,2.686,12.628,7.029,16.971
	C11.372,45.315,17.373,48,24.001,48c6.627,0,12.628-2.687,16.97-7.029C45.314,36.627,48,30.627,48,24
	c0-6.627-2.687-12.628-7.03-16.971C36.628,2.686,30.627,0,24.001,0z M40.178,40.178c-4.14,4.14-9.86,6.701-16.178,6.701
	c-6.318,0-12.039-2.561-16.179-6.701c-4.14-4.14-6.701-9.86-6.701-16.178c0-6.318,2.561-12.038,6.701-16.178
	c4.14-4.14,9.86-6.701,16.178-6.701c6.318,0,12.038,2.561,16.178,6.701c4.14,4.14,6.701,9.86,6.701,16.178
	C46.879,30.318,44.318,36.038,40.178,40.178z"/> <rect x="134.707" y="11.585" fill="#ffffff" width="1.73" height="2.397"/> <path fill="#ffffff" d="M24.001,3.353c-11.337,0-20.539,9.137-20.645,20.448l9.467-9.467l3.175,3.175l-6.928,6.928h29.862
	l-6.928-6.928l3.175-3.175l9.467,9.466C44.538,12.489,35.337,3.353,24.001,3.353z M24,20.252l-8.797-9.231h5.846v-4.55
	c0-1.181,1.328-2.149,2.951-2.149c1.623,0,2.951,0.967,2.951,2.149v4.55h5.846L24,20.252z"/> <path fill="#ffffff" d="M100.584,25.261c-0.138-0.232-0.302-0.444-0.49-0.635h-0.001c-0.189-0.192-0.404-0.362-0.64-0.51
	l-0.001,0.001c-0.234-0.148-0.482-0.281-0.743-0.4c-0.26-0.118-0.536-0.223-0.828-0.316L97.881,23.4
	c-0.294-0.09-0.588-0.174-0.882-0.248h-0.001c-0.302-0.076-0.605-0.145-0.912-0.205c-0.267-0.058-0.548-0.118-0.854-0.183
	c-0.278-0.059-0.561-0.118-0.851-0.177v-0.001c-0.279-0.059-0.549-0.123-0.809-0.193c-0.258-0.07-0.504-0.145-0.735-0.226h-0.001
	c-0.229-0.079-0.436-0.169-0.619-0.27c-0.179-0.099-0.336-0.21-0.469-0.332l-0.001-0.001c-0.129-0.116-0.226-0.25-0.291-0.399
	c-0.067-0.152-0.102-0.322-0.107-0.507c0.002-0.159,0.025-0.304,0.069-0.435c0.043-0.129,0.106-0.246,0.19-0.35
	c0.086-0.106,0.188-0.201,0.304-0.286l-0.001-0.001c0.115-0.084,0.245-0.157,0.388-0.217h0.001c0.151-0.065,0.309-0.121,0.471-0.165
	c0.161-0.044,0.334-0.08,0.514-0.107l0.001-0.001c0.176-0.028,0.357-0.049,0.541-0.062c0.183-0.013,0.365-0.019,0.545-0.017h0.002
	c0.198-0.002,0.395,0.007,0.588,0.026c0.193,0.019,0.385,0.049,0.574,0.088l0.002,0c0.19,0.037,0.371,0.087,0.541,0.148
	c0.17,0.061,0.334,0.136,0.491,0.222c0.152,0.086,0.291,0.187,0.417,0.299c0.125,0.112,0.239,0.24,0.338,0.382
	c0.096,0.141,0.176,0.299,0.235,0.473h0c0.051,0.148,0.089,0.308,0.113,0.48h2.678c-0.028-0.395-0.09-0.758-0.18-1.091h-0.001
	c-0.099-0.363-0.233-0.69-0.401-0.98l-0.001-0.001c-0.17-0.289-0.368-0.548-0.593-0.776c-0.225-0.228-0.479-0.427-0.76-0.597
	l0-0.001c-0.28-0.166-0.582-0.309-0.902-0.427c-0.321-0.118-0.662-0.212-1.023-0.282c-0.36-0.072-0.732-0.125-1.118-0.159v0.001
	c-0.387-0.034-0.786-0.05-1.198-0.048v-0.001c-0.26,0-0.523,0.012-0.79,0.035c-0.265,0.024-0.531,0.06-0.794,0.11
	c-0.265,0.047-0.526,0.109-0.778,0.184c-0.251,0.074-0.498,0.162-0.738,0.264c-0.242,0.1-0.47,0.216-0.685,0.345
	c-0.215,0.13-0.419,0.275-0.609,0.435c-0.191,0.16-0.365,0.337-0.517,0.53c-0.149,0.189-0.279,0.396-0.387,0.618
	c-0.111,0.223-0.195,0.461-0.252,0.715c-0.056,0.253-0.086,0.524-0.089,0.81v0.002c0.002,0.336,0.04,0.646,0.112,0.929v0.001
	c0.073,0.288,0.182,0.55,0.325,0.785c0.141,0.23,0.305,0.442,0.494,0.632c0.188,0.19,0.402,0.36,0.642,0.507
	c0.237,0.146,0.486,0.278,0.747,0.396c0.261,0.118,0.538,0.223,0.829,0.316h0.001c0.288,0.09,0.582,0.172,0.878,0.247
	c0.293,0.074,0.595,0.143,0.901,0.206l0.001,0.001c0.559,0.108,1.06,0.214,1.547,0.315l0.233,0.048
	c0.283,0.062,0.552,0.129,0.807,0.202c0.254,0.073,0.494,0.152,0.72,0.237c0.223,0.084,0.423,0.182,0.598,0.29
	c0.173,0.108,0.323,0.23,0.448,0.361l0.001,0.001c0.124,0.128,0.218,0.275,0.281,0.438c0.063,0.163,0.096,0.347,0.099,0.549v0.002
	c-0.003,0.201-0.031,0.385-0.084,0.55c-0.052,0.161-0.13,0.304-0.232,0.428c-0.104,0.127-0.226,0.24-0.364,0.338
	c-0.138,0.099-0.293,0.182-0.464,0.25l-0.002,0.001c-0.174,0.071-0.356,0.133-0.546,0.182c-0.187,0.048-0.382,0.086-0.582,0.112
	c-0.203,0.026-0.406,0.047-0.607,0.059c-0.195,0.012-0.388,0.018-0.573,0.016l-0.001-0.001c-0.252,0-0.497-0.01-0.732-0.031
	c-0.238-0.021-0.472-0.054-0.698-0.1l-0.001-0.001c-0.226-0.043-0.441-0.101-0.644-0.172c-0.203-0.071-0.395-0.157-0.574-0.255
	c-0.177-0.097-0.337-0.212-0.477-0.343h-0.001c-0.624-0.577-0.817-1.142-0.856-1.987l-0.005-0.116h-0.115h-2.302h-0.127l0.006,0.127
	c0.047,0.93,0.119,1.735,0.588,2.559h0c0.176,0.307,0.381,0.585,0.614,0.832c0.234,0.247,0.499,0.467,0.793,0.657
	c0.291,0.188,0.603,0.349,0.935,0.486c0.337,0.138,0.693,0.25,1.067,0.336c0.373,0.085,0.759,0.149,1.158,0.19
	c0.4,0.042,0.809,0.062,1.228,0.062c0.305,0,0.61-0.012,0.914-0.035c0.3-0.022,0.604-0.058,0.911-0.105
	c0.306-0.048,0.603-0.109,0.888-0.184c0.287-0.076,0.569-0.166,0.842-0.273c0.272-0.104,0.53-0.226,0.774-0.365
	c0.244-0.139,0.474-0.296,0.689-0.469h0.001c0.214-0.175,0.407-0.369,0.575-0.581c0.169-0.211,0.315-0.444,0.438-0.698
	c0.124-0.252,0.218-0.526,0.281-0.822c0.062-0.292,0.096-0.609,0.099-0.944v-0.001C101.012,26.306,100.867,25.728,100.584,25.261
	L100.584,25.261z"/> <path fill="#ffffff" d="M26.566,34.02c-0.469-0.305-1.063-0.579-1.78-0.817c-0.548-0.189-0.999-0.367-1.351-0.539
	c-0.349-0.17-0.607-0.359-0.772-0.558c-0.169-0.203-0.248-0.446-0.248-0.725c0-0.223,0.067-0.435,0.211-0.636
	c0.141-0.2,0.362-0.367,0.662-0.493c0.303-0.128,0.689-0.197,1.168-0.199c0.386,0.002,0.738,0.033,1.057,0.088
	c0.315,0.057,0.594,0.126,0.833,0.205c0.242,0.082,0.438,0.159,0.592,0.232l0.533-1.607c-0.322-0.162-0.726-0.296-1.216-0.405
	c-0.416-0.092-0.892-0.145-1.433-0.163v-1.663h-1.465v1.746c-0.235,0.038-0.46,0.089-0.673,0.151
	c-0.539,0.159-1.002,0.38-1.385,0.668c-0.38,0.287-0.674,0.623-0.876,1.008c-0.203,0.385-0.303,0.809-0.307,1.265
	c0.003,0.528,0.141,0.993,0.414,1.395c0.273,0.402,0.662,0.751,1.164,1.05c0.5,0.298,1.097,0.555,1.787,0.771
	c0.518,0.166,0.94,0.339,1.262,0.517c0.322,0.177,0.558,0.372,0.705,0.585c0.15,0.213,0.224,0.46,0.221,0.736
	c0,0.303-0.089,0.566-0.263,0.793c-0.172,0.224-0.426,0.4-0.76,0.525c-0.334,0.126-0.742,0.188-1.22,0.192
	c-0.389-0.003-0.766-0.036-1.134-0.099c-0.365-0.066-0.708-0.151-1.024-0.257c-0.319-0.106-0.598-0.221-0.84-0.35l-0.515,1.674
	c0.233,0.128,0.524,0.243,0.88,0.349c0.356,0.107,0.748,0.192,1.177,0.257c0.426,0.063,0.864,0.095,1.309,0.099l0.078-0.001v1.719
	h1.465v-1.857c0.186-0.036,0.363-0.079,0.531-0.129c0.588-0.177,1.076-0.418,1.462-0.727c0.389-0.306,0.677-0.661,0.868-1.061
	c0.19-0.4,0.285-0.823,0.285-1.274c0-0.528-0.113-0.995-0.346-1.397C27.387,34.682,27.037,34.327,26.566,34.02z"/> <path fill="#ffffff" d="M86.775,29.159c-0.062,0.016-0.124,0.028-0.181,0.037c-0.056,0.009-0.111,0.015-0.164,0.019
	c-0.052,0.004-0.102,0.007-0.148,0.007c-0.114,0-0.212-0.012-0.291-0.035c-0.071-0.021-0.128-0.053-0.166-0.093
	c-0.043-0.044-0.079-0.101-0.106-0.17c-0.029-0.074-0.049-0.163-0.06-0.266c-0.011-0.109-0.02-0.237-0.025-0.381
	c-0.004-0.145-0.006-0.306-0.003-0.482v-0.001v-7.105v-0.001c-0.003-0.331-0.031-0.636-0.085-0.914
	c-0.055-0.282-0.137-0.54-0.246-0.771v0c-0.11-0.232-0.241-0.443-0.391-0.634c-0.15-0.19-0.321-0.361-0.512-0.509l-0.001-0.001
	c-0.192-0.146-0.397-0.278-0.615-0.391h-0.001c-0.212-0.11-0.439-0.205-0.678-0.282v-0.001c-0.238-0.078-0.486-0.145-0.742-0.2
	c-0.256-0.054-0.521-0.097-0.79-0.126c-0.268-0.029-0.535-0.052-0.801-0.066h-0.001c-0.265-0.014-0.535-0.021-0.807-0.019h-0.002
	c-0.418-0.003-0.825,0.017-1.22,0.058c-0.396,0.04-0.78,0.102-1.151,0.185c-0.376,0.083-0.73,0.193-1.063,0.326
	c-0.332,0.134-0.646,0.292-0.938,0.477l-0.001-0.001c-0.296,0.185-0.563,0.401-0.799,0.647c-0.236,0.245-0.443,0.52-0.619,0.824
	c-0.176,0.301-0.314,0.639-0.412,1.009c-0.065,0.245-0.114,0.506-0.145,0.781h2.69c0.027-0.15,0.065-0.291,0.109-0.421
	c0.087-0.25,0.207-0.466,0.358-0.647c0.153-0.181,0.334-0.337,0.54-0.465c0.207-0.129,0.44-0.232,0.697-0.306
	c0.262-0.076,0.545-0.133,0.846-0.17c0.304-0.037,0.626-0.055,0.965-0.053h0.001c0.19-0.002,0.384,0.004,0.577,0.017
	c0.19,0.013,0.382,0.034,0.572,0.062c0.189,0.028,0.368,0.068,0.536,0.12c0.17,0.051,0.332,0.116,0.485,0.193
	c0.149,0.074,0.283,0.168,0.402,0.277c0.12,0.109,0.226,0.237,0.317,0.379c0.088,0.139,0.156,0.304,0.202,0.491
	c0.337,1.362-0.396,1.232-1.591,1.528c-2.315,0.575-6.543,0.356-7.837,2.784c-0.37,0.692-0.471,1.54-0.478,2.602
	c0.002,0.353,0.037,0.68,0.102,0.981c0.066,0.304,0.166,0.585,0.297,0.842c0.13,0.253,0.287,0.483,0.469,0.691
	c0.183,0.208,0.391,0.394,0.623,0.555c0.227,0.159,0.474,0.298,0.739,0.414c0.265,0.118,0.551,0.215,0.854,0.29
	c0.297,0.074,0.606,0.129,0.925,0.166c0.323,0.036,0.657,0.056,1.001,0.056v-0.001c0.523,0.002,1.028-0.041,1.512-0.127
	c0.488-0.089,0.956-0.221,1.402-0.397c0.45-0.177,0.874-0.405,1.269-0.68c0.321-0.223,0.626-0.48,0.914-0.767
	c0.021,0.268,0.068,0.507,0.14,0.718c0.099,0.29,0.247,0.529,0.442,0.713l0.001,0.001c0.196,0.183,0.427,0.32,0.695,0.411
	c0.263,0.089,0.56,0.131,0.889,0.129v0.001c0.194,0,0.379-0.009,0.551-0.025c0.171-0.016,0.33-0.042,0.475-0.077
	c0.146-0.032,0.284-0.072,0.413-0.121v0.001c0.131-0.049,0.253-0.106,0.365-0.17l0.061-0.035v-0.07v-1.763v-0.169l-0.16,0.054
	C86.911,29.121,86.839,29.142,86.775,29.159z M82.959,25.657c0,0.151-0.02,0.868-0.059,1.027c-0.039,0.16-0.1,0.327-0.183,0.501
	c-0.083,0.17-0.19,0.335-0.319,0.497c-0.13,0.164-0.283,0.325-0.457,0.48c-0.175,0.152-0.378,0.293-0.605,0.42
	c-0.227,0.126-0.479,0.237-0.756,0.335c-0.279,0.097-0.59,0.174-0.929,0.224c-0.337,0.051-0.701,0.079-1.09,0.081h-0.001
	c-0.244,0.001-0.481-0.014-0.708-0.045c-0.228-0.032-0.448-0.081-0.656-0.146l-0.002-0.001c-0.206-0.061-0.392-0.143-0.558-0.244
	c-0.164-0.101-0.31-0.221-0.435-0.361c-0.12-0.135-0.212-0.296-0.276-0.478c-0.064-0.188-0.099-0.401-0.103-0.636
	c0.071-3.367,5.129-2.233,7.136-3.492V25.657z"/> <path fill="#ffffff" d="M71.451,23.04c-0.041-0.302-0.097-0.606-0.17-0.911c-0.073-0.302-0.161-0.603-0.264-0.901
	c-0.101-0.298-0.222-0.589-0.361-0.871c-0.139-0.283-0.297-0.559-0.472-0.825c-0.175-0.269-0.372-0.522-0.587-0.758
	c-0.216-0.236-0.452-0.458-0.706-0.664H68.89c-0.258-0.207-0.538-0.393-0.838-0.557c-0.301-0.163-0.624-0.303-0.971-0.421
	c-0.346-0.119-0.716-0.207-1.108-0.267c-0.39-0.059-0.808-0.089-1.252-0.091h-0.001c-0.511,0.002-1.003,0.049-1.472,0.14
	c-0.474,0.091-0.929,0.228-1.362,0.408l-0.001,0.001c-0.431,0.182-0.834,0.4-1.207,0.655c-0.372,0.254-0.716,0.545-1.03,0.872
	c-0.318,0.328-0.6,0.686-0.844,1.071c-0.245,0.385-0.454,0.8-0.626,1.243c-0.175,0.443-0.305,0.908-0.393,1.395
	c-0.088,0.485-0.132,0.992-0.135,1.52v0.004c0.016,0.533,0.068,1.043,0.153,1.532c0.085,0.495,0.206,0.968,0.359,1.419
	c0.152,0.448,0.342,0.869,0.568,1.26c0.226,0.391,0.487,0.752,0.782,1.079c0.297,0.332,0.632,0.626,1.002,0.882
	c0.372,0.257,0.781,0.477,1.225,0.658c0.444,0.182,0.929,0.32,1.452,0.411c0.518,0.092,1.077,0.139,1.672,0.141v0.001
	c0.56,0,1.093-0.047,1.595-0.139c0.504-0.092,0.979-0.23,1.42-0.414c0.443-0.184,0.848-0.411,1.216-0.68
	c0.368-0.27,0.699-0.583,0.991-0.94c0.292-0.356,0.54-0.755,0.742-1.194c0.175-0.378,0.317-0.786,0.425-1.223h-2.661
	c-0.102,0.326-0.238,0.62-0.407,0.877c-0.212,0.323-0.478,0.594-0.796,0.812c-0.319,0.217-0.681,0.38-1.086,0.489
	c-0.407,0.11-0.859,0.165-1.353,0.165v0.001c-0.394-0.002-0.763-0.035-1.106-0.095c-0.342-0.06-0.656-0.149-0.94-0.265
	c-0.287-0.119-0.55-0.261-0.784-0.422h-0.001c-0.234-0.161-0.443-0.343-0.625-0.545c-0.182-0.205-0.341-0.425-0.475-0.659
	c-0.134-0.234-0.244-0.484-0.33-0.75c-0.16-0.494-0.236-1.016-0.226-1.563h10.949h0.116l0.004-0.116
	c0.012-0.289,0.012-0.583-0.002-0.882C71.518,23.635,71.492,23.339,71.451,23.04z M60.479,22.678
	c0.023-0.215,0.06-0.424,0.111-0.627c0.061-0.242,0.142-0.478,0.243-0.703v0c0.099-0.225,0.217-0.437,0.354-0.637
	c0.138-0.203,0.296-0.392,0.47-0.568v-0.001c0.175-0.174,0.366-0.329,0.575-0.465c0.207-0.136,0.435-0.254,0.681-0.354
	c0.246-0.099,0.506-0.174,0.782-0.224c0.277-0.05,0.572-0.077,0.884-0.079h0.001c0.294,0.002,0.578,0.027,0.848,0.076
	c0.269,0.049,0.526,0.121,0.771,0.218c0.245,0.097,0.476,0.214,0.69,0.349c0.213,0.135,0.414,0.291,0.597,0.464l0.001-0.001
	c0.181,0.171,0.345,0.357,0.491,0.558c0.145,0.2,0.271,0.414,0.378,0.642c0.107,0.231,0.192,0.471,0.253,0.719
	c0.05,0.204,0.085,0.415,0.103,0.632H60.479z"/> <path fill="#ffffff" d="M326.679,25.261c-0.138-0.232-0.302-0.444-0.49-0.635c-0.189-0.192-0.404-0.362-0.64-0.51v0.001
	c-0.234-0.148-0.483-0.281-0.743-0.4c-0.261-0.118-0.537-0.223-0.828-0.316l-0.001-0.001c-0.294-0.09-0.589-0.174-0.883-0.248
	c-0.301-0.076-0.605-0.145-0.912-0.205c-0.267-0.058-0.547-0.118-0.854-0.183c-0.278-0.059-0.562-0.118-0.851-0.177v-0.001
	c-0.279-0.059-0.549-0.123-0.809-0.193c-0.258-0.07-0.504-0.145-0.735-0.226c-0.23-0.079-0.437-0.169-0.62-0.27
	c-0.178-0.099-0.336-0.21-0.468-0.332l-0.001-0.001c-0.128-0.116-0.226-0.25-0.291-0.399c-0.067-0.152-0.103-0.322-0.107-0.507
	c0.003-0.159,0.026-0.304,0.069-0.435c0.043-0.129,0.106-0.246,0.19-0.35c0.086-0.106,0.188-0.201,0.304-0.286v-0.001
	c0.115-0.084,0.245-0.157,0.388-0.217h0.001c0.151-0.065,0.309-0.121,0.471-0.165c0.162-0.044,0.334-0.08,0.513-0.107l0.001-0.001
	c0.177-0.028,0.357-0.049,0.542-0.062c0.183-0.013,0.365-0.019,0.544-0.017h0.002c0.199-0.002,0.395,0.007,0.589,0.026
	c0.193,0.019,0.384,0.049,0.574,0.088l0.001,0c0.191,0.037,0.371,0.087,0.541,0.148c0.17,0.061,0.334,0.136,0.491,0.222
	c0.151,0.086,0.291,0.187,0.416,0.299c0.126,0.112,0.239,0.24,0.34,0.382c0.096,0.141,0.175,0.299,0.235,0.473h-0.001
	c0.051,0.148,0.089,0.308,0.113,0.48h2.679c-0.03-0.395-0.09-0.758-0.181-1.091h-0.001c-0.099-0.363-0.233-0.69-0.402-0.98v-0.001
	c-0.17-0.289-0.368-0.548-0.593-0.776c-0.224-0.228-0.478-0.427-0.759-0.597l-0.001-0.001c-0.28-0.166-0.581-0.309-0.902-0.427
	c-0.321-0.118-0.662-0.212-1.024-0.282c-0.359-0.072-0.731-0.125-1.118-0.159v0.001c-0.386-0.034-0.786-0.05-1.198-0.048v-0.001
	c-0.259,0-0.523,0.012-0.79,0.035h-0.001c-0.265,0.024-0.53,0.06-0.794,0.11c-0.266,0.047-0.526,0.109-0.778,0.184
	c-0.252,0.074-0.498,0.162-0.738,0.264c-0.242,0.1-0.471,0.216-0.685,0.345c-0.216,0.13-0.419,0.275-0.609,0.435
	c-0.192,0.16-0.366,0.337-0.517,0.53c-0.149,0.189-0.279,0.396-0.388,0.618c-0.111,0.223-0.195,0.461-0.252,0.715
	c-0.057,0.253-0.087,0.524-0.089,0.81v0.002c0.002,0.336,0.04,0.646,0.112,0.929v0.001c0.073,0.288,0.183,0.55,0.325,0.785
	c0.14,0.23,0.306,0.442,0.494,0.632c0.189,0.19,0.403,0.36,0.643,0.507c0.236,0.146,0.486,0.278,0.747,0.396
	c0.262,0.118,0.538,0.223,0.829,0.316h0.001c0.288,0.09,0.581,0.172,0.878,0.247c0.293,0.074,0.594,0.143,0.902,0.206v0.001
	c0.559,0.108,1.061,0.214,1.548,0.315l0.233,0.048c0.282,0.062,0.553,0.129,0.807,0.202c0.254,0.073,0.495,0.152,0.72,0.237
	c0.223,0.084,0.423,0.182,0.598,0.29c0.173,0.108,0.323,0.23,0.449,0.361l0.001,0.001c0.124,0.128,0.218,0.275,0.281,0.438
	c0.063,0.163,0.096,0.347,0.099,0.549v0.002c-0.002,0.201-0.031,0.385-0.083,0.55c-0.052,0.161-0.131,0.304-0.232,0.428
	c-0.105,0.127-0.227,0.24-0.363,0.338c-0.138,0.099-0.293,0.182-0.464,0.25l-0.002,0.001c-0.174,0.071-0.357,0.133-0.545,0.182
	c-0.187,0.048-0.382,0.086-0.582,0.112c-0.203,0.026-0.406,0.047-0.606,0.059c-0.196,0.012-0.388,0.018-0.574,0.016l-0.001-0.001
	c-0.252,0-0.497-0.01-0.731-0.031h-0.001c-0.238-0.021-0.471-0.054-0.697-0.1l-0.001-0.001c-0.225-0.043-0.441-0.101-0.645-0.172
	c-0.202-0.071-0.394-0.157-0.572-0.255c-0.177-0.097-0.337-0.212-0.477-0.343h-0.001c-0.623-0.577-0.817-1.142-0.856-1.987
	l-0.005-0.116h-0.115h-2.302h-0.127l0.007,0.127c0.047,0.93,0.119,1.735,0.588,2.559c0.176,0.307,0.381,0.585,0.614,0.832
	c0.234,0.247,0.499,0.467,0.793,0.657c0.291,0.188,0.603,0.349,0.936,0.486c0.336,0.138,0.693,0.25,1.066,0.336
	c0.372,0.085,0.76,0.149,1.158,0.19c0.4,0.042,0.809,0.062,1.228,0.062c0.304,0,0.61-0.012,0.913-0.035
	c0.3-0.022,0.604-0.058,0.912-0.105c0.305-0.048,0.602-0.109,0.888-0.184c0.287-0.076,0.568-0.166,0.842-0.273
	c0.271-0.104,0.53-0.226,0.775-0.365c0.243-0.139,0.473-0.296,0.687-0.469h0.001c0.213-0.175,0.406-0.369,0.576-0.581
	c0.167-0.211,0.315-0.444,0.438-0.698c0.124-0.252,0.218-0.526,0.281-0.822c0.062-0.292,0.096-0.609,0.099-0.944v-0.001
	C327.106,26.306,326.963,25.728,326.679,25.261z"/> <path fill="#ffffff" d="M219.491,21.249h-0.001c-0.154-0.443-0.348-0.859-0.58-1.248c-0.233-0.392-0.505-0.756-0.812-1.091
	c-0.308-0.336-0.653-0.635-1.036-0.895c-0.38-0.261-0.799-0.484-1.252-0.67c-0.455-0.188-0.947-0.33-1.472-0.425
	c-0.523-0.095-1.083-0.143-1.676-0.145c-0.593,0.002-1.153,0.051-1.676,0.145c-0.524,0.095-1.015,0.237-1.467,0.424
	c-0.455,0.185-0.875,0.409-1.257,0.67c-0.382,0.261-0.728,0.56-1.037,0.896c-0.308,0.336-0.579,0.699-0.812,1.09v0.001
	c-0.232,0.39-0.426,0.807-0.58,1.248c-0.154,0.445-0.273,0.908-0.351,1.389c-0.078,0.482-0.118,0.98-0.118,1.495
	c0,0.51,0.039,1.005,0.118,1.482c0.078,0.481,0.196,0.942,0.351,1.385c0.154,0.442,0.349,0.859,0.581,1.248
	c0.233,0.389,0.504,0.752,0.811,1.086h0.001c0.309,0.335,0.655,0.633,1.036,0.892c0.382,0.261,0.801,0.485,1.257,0.67v-0.001
	c0.452,0.188,0.942,0.331,1.467,0.425c0.523,0.095,1.083,0.143,1.676,0.146c0.593-0.002,1.153-0.05,1.676-0.146
	c0.526-0.094,1.017-0.236,1.472-0.425c0.453-0.185,0.871-0.408,1.251-0.668c0.381-0.259,0.727-0.558,1.037-0.893
	c0.309-0.335,0.579-0.697,0.811-1.086c0.233-0.388,0.427-0.805,0.581-1.248h0.001c0.156-0.438,0.274-0.898,0.351-1.375
	c0.079-0.481,0.118-0.979,0.118-1.492c0-0.515-0.039-1.013-0.117-1.495C219.765,22.157,219.648,21.693,219.491,21.249z
	 M217.145,24.135c-0.002,0.411-0.033,0.8-0.092,1.163c-0.059,0.361-0.147,0.701-0.264,1.016v0.001
	c-0.114,0.315-0.252,0.608-0.413,0.876c-0.16,0.263-0.343,0.503-0.547,0.716c-0.204,0.216-0.425,0.406-0.661,0.569
	c-0.236,0.163-0.49,0.301-0.761,0.413c-0.268,0.11-0.549,0.194-0.842,0.25c-0.29,0.055-0.592,0.083-0.904,0.083
	c-0.311,0-0.613-0.028-0.903-0.083c-0.294-0.056-0.575-0.14-0.842-0.25c-0.27-0.112-0.526-0.25-0.762-0.413
	c-0.236-0.164-0.456-0.354-0.66-0.569h-0.001c-0.205-0.215-0.388-0.454-0.546-0.719c-0.16-0.265-0.297-0.557-0.414-0.874
	c-0.116-0.315-0.205-0.655-0.263-1.016c-0.059-0.363-0.09-0.752-0.092-1.163v-0.001c0.002-0.413,0.033-0.805,0.092-1.172
	c0.058-0.365,0.147-0.707,0.263-1.025c0.117-0.318,0.254-0.611,0.414-0.878c0.16-0.266,0.342-0.507,0.547-0.724v-0.001
	c0.204-0.216,0.424-0.406,0.66-0.568c0.236-0.163,0.492-0.301,0.762-0.413v0c0.267-0.11,0.548-0.193,0.841-0.249
	c0.291-0.055,0.593-0.084,0.904-0.084c0.312,0,0.614,0.029,0.904,0.084c0.292,0.056,0.574,0.14,0.842,0.249v0
	c0.27,0.112,0.524,0.25,0.761,0.413c0.238,0.163,0.458,0.352,0.661,0.568v0.001c0.206,0.216,0.389,0.458,0.548,0.724
	c0.161,0.267,0.299,0.56,0.412,0.877v0.001c0.116,0.317,0.204,0.658,0.263,1.022c0.059,0.367,0.091,0.76,0.093,1.175V24.135z"/> <polygon fill="#ffffff" points="260.417,11.516 260.297,11.516 260.297,11.637 260.297,31.025 260.297,31.147 260.417,31.147 
	262.847,31.147 262.969,31.147 262.969,31.025 262.969,11.637 262.969,11.516 262.847,11.516 "/> <polygon fill="#ffffff" points="239.542,17.096 239.451,17.096 239.426,17.183 236.199,28.174 233.195,17.185 233.171,17.096 
	233.079,17.096 230.42,17.096 230.327,17.096 230.302,17.186 227.412,28.168 224.159,17.183 224.133,17.096 224.043,17.096 
	221.355,17.096 221.185,17.096 221.24,17.256 225.987,31.065 226.016,31.147 226.102,31.147 228.733,31.147 228.825,31.147 
	228.85,31.057 231.737,20.403 234.651,31.057 234.675,31.147 234.767,31.147 237.34,31.147 237.426,31.147 237.454,31.064 
	242.172,17.256 242.227,17.096 242.059,17.096 "/> <path fill="#ffffff" d="M256.483,19.874v-0.001c-0.088-0.317-0.204-0.613-0.347-0.886c-0.145-0.275-0.316-0.528-0.518-0.759
	c-0.201-0.233-0.438-0.439-0.707-0.619c-0.269-0.178-0.571-0.331-0.91-0.456c-0.335-0.123-0.711-0.217-1.125-0.28
	c-0.409-0.062-0.861-0.094-1.352-0.096c-0.54-0.003-1.049,0.048-1.524,0.153c-0.477,0.104-0.924,0.263-1.339,0.474
	c-0.417,0.21-0.797,0.478-1.137,0.801c-0.269,0.257-0.517,0.55-0.74,0.88v-1.868v-0.121h-0.122h-2.287h-0.122v0.121v13.809v0.122
	h0.122h2.43h0.12v-0.122v-7.799c0-0.307,0.023-0.601,0.067-0.88c0.044-0.279,0.111-0.547,0.198-0.804l0.001-0.001
	c0.084-0.254,0.193-0.492,0.324-0.713c0.13-0.221,0.285-0.426,0.46-0.614v-0.001c0.173-0.187,0.371-0.355,0.591-0.501
	c0.221-0.147,0.466-0.273,0.732-0.377c0.264-0.103,0.554-0.181,0.865-0.234c0.316-0.053,0.656-0.081,1.016-0.083h0.001
	c0.302,0.002,0.585,0.031,0.844,0.086c0.256,0.055,0.493,0.137,0.706,0.249h0.001c0.212,0.108,0.403,0.239,0.565,0.391
	c0.163,0.152,0.302,0.326,0.415,0.523v0.001c0.116,0.196,0.203,0.412,0.262,0.646c0.059,0.234,0.089,0.489,0.089,0.762v9.348v0.122
	h0.121h2.431h0.12v-0.122v-9.081c0.002-0.374-0.017-0.733-0.059-1.074C256.633,20.521,256.568,20.188,256.483,19.874z"/> <path fill="#ffffff" d="M309.173,11.516h-0.12v0.121v7.13c-0.096-0.123-0.197-0.241-0.304-0.351
	c-0.17-0.176-0.355-0.336-0.553-0.478c-0.197-0.143-0.401-0.272-0.611-0.386c-0.209-0.113-0.427-0.212-0.652-0.297
	c-0.446-0.172-0.892-0.294-1.337-0.371h-0.001c-0.225-0.036-0.442-0.064-0.646-0.082c-0.208-0.018-0.41-0.027-0.608-0.027
	l-0.001,0.001c-0.572,0.004-1.11,0.055-1.609,0.152c-0.501,0.097-0.968,0.241-1.398,0.432c-0.43,0.191-0.825,0.419-1.182,0.683
	c-0.36,0.265-0.683,0.567-0.969,0.903c-0.286,0.338-0.536,0.701-0.75,1.089c-0.215,0.388-0.393,0.802-0.535,1.24
	c-0.142,0.438-0.25,0.892-0.32,1.359c-0.071,0.467-0.106,0.95-0.106,1.448c0,0.498,0.037,0.983,0.108,1.451
	c0.071,0.467,0.18,0.925,0.322,1.368c0.143,0.442,0.324,0.861,0.541,1.254c0.216,0.392,0.467,0.759,0.754,1.097
	c0.29,0.343,0.617,0.65,0.979,0.92c0.362,0.27,0.76,0.502,1.191,0.697c0.435,0.195,0.906,0.343,1.411,0.442
	c0.504,0.1,1.044,0.151,1.62,0.156l0.001,0.001c0.347,0,0.687-0.02,1.02-0.059c0.327-0.039,0.648-0.098,0.959-0.177
	c0.311-0.075,0.606-0.176,0.886-0.297v-0.001c0.282-0.123,0.546-0.266,0.792-0.43c0.249-0.167,0.471-0.359,0.665-0.575
	c0.122-0.135,0.232-0.277,0.333-0.429v1.526v0.122h0.12h2.431h0.12v-0.122V11.637v-0.121h-0.12H309.173z M309.138,24.135
	c0.002,0.318-0.018,0.633-0.057,0.943c-0.04,0.314-0.104,0.625-0.186,0.931c-0.082,0.302-0.187,0.59-0.314,0.861
	c-0.128,0.27-0.279,0.528-0.454,0.769c-0.174,0.241-0.375,0.456-0.602,0.647c-0.227,0.192-0.478,0.358-0.755,0.5
	c-0.279,0.141-0.587,0.25-0.923,0.323c-0.338,0.073-0.707,0.112-1.104,0.114h-0.001c-0.382-0.002-0.74-0.039-1.071-0.109
	c-0.333-0.07-0.638-0.174-0.915-0.311c-0.281-0.139-0.538-0.3-0.767-0.484c-0.231-0.185-0.438-0.394-0.621-0.629
	c-0.182-0.235-0.343-0.488-0.478-0.755h-0.001c-0.134-0.262-0.246-0.54-0.334-0.835c-0.089-0.298-0.155-0.602-0.2-0.912
	c-0.044-0.308-0.067-0.624-0.067-0.945v-0.001c-0.002-0.333,0.015-0.663,0.053-0.986v-0.001c0.036-0.326,0.093-0.646,0.169-0.956
	c0.077-0.311,0.176-0.608,0.298-0.885c0.12-0.278,0.265-0.54,0.432-0.785v-0.001c0.165-0.244,0.359-0.464,0.58-0.658
	c0.222-0.195,0.471-0.365,0.744-0.509c0.272-0.143,0.579-0.252,0.917-0.326c0.342-0.073,0.715-0.112,1.118-0.114h0.001
	c0.408,0.002,0.787,0.039,1.135,0.11c0.347,0.071,0.666,0.176,0.952,0.314l0.001,0.001c0.286,0.135,0.546,0.298,0.778,0.484
	c0.233,0.187,0.441,0.401,0.621,0.637c0.181,0.238,0.339,0.495,0.474,0.769c0.133,0.272,0.242,0.56,0.326,0.864
	c0.084,0.309,0.149,0.628,0.192,0.956c0.042,0.319,0.062,0.647,0.06,0.979V24.135z"/> <path fill="#ffffff" d="M295.885,29.159c-0.062,0.016-0.122,0.028-0.181,0.037c-0.056,0.009-0.111,0.015-0.163,0.019
	c-0.053,0.004-0.102,0.007-0.148,0.007c-0.115,0-0.212-0.012-0.291-0.035c-0.07-0.021-0.127-0.053-0.166-0.093
	c-0.043-0.044-0.079-0.101-0.105-0.17c-0.03-0.074-0.05-0.163-0.061-0.266c-0.011-0.109-0.02-0.237-0.024-0.381
	c-0.004-0.145-0.005-0.306-0.003-0.482v-0.001v-7.105v-0.001c-0.002-0.331-0.031-0.636-0.084-0.914
	c-0.056-0.282-0.138-0.54-0.246-0.771v0c-0.111-0.232-0.241-0.443-0.391-0.634c-0.15-0.19-0.322-0.361-0.512-0.509l-0.001-0.001
	c-0.192-0.146-0.396-0.278-0.614-0.391h-0.001c-0.212-0.11-0.439-0.205-0.678-0.282v-0.001c-0.238-0.078-0.486-0.145-0.742-0.2
	c-0.255-0.054-0.52-0.097-0.789-0.126c-0.268-0.029-0.535-0.052-0.801-0.066c-0.265-0.014-0.535-0.021-0.808-0.019h-0.001
	c-0.418-0.003-0.825,0.017-1.22,0.058c-0.396,0.04-0.781,0.102-1.151,0.185c-0.375,0.083-0.73,0.193-1.063,0.326
	c-0.333,0.134-0.646,0.292-0.938,0.477v-0.001c-0.297,0.185-0.563,0.401-0.799,0.647c-0.237,0.245-0.443,0.52-0.62,0.824
	c-0.175,0.301-0.313,0.639-0.411,1.009c-0.066,0.245-0.114,0.506-0.146,0.781h2.69c0.027-0.15,0.065-0.291,0.109-0.421
	c0.087-0.25,0.207-0.466,0.358-0.647c0.153-0.181,0.334-0.337,0.54-0.465c0.207-0.129,0.44-0.232,0.697-0.306
	c0.262-0.076,0.544-0.133,0.846-0.17c0.303-0.037,0.625-0.055,0.964-0.053h0.001c0.19-0.002,0.383,0.004,0.577,0.017
	c0.19,0.013,0.382,0.034,0.572,0.062c0.188,0.028,0.369,0.068,0.536,0.12c0.17,0.051,0.332,0.116,0.485,0.193
	c0.149,0.074,0.284,0.168,0.403,0.277c0.119,0.109,0.226,0.237,0.316,0.379h0.001c0.087,0.139,0.155,0.304,0.201,0.491
	c0.337,1.362-0.395,1.232-1.591,1.528c-2.315,0.575-6.543,0.356-7.837,2.784c-0.369,0.692-0.472,1.54-0.478,2.602
	c0.002,0.353,0.037,0.68,0.103,0.981c0.067,0.304,0.165,0.585,0.297,0.842c0.13,0.253,0.288,0.483,0.469,0.691
	c0.184,0.208,0.392,0.394,0.624,0.555c0.226,0.159,0.473,0.298,0.738,0.414c0.266,0.118,0.552,0.215,0.855,0.29
	c0.297,0.074,0.605,0.129,0.925,0.166c0.323,0.036,0.658,0.056,1.002,0.056v-0.001c0.522,0.002,1.027-0.041,1.512-0.127
	c0.488-0.089,0.956-0.221,1.401-0.397c0.45-0.177,0.874-0.405,1.269-0.68c0.322-0.223,0.626-0.48,0.914-0.767
	c0.021,0.268,0.068,0.507,0.14,0.718c0.1,0.29,0.247,0.529,0.442,0.713l0.001,0.001c0.196,0.183,0.428,0.32,0.694,0.411
	c0.263,0.089,0.56,0.131,0.89,0.129v0.001c0.194,0,0.378-0.009,0.551-0.025c0.171-0.016,0.329-0.042,0.475-0.077
	c0.147-0.032,0.285-0.072,0.413-0.121v0.001c0.132-0.049,0.254-0.106,0.366-0.17l0.061-0.035v-0.07v-1.763v-0.169l-0.16,0.054
	C296.022,29.121,295.949,29.142,295.885,29.159z M292.07,25.657c0,0.151-0.02,0.868-0.058,1.027
	c-0.039,0.16-0.101,0.327-0.184,0.501h0.001c-0.084,0.17-0.191,0.335-0.32,0.497c-0.129,0.164-0.282,0.325-0.457,0.48
	c-0.175,0.152-0.378,0.293-0.605,0.42c-0.227,0.126-0.479,0.237-0.756,0.335c-0.279,0.097-0.589,0.174-0.928,0.224
	c-0.337,0.051-0.702,0.079-1.09,0.081h-0.001c-0.244,0.001-0.481-0.014-0.708-0.045c-0.229-0.032-0.448-0.081-0.656-0.146
	l-0.002-0.001c-0.207-0.061-0.393-0.143-0.558-0.244c-0.164-0.101-0.309-0.221-0.435-0.361c-0.12-0.135-0.212-0.296-0.276-0.478
	c-0.065-0.188-0.099-0.401-0.103-0.636c0.071-3.367,5.129-2.233,7.136-3.492V25.657z"/> <path fill="#ffffff" d="M150.272,19.477h-0.052c-0.232-0.458-0.524-0.862-0.882-1.216c-0.354-0.35-0.742-0.646-1.17-0.884
	c-0.429-0.238-0.869-0.422-1.328-0.544c-0.454-0.121-0.9-0.183-1.337-0.183c-1.092,0.004-2.026,0.193-2.804,0.565
	c-0.777,0.368-1.411,0.89-1.904,1.553c-0.489,0.665-0.852,1.437-1.079,2.325c-0.232,0.885-0.345,1.845-0.345,2.882
	c0,0.785,0.078,1.54,0.232,2.268c0.156,0.727,0.393,1.4,0.707,2.02c0.315,0.615,0.712,1.158,1.197,1.62
	c0.481,0.463,1.048,0.821,1.699,1.077c0.651,0.26,1.394,0.391,2.219,0.395c0.643,0,1.271-0.103,1.887-0.301
	c0.612-0.197,1.175-0.494,1.686-0.879c0.515-0.391,0.939-0.867,1.275-1.433c0.022,0.647,0,1.28-0.057,1.908
	c-0.057,0.624-0.175,1.213-0.358,1.76c-0.183,0.552-0.454,1.041-0.812,1.463c-0.359,0.422-0.83,0.755-1.411,0.993
	c-0.581,0.242-1.302,0.363-2.158,0.368c-0.629,0.009-1.218-0.058-1.772-0.197c-0.559-0.14-1.04-0.391-1.442-0.763
	c-0.402-0.373-0.681-0.908-0.847-1.598h-1.677c0.021,0.336,0.105,0.691,0.253,1.06c0.153,0.368,0.371,0.727,0.663,1.073
	c0.293,0.349,0.664,0.669,1.109,0.947c0.45,0.283,0.983,0.507,1.594,0.678c0.616,0.166,1.324,0.252,2.118,0.256
	c1.031-0.004,1.909-0.13,2.647-0.373c0.734-0.246,1.341-0.592,1.825-1.032c0.485-0.444,0.865-0.96,1.14-1.548
	c0.28-0.593,0.476-1.235,0.589-1.931c0.113-0.695,0.17-1.419,0.166-2.173V17.026h-1.572V19.477z M149.958,26.301
	c-0.21,0.701-0.511,1.32-0.909,1.859c-0.393,0.539-0.873,0.965-1.441,1.27c-0.564,0.31-1.206,0.466-1.922,0.472
	c-0.813-0.006-1.516-0.171-2.114-0.499c-0.598-0.323-1.087-0.776-1.472-1.351c-0.384-0.579-0.663-1.252-0.838-2.015
	c-0.175-0.763-0.249-1.585-0.214-2.465c0.009-0.875,0.131-1.652,0.362-2.329c0.232-0.678,0.559-1.252,0.974-1.719
	c0.414-0.462,0.904-0.817,1.463-1.059c0.563-0.238,1.175-0.359,1.839-0.359c0.742,0.004,1.397,0.157,1.965,0.458
	c0.572,0.296,1.048,0.718,1.437,1.257c0.389,0.539,0.686,1.168,0.882,1.886c0.201,0.722,0.302,1.504,0.302,2.352
	C150.272,24.85,150.167,25.596,149.958,26.301z"/> <path fill="#ffffff" d="M279.828,21.249c-0.154-0.442-0.348-0.858-0.58-1.247v-0.001c-0.232-0.391-0.504-0.755-0.812-1.091
	c-0.309-0.336-0.655-0.635-1.036-0.896c-0.381-0.26-0.799-0.484-1.252-0.669c-0.455-0.188-0.947-0.33-1.472-0.425
	c-0.523-0.095-1.083-0.143-1.676-0.145c-0.593,0.002-1.153,0.051-1.676,0.145c-0.524,0.095-1.015,0.237-1.468,0.424
	c-0.454,0.185-0.874,0.409-1.256,0.67c-0.382,0.261-0.728,0.56-1.037,0.896c-0.309,0.336-0.58,0.699-0.812,1.09v0.001
	c-0.232,0.39-0.427,0.807-0.581,1.248c-0.154,0.445-0.272,0.908-0.35,1.389c-0.078,0.482-0.118,0.98-0.118,1.495
	c0,0.511,0.039,1.005,0.117,1.482c0.079,0.481,0.197,0.942,0.351,1.385c0.155,0.443,0.35,0.859,0.582,1.248
	c0.232,0.389,0.503,0.751,0.811,1.086h0.001c0.309,0.335,0.655,0.633,1.036,0.892c0.382,0.261,0.801,0.485,1.256,0.67v-0.001
	c0.453,0.188,0.944,0.331,1.468,0.425c0.523,0.095,1.083,0.143,1.676,0.146c0.593-0.002,1.153-0.05,1.676-0.146
	c0.526-0.094,1.016-0.236,1.472-0.425c0.454-0.185,0.87-0.408,1.25-0.668c0.381-0.259,0.727-0.558,1.038-0.893
	c0.308-0.334,0.579-0.697,0.811-1.086c0.232-0.388,0.426-0.805,0.581-1.248c0.156-0.438,0.274-0.898,0.352-1.375
	c0.078-0.481,0.117-0.979,0.117-1.492c0-0.515-0.039-1.013-0.117-1.495C280.103,22.157,279.986,21.693,279.828,21.249z
	 M277.483,24.135c-0.002,0.411-0.033,0.8-0.092,1.163c-0.058,0.361-0.146,0.701-0.263,1.016v0.001
	c-0.114,0.315-0.253,0.608-0.414,0.875c-0.159,0.264-0.342,0.504-0.546,0.717h-0.001c-0.204,0.216-0.424,0.406-0.66,0.569
	c-0.236,0.163-0.49,0.301-0.761,0.413c-0.268,0.11-0.55,0.194-0.842,0.25c-0.291,0.055-0.593,0.083-0.904,0.083
	c-0.312,0-0.614-0.028-0.904-0.083c-0.292-0.056-0.574-0.14-0.842-0.25c-0.27-0.112-0.524-0.25-0.761-0.413
	c-0.237-0.164-0.457-0.354-0.66-0.569h-0.001c-0.206-0.215-0.388-0.454-0.546-0.719c-0.16-0.266-0.298-0.557-0.414-0.874
	c-0.117-0.315-0.205-0.655-0.264-1.016c-0.058-0.363-0.09-0.752-0.092-1.163v-0.001c0.002-0.413,0.034-0.805,0.092-1.172
	c0.059-0.365,0.147-0.707,0.264-1.025c0.116-0.318,0.254-0.611,0.414-0.878c0.159-0.266,0.34-0.507,0.546-0.724l0.001-0.001
	c0.204-0.216,0.424-0.406,0.66-0.568c0.236-0.163,0.49-0.301,0.761-0.413v0c0.268-0.11,0.55-0.193,0.842-0.249
	c0.29-0.055,0.592-0.084,0.904-0.084c0.311,0,0.613,0.029,0.904,0.084c0.292,0.056,0.574,0.14,0.842,0.249v0
	c0.27,0.112,0.524,0.25,0.761,0.413c0.237,0.163,0.456,0.352,0.66,0.568l0.001,0.001c0.206,0.216,0.389,0.458,0.548,0.724
	c0.16,0.268,0.298,0.56,0.412,0.877v0.001c0.116,0.317,0.204,0.658,0.263,1.022c0.059,0.367,0.09,0.76,0.092,1.175V24.135z"/> <rect x="155.381" y="11.585" fill="#ffffff" width="1.729" height="2.397"/> <rect x="155.459" y="17.026" fill="#ffffff" width="1.572" height="13.953"/> <path fill="#ffffff" d="M163.019,12.194h-1.572v4.832h-2.23v1.347h2.23v10.208c0,0.686,0.096,1.235,0.284,1.643
	c0.183,0.404,0.459,0.695,0.817,0.87c0.357,0.18,0.794,0.265,1.31,0.261c0.253-0.004,0.498-0.026,0.725-0.067
	c0.227-0.041,0.436-0.086,0.62-0.136c0.184-0.054,0.341-0.089,0.463-0.12v-1.32c-0.209,0.054-0.423,0.1-0.642,0.136
	c-0.218,0.035-0.432,0.054-0.641,0.054c-0.324,0-0.581-0.036-0.765-0.113c-0.188-0.077-0.323-0.197-0.41-0.355
	c-0.083-0.162-0.135-0.363-0.157-0.611c-0.026-0.251-0.035-0.547-0.031-0.888v-9.562h2.859v-1.347h-2.859V12.194z"/> <rect x="182.843" y="11.268" fill="#ffffff" width="1.572" height="19.71"/> <path fill="#ffffff" d="M179.274,29.532c-0.092-0.216-0.136-0.529-0.131-0.951v-7.595c-0.004-0.808-0.131-1.486-0.384-2.042
	c-0.25-0.553-0.598-1.002-1.048-1.338c-0.446-0.337-0.97-0.584-1.564-0.732c-0.593-0.153-1.236-0.229-1.93-0.224
	c-0.742,0-1.442,0.085-2.088,0.255c-0.647,0.176-1.223,0.445-1.725,0.813c-0.502,0.373-0.909,0.848-1.215,1.432
	c-0.305,0.583-0.493,1.284-0.554,2.105h1.598c0.101-0.803,0.323-1.432,0.673-1.894c0.345-0.463,0.799-0.785,1.354-0.978
	c0.558-0.193,1.201-0.283,1.93-0.278c0.808,0.004,1.462,0.125,1.961,0.368c0.498,0.242,0.861,0.575,1.084,0.996
	c0.227,0.422,0.34,0.911,0.336,1.464c0.004,0.165-0.009,0.345-0.031,0.538c-0.026,0.193-0.079,0.373-0.162,0.539
	c-0.082,0.166-0.209,0.292-0.384,0.378c-0.178,0.08-0.393,0.152-0.641,0.215c-0.25,0.062-0.498,0.112-0.752,0.153
	c-0.253,0.04-0.48,0.072-0.676,0.09l-2.175,0.296c-1.585,0.216-2.773,0.678-3.56,1.383c-0.789,0.705-1.182,1.647-1.182,2.819
	c0.004,0.673,0.13,1.261,0.37,1.765c0.245,0.503,0.581,0.92,1.001,1.252c0.424,0.332,0.904,0.583,1.446,0.75
	c0.545,0.165,1.113,0.246,1.716,0.246c0.988-0.004,1.913-0.203,2.773-0.592c0.861-0.395,1.625-0.966,2.285-1.724
	c0.004,0.328,0.039,0.637,0.105,0.934c0.066,0.292,0.187,0.543,0.367,0.745c0.178,0.206,0.44,0.336,0.786,0.395
	c0.117,0.026,0.231,0.045,0.345,0.058c0.114,0.013,0.231,0.022,0.362,0.022c0.153,0,0.305-0.018,0.463-0.054
	c0.162-0.031,0.31-0.067,0.446-0.107c0.136-0.045,0.24-0.081,0.323-0.108v-1.265c-0.441,0.162-0.782,0.233-1.021,0.216
	C179.532,29.861,179.366,29.743,179.274,29.532z M177.571,25.833c-0.004,0.705-0.149,1.316-0.424,1.827
	c-0.275,0.517-0.651,0.938-1.119,1.267c-0.472,0.332-0.999,0.579-1.585,0.736c-0.589,0.162-1.196,0.239-1.825,0.239
	c-0.377,0-0.739-0.049-1.088-0.153c-0.349-0.103-0.663-0.255-0.939-0.462c-0.279-0.207-0.497-0.467-0.659-0.782
	c-0.162-0.314-0.244-0.686-0.25-1.109c0.006-0.628,0.158-1.148,0.463-1.562c0.306-0.417,0.743-0.74,1.31-0.969
	c0.572-0.224,1.253-0.369,2.053-0.431c0.454-0.032,0.91-0.076,1.363-0.126c0.454-0.049,0.904-0.125,1.354-0.224
	c0.45-0.103,0.9-0.247,1.345-0.431V25.833z"/> <path fill="#ffffff" d="M200.108,11.516h-0.122v0.121v7.13c-0.096-0.123-0.197-0.241-0.303-0.351
	c-0.17-0.176-0.355-0.336-0.553-0.478c-0.197-0.143-0.402-0.272-0.612-0.386c-0.209-0.113-0.426-0.212-0.651-0.297
	c-0.447-0.172-0.893-0.294-1.338-0.371c-0.227-0.036-0.442-0.064-0.646-0.082c-0.208-0.018-0.411-0.027-0.609-0.027v0.001
	c-0.574,0.004-1.11,0.055-1.609,0.152c-0.501,0.097-0.968,0.241-1.399,0.432v-0.001c-0.429,0.191-0.824,0.419-1.182,0.683
	c-0.359,0.265-0.682,0.567-0.968,0.903c-0.286,0.338-0.536,0.701-0.751,1.089c-0.214,0.388-0.392,0.802-0.535,1.24
	c-0.142,0.438-0.25,0.892-0.32,1.359c-0.07,0.467-0.105,0.95-0.105,1.448c0,0.498,0.036,0.983,0.107,1.451
	c0.072,0.467,0.18,0.924,0.323,1.368c0.142,0.442,0.323,0.861,0.54,1.254c0.216,0.392,0.467,0.759,0.755,1.097
	c0.29,0.343,0.616,0.65,0.978,0.92h0.001c0.361,0.27,0.759,0.504,1.19,0.697c0.436,0.195,0.906,0.343,1.412,0.442
	c0.503,0.1,1.044,0.151,1.619,0.156l0.001,0.001c0.347,0,0.688-0.02,1.02-0.059c0.327-0.039,0.648-0.098,0.959-0.177
	c0.311-0.075,0.608-0.176,0.886-0.297v-0.001c0.283-0.123,0.547-0.266,0.792-0.43c0.248-0.167,0.471-0.359,0.666-0.575
	c0.122-0.135,0.232-0.277,0.333-0.429v1.526v0.122h0.122h2.43h0.122v-0.122V11.637v-0.121h-0.122H200.108z M200.073,24.135
	c0.001,0.319-0.017,0.634-0.058,0.944c-0.041,0.313-0.103,0.623-0.186,0.928v0.001c-0.082,0.302-0.186,0.59-0.314,0.861
	c-0.127,0.27-0.279,0.528-0.453,0.769c-0.175,0.241-0.377,0.456-0.602,0.647c-0.227,0.192-0.48,0.358-0.756,0.5
	c-0.279,0.142-0.587,0.25-0.923,0.323c-0.338,0.073-0.706,0.112-1.105,0.114c-0.383-0.002-0.741-0.039-1.072-0.109
	c-0.332-0.07-0.638-0.174-0.915-0.311c-0.281-0.139-0.538-0.3-0.767-0.484c-0.231-0.185-0.438-0.394-0.621-0.629
	c-0.182-0.237-0.343-0.488-0.478-0.754c-0.135-0.263-0.246-0.541-0.335-0.836c-0.089-0.298-0.155-0.602-0.199-0.912
	c-0.045-0.308-0.067-0.624-0.067-0.945v-0.001c-0.002-0.333,0.014-0.663,0.051-0.986c0.037-0.326,0.093-0.646,0.169-0.957
	c0.077-0.311,0.176-0.608,0.298-0.885c0.122-0.278,0.266-0.54,0.433-0.785v-0.001c0.332-0.49,0.775-0.879,1.323-1.167
	c0.274-0.143,0.58-0.252,0.917-0.326c0.342-0.073,0.716-0.112,1.119-0.114c0.408,0.002,0.788,0.039,1.135,0.11
	c0.347,0.071,0.666,0.176,0.953,0.314l0.001,0.001c0.286,0.135,0.546,0.298,0.779,0.484c0.233,0.187,0.441,0.401,0.62,0.637
	c0.182,0.239,0.34,0.495,0.474,0.769c0.134,0.271,0.242,0.56,0.326,0.864c0.084,0.308,0.15,0.628,0.193,0.955
	c0.042,0.319,0.061,0.647,0.06,0.98V24.135z"/> </symbol><symbol viewBox="0 0 24 24" id="icon-external"><title>external</title> <style type="text/css"> .button.external:hover #icon-external path { &amp;lt;!-- fill: #4a7e9a; --&amp;gt; } </style> <path id="svgstore78576d9f43df44cf18668e97462a679atest" fill="#ffffff" d="M23.959,1.657c-0.012-0.062-0.035-0.119-0.053-0.179c-0.02-0.069-0.036-0.139-0.064-0.206
	c-0.029-0.071-0.069-0.135-0.106-0.202c-0.028-0.051-0.05-0.104-0.083-0.153c-0.151-0.226-0.346-0.421-0.572-0.572
	c-0.049-0.033-0.102-0.055-0.153-0.083c-0.067-0.037-0.131-0.077-0.202-0.106C22.66,0.13,22.59,0.114,22.521,0.094
	c-0.06-0.018-0.117-0.041-0.178-0.053C22.209,0.014,22.075,0,21.939,0H7.515C6.377,0,5.454,0.923,5.454,2.061
	c0,1.138,0.923,2.061,2.061,2.061h9.45L0.604,20.482c-0.805,0.805-0.805,2.109,0,2.914C1.006,23.799,1.533,24,2.061,24
	c0.527,0,1.054-0.201,1.457-0.604L19.879,7.035v9.45c0,1.138,0.923,2.061,2.061,2.061c1.138,0,2.061-0.923,2.061-2.061V2.061
	C24,1.925,23.986,1.79,23.959,1.657z"/> </symbol><symbol viewBox="0 0 20 24" id="icon-logo"><title>logo</title><desc>Created with Sketch.</desc> <!-- Generator: Sketch 3.0.3 (7892) - http://www.bohemiancoding.com/sketch -->   <style> .edd-checkout #icon-logo path { fill: #072460; } </style>  <g id="svgstorec44956da76e39a26dc84adba87a65d1aPage-1" stroke="none" stroke-width="1" fill="none" fill-rule="evenodd" sketch:type="MSPage"> <path d="M9.35176471,12.2363636 L7.25388235,12.2363636 L7.25388235,10.8465455 L5.80682353,10.8465455 C5.48188235,10.8465455 5.21858824,10.5752727 5.21858824,10.2407273 C5.21858824,9.90593939 5.48188235,9.63466667 5.80682353,9.63466667 L7.25388235,9.63466667 L7.25388235,8.28145455 L5.80682353,8.28145455 C5.48188235,8.28145455 5.21858824,8.00993939 5.21858824,7.67539394 C5.21858824,7.34060606 5.48188235,7.06933333 5.80682353,7.06933333 L7.25388235,7.06933333 L7.25388235,5.64193939 L9.38752941,5.64193939 C11.4494118,5.64193939 12.6903529,6.39757576 12.9058824,8.20121212 L19.8654118,8.20121212 C19.6538824,2.97648485 16.4063529,0 9.672,0 L0,0 L0,23.7701818 L7.25388235,23.7701818 L7.25388235,17.3653333 L9.992,17.3653333 C15.9910588,17.3653333 19.5324706,14.6673939 19.8510588,9.65575758 L12.8905882,9.65575758 C12.6348235,11.3500606 11.4235294,12.2363636 9.35176471,12.2363636" id="svgstorec44956da76e39a26dc84adba87a65d1aImported-Layers" fill="#f3f6fd" sketch:type="MSShapeGroup"/> </g> </symbol><symbol viewBox="0 0 24 32" id="icon-padlock"><title>padlock</title> <g> <path fill="#072460" d="M0,32h24V12h-4V8c0-4.411-3.589-8-8-8C7.589,0,4,3.589,4,8v4H0V32z M10.667,20
		c0-0.735,0.598-1.333,1.333-1.333c0.735,0,1.333,0.598,1.333,1.333c0,0.491-0.27,0.917-0.667,1.148v3.519
		c0,0.368-0.299,0.667-0.667,0.667c-0.368,0-0.667-0.299-0.667-0.667v-3.519C10.937,20.917,10.667,20.491,10.667,20z M5.333,8
		c0-3.676,2.991-6.667,6.667-6.667S18.667,4.324,18.667,8v4H5.333V8z"/> </g> </symbol><symbol viewBox="0 0 328 48" id="icon-rcp"><title>rcp</title> <path fill="#ffffff" d="M0,11.877h9.926c6.631,0,10.315,2.695,10.315,8.043v0.145c0,3.614-1.912,5.633-4.57,6.66l6.06,10.493h-7.658
	l-5.141-9.073H7.235v9.073H0V11.877z M9.57,23.429c2.45,0,3.651-1.027,3.651-3.084v-0.141c0-2.057-1.275-2.873-3.609-2.873H7.235
	v6.097H9.57z"/> <path fill="#ffffff" d="M21.805,28.181v-0.286c0-5.952,4.429-9.711,10.033-9.711c5.066,0,9.421,2.906,9.421,9.57v1.664H28.221
	c0.174,2.446,1.598,3.866,3.866,3.866c2.086,0,2.972-0.96,3.22-2.198h5.952c-0.563,4.181-3.792,6.557-9.388,6.557
	C26.061,37.643,21.805,34.241,21.805,28.181z M35.101,25.838c-0.108-2.231-1.209-3.473-3.262-3.473
	c-1.921,0-3.229,1.242-3.543,3.473H35.101z"/> <path fill="#ffffff" d="M42.063,31.335h5.845c0.215,1.345,0.82,2.09,2.624,2.09c1.565,0,2.268-0.604,2.268-1.523
	c0-0.886-0.886-1.312-3.436-1.668c-4.959-0.637-7.053-2.09-7.053-5.952c0-4.114,3.651-6.097,7.939-6.097
	c4.57,0,7.765,1.56,8.187,5.989h-5.745c-0.248-1.242-0.919-1.842-2.368-1.842c-1.382,0-2.094,0.6-2.094,1.453
	c0,0.886,0.853,1.242,3.121,1.523c5.141,0.637,7.616,1.987,7.616,5.952c0,4.396-3.262,6.383-8.394,6.383
	C45.291,37.643,42.203,35.445,42.063,31.335z"/> <path fill="#ffffff" d="M61.409,31.261v-8.258h-2.235v-4.321h2.235V14.82h6.341v3.862h3.651v4.321h-3.651v7.658
	c0,1.345,0.671,1.95,1.879,1.95c0.712,0,1.242-0.108,1.805-0.319v4.818c-0.811,0.215-2.02,0.534-3.51,0.534
	C63.744,37.643,61.409,35.623,61.409,31.261z"/> <path fill="#ffffff" d="M73.529,18.682h6.341v3.684c1.176-2.765,3.121-3.97,5.994-3.932v5.919c-3.866-0.108-5.994,1.097-5.994,4.077
	v8.788h-6.341V18.682z"/> <path fill="#ffffff" d="M87.006,13.648c0-1.879,1.49-3.295,3.469-3.295c1.987,0,3.51,1.416,3.51,3.295s-1.523,3.262-3.51,3.262
	C88.497,16.91,87.006,15.527,87.006,13.648z M87.321,18.682h6.35v18.535h-6.35V18.682z"/> <path fill="#ffffff" d="M95.508,28.181v-0.286c0-6.167,4.429-9.711,9.893-9.711c4.537,0,8.717,1.983,9.073,7.62h-5.96
	c-0.281-1.738-1.134-2.695-2.972-2.695c-2.235,0-3.551,1.594-3.551,4.715v0.281c0,3.229,1.242,4.893,3.651,4.893
	c1.78,0,3.013-1.064,3.229-3.084h5.704c-0.174,4.677-3.328,7.728-9.322,7.728C99.722,37.643,95.508,34.419,95.508,28.181z"/> <path fill="#ffffff" d="M117.074,31.261v-8.258h-2.235v-4.321h2.235V14.82h6.341v3.862h3.651v4.321h-3.651v7.658
	c0,1.345,0.671,1.95,1.879,1.95c0.712,0,1.242-0.108,1.805-0.319v4.818c-0.811,0.215-2.02,0.534-3.51,0.534
	C119.408,37.643,117.074,35.623,117.074,31.261z"/> <path fill="#ffffff" d="M132.695,24.704v-0.281c0-7.798,5.53-12.935,12.939-12.935c6.59,0,11.159,3.046,11.764,9.744h-7.475
	c-0.29-2.587-1.705-4.003-4.255-4.003c-3.262,0-5.315,2.55-5.315,7.157v0.286c0,4.57,1.945,7.161,5.422,7.161
	c2.55,0,4.354-1.349,4.71-4.147h7.235c-0.497,6.557-5.249,9.959-11.805,9.959C137.058,37.643,132.695,32.469,132.695,24.704z"/> <path fill="#ffffff" d="M158.582,28.181v-0.286c0-5.952,4.429-9.711,10.174-9.711c5.704,0,10.1,3.651,10.1,9.533v0.286
	c0,6.023-4.429,9.64-10.141,9.64C163.011,37.643,158.582,34.171,158.582,28.181z M172.407,28.073v-0.286
	c0-3.117-1.242-4.855-3.651-4.855c-2.376,0-3.684,1.668-3.684,4.785v0.286c0,3.187,1.233,4.926,3.684,4.926
	C171.132,32.929,172.407,31.157,172.407,28.073z"/> <path fill="#ffffff" d="M180.677,18.682h6.341v2.976c0.993-1.912,3.013-3.473,6.101-3.473c3.576,0,6.06,2.231,6.06,6.983v12.049
	h-6.35V26.443c0-2.09-0.811-3.121-2.657-3.121c-1.879,0-3.154,1.134-3.154,3.51v10.385h-6.341V18.682z"/> <path fill="#ffffff" d="M202.549,31.261v-8.258h-2.235v-4.321h2.235V14.82h6.341v3.862h3.651v4.321h-3.651v7.658
	c0,1.345,0.671,1.95,1.879,1.95c0.712,0,1.242-0.108,1.805-0.319v4.818c-0.811,0.215-2.02,0.534-3.51,0.534
	C204.883,37.643,202.549,35.623,202.549,31.261z"/> <path fill="#ffffff" d="M213.277,28.181v-0.286c0-5.952,4.429-9.711,10.033-9.711c5.066,0,9.421,2.906,9.421,9.57v1.664h-13.039
	c0.174,2.446,1.598,3.866,3.866,3.866c2.086,0,2.972-0.96,3.22-2.198h5.952c-0.563,4.181-3.792,6.557-9.388,6.557
	C217.533,37.643,213.277,34.241,213.277,28.181z M226.564,25.838c-0.099-2.231-1.2-3.473-3.253-3.473
	c-1.921,0-3.229,1.242-3.551,3.473H226.564z"/> <path fill="#ffffff" d="M234.685,18.682h6.341v2.976c0.993-1.912,3.013-3.473,6.101-3.473c3.576,0,6.06,2.231,6.06,6.983v12.049
	h-6.35V26.443c0-2.09-0.811-3.121-2.657-3.121c-1.879,0-3.154,1.134-3.154,3.51v10.385h-6.341V18.682z"/> <path fill="#ffffff" d="M256.557,31.261v-8.258h-2.235v-4.321h2.235V14.82h6.341v3.862h3.651v4.321h-3.651v7.658
	c0,1.345,0.671,1.95,1.879,1.95c0.712,0,1.242-0.108,1.805-0.319v4.818c-0.811,0.215-2.02,0.534-3.51,0.534
	C258.892,37.643,256.557,35.623,256.557,31.261z"/> <path fill="#ffffff" d="M273.486,11.877h9.644c6.946,0,10.174,3.084,10.174,8.469v0.145c0,5.315-3.585,8.183-9.86,8.183h-2.724
	v8.543h-7.235V11.877z M282.808,23.715c2.343,0,3.585-1.101,3.585-3.191v-0.141c0-2.161-1.275-3.051-3.543-3.051h-2.128v6.383
	H282.808z"/> <path fill="#ffffff" d="M294.754,18.682h6.341v3.684c1.176-2.765,3.121-3.97,5.994-3.932v5.919
	c-3.866-0.108-5.994,1.097-5.994,4.077v8.788h-6.341V18.682z"/> <path fill="#ffffff" d="M307.726,28.181v-0.286c0-5.952,4.429-9.711,10.174-9.711c5.704,0,10.1,3.651,10.1,9.533v0.286
	c0,6.023-4.429,9.64-10.141,9.64C312.155,37.643,307.726,34.171,307.726,28.181z M321.551,28.073v-0.286
	c0-3.117-1.242-4.855-3.651-4.855c-2.376,0-3.684,1.668-3.684,4.785v0.286c0,3.187,1.233,4.926,3.684,4.926
	C320.276,32.929,321.551,31.157,321.551,28.073z"/> </symbol><symbol viewBox="0 0 32 32" id="icon-shopping-bag"><title>shopping-bag</title> <g> <path fill="#ffffff" d="M28.651,10.653H3.349c-0.368,0-0.666,0.298-0.666,0.666v19.975c0,0.368,0.298,0.666,0.666,0.666h25.301
		c0.368,0,0.666-0.298,0.666-0.666V11.319C29.316,10.951,29.018,10.653,28.651,10.653z"/> <path fill="#ffffff" d="M10.008,9.321c0.368,0,0.666-0.298,0.666-0.666V6.658c0-2.937,2.39-5.327,5.327-5.327
		c2.937,0,5.327,2.39,5.327,5.327v1.997c0,0.368,0.298,0.666,0.666,0.666c0.368,0,0.666-0.298,0.666-0.666V6.658
		C22.658,2.987,19.671,0,16,0c-3.672,0-6.658,2.987-6.658,6.658v1.997C9.342,9.024,9.64,9.321,10.008,9.321z"/> </g> </symbol><symbol viewBox="0 0 32 32" id="icon-spinner"><title>spinner</title> <g> <path fill="#FFFFFF" d="M0.179,18.971l3.227-5.581c0.053-0.092,0.114-0.179,0.187-0.255c0.223-0.246,0.531-0.405,0.868-0.434
		c0.434-0.033,0.857,0.139,1.137,0.471l4.285,5.109c0.473,0.564,0.399,1.405-0.165,1.878c-0.564,0.473-1.405,0.4-1.878-0.165
		L5.9,17.681c0.737,3.776,3.755,7.121,7.735,8.053c3.371,0.792,6.858-0.194,9.325-2.635c0.524-0.518,1.368-0.514,1.886,0.01
		c0.518,0.523,0.513,1.367-0.01,1.885c-2.414,2.387-5.597,3.675-8.89,3.674c-0.969,0-1.949-0.111-2.92-0.339
		c-4.807-1.126-8.504-5.068-9.619-9.616l-0.919,1.59c-0.247,0.428-0.695,0.666-1.156,0.666c-0.227,0-0.456-0.057-0.666-0.179
		C0.029,20.424-0.189,19.608,0.179,18.971z"/> <path fill="#FFFFFF" d="M22.114,13.189c0.564-0.472,1.405-0.399,1.878,0.165l2.296,2.74c-0.045-1.709-0.529-3.398-1.447-4.93
		c-1.482-2.473-3.903-4.259-6.644-4.901C14.603,5.42,10.853,6.619,8.409,9.39c-0.487,0.552-1.33,0.605-1.882,0.118
		C5.975,9.021,5.922,8.178,6.409,7.626c3.095-3.509,7.846-5.029,12.397-3.959c3.439,0.806,6.473,3.039,8.323,6.127
		c0.832,1.388,1.373,2.882,1.64,4.414l0.755-1.257c0.379-0.63,1.199-0.835,1.829-0.456c0.631,0.379,0.836,1.199,0.456,1.83
		l-3.413,5.682c-0.222,0.369-0.609,0.609-1.038,0.643c-0.035,0.003-0.07,0.004-0.104,0.004c-0.393,0-0.768-0.173-1.022-0.477
		l-4.283-5.109C21.476,14.503,21.549,13.662,22.114,13.189z"/> </g> </symbol><symbol viewBox="0 0 24 24" id="icon-support-2"><title>Slice 1</title><desc>Created with Sketch.</desc> <!-- Generator: Sketch 3.0.3 (7892) - http://www.bohemiancoding.com/sketch -->    <g id="svgstored583fccf4f945596963a55b1fee54d16Page-1" stroke="none" stroke-width="1" fill="none" fill-rule="evenodd" sketch:type="MSPage"> <g id="svgstored583fccf4f945596963a55b1fee54d16Imported-EPS" sketch:type="MSLayerGroup" fill="#072460"> <path d="M23.5,10 L22.808,10 C21.987,5.548 18.452,2.014 14,1.192 L14,0.5 C14,0.224 13.776,0 13.5,0 L10.5,0 C10.224,0 10,0.224 10,0.5 L10,1.192 C5.547,2.014 2.012,5.548 1.19,10 L0.5,10 C0.224,10 0,10.224 0,10.5 L0,13.5 C0,13.776 0.224,14 0.5,14 L1.19,14 C2.012,18.453 5.547,21.988 10,22.809 L10,23.5 C10,23.776 10.224,24 10.5,24 L13.5,24 C13.776,24 14,23.776 14,23.5 L14,22.809 C18.453,21.987 21.986,18.454 22.808,14 L23.5,14 C23.776,14 24,13.776 24,13.5 L24,10.5 C24,10.224 23.776,10 23.5,10 L23.5,10 Z M21.792,10 L17.118,10 C16.559,8.575 15.425,7.441 14,6.882 L14,2.208 C17.903,3.004 20.997,6.098 21.792,10 L21.792,10 Z M12,16.5 C9.519,16.5 7.5,14.481 7.5,12 C7.5,9.519 9.519,7.5 12,7.5 C14.481,7.5 16.5,9.519 16.5,12 C16.5,14.481 14.481,16.5 12,16.5 L12,16.5 Z M13,1 L13,6.595 C12.675,6.535 12.342,6.5 12,6.5 C11.659,6.5 11.325,6.536 11,6.596 L11,1 L13,1 L13,1 Z M10,2.208 L10,6.882 C8.576,7.441 7.441,8.575 6.882,10 L2.207,10 C3.002,6.098 6.097,3.004 10,2.208 L10,2.208 Z M1,11 L6.596,11 C6.536,11.325 6.5,11.658 6.5,12 C6.5,12.342 6.536,12.675 6.596,13 L1,13 L1,11 L1,11 Z M2.207,14 L6.883,14 C7.441,15.425 8.576,16.559 10,17.118 L10,21.792 C6.098,20.998 3.003,17.903 2.207,14 L2.207,14 Z M11,23 L11,17.404 C11.325,17.464 11.659,17.5 12,17.5 C12.342,17.5 12.675,17.465 13,17.404 L13,23 L11,23 L11,23 Z M14,21.792 L14,17.118 C15.425,16.559 16.559,15.425 17.118,14 L21.792,14 C20.997,17.903 17.903,20.998 14,21.792 L14,21.792 Z M23,13 L17.404,13 C17.464,12.675 17.5,12.342 17.5,12 C17.5,11.658 17.464,11.325 17.404,11 L23,11 L23,13 L23,13 Z" id="svgstored583fccf4f945596963a55b1fee54d16Imported-Layers" sketch:type="MSShapeGroup"/> </g> </g> </symbol><symbol viewBox="0 0 24 24" id="icon-support-3"><title>support-3</title> <path display="none" fill="#072460" d="M20.829,0.124c-0.107-0.094-0.245-0.137-0.396-0.12l-7.5,1C12.686,1.038,12.5,1.25,12.5,1.5
	V2H11H9.107L4.704,0.043c-0.25-0.111-0.547,0.002-0.66,0.254c-0.112,0.252,0.001,0.548,0.254,0.66L7.23,2.261
	C4.785,3.01,3,5.29,3,7.979V20.5C3,20.776,3.224,21,3.5,21S4,20.776,4,20.5V7.979C4,5.403,5.973,3.303,8.5,3.05v1.243
	C7.011,4.898,6,6.372,6,8v15.5C6,23.776,6.224,24,6.5,24h7c0.276,0,0.5-0.224,0.5-0.5V8c0-1.628-1.011-3.102-2.5-3.706V3h1v0.5
	c0,0.25,0.186,0.462,0.434,0.496l7.5,1C20.456,4.999,20.479,5,20.5,5c0.12,0,0.237-0.043,0.329-0.124C20.938,4.781,21,4.644,21,4.5
	v-4C21,0.356,20.938,0.219,20.829,0.124z M13,20h-2V10h2V20z M13,8v1h-2.5C10.224,9,10,9.224,10,9.5v11c0,0.276,0.224,0.5,0.5,0.5
	H13v2H7V8c0-1.317,0.881-2.498,2.143-2.873C9.355,5.063,9.5,4.869,9.5,4.647V3h1v1.647c0,0.221,0.146,0.416,0.357,0.479
	C12.119,5.502,13,6.684,13,8z M20,3.929l-6.5-0.867V1.938L20,1.071V3.929z"/> <g opacity="0.1"> <path fill="none" stroke="#072460" stroke-linecap="round" stroke-linejoin="round" stroke-miterlimit="10" d="M13,4.648V2.5h2
		v2.148c1.447,0.43,2.5,1.768,2.5,3.352v15.5h-7V8C10.5,6.416,11.556,5.078,13,4.648z"/> <path fill="none" stroke="#072460" stroke-linecap="round" stroke-linejoin="round" stroke-miterlimit="10" d="M19.5,0.5l-4.5,2
		h0.022c3.025,0,5.478,2.454,5.478,5.478V20.5"/> <polygon fill="none" stroke="#072460" stroke-linecap="round" stroke-linejoin="round" stroke-miterlimit="10" points="3.5,0.5 
		3.5,4.5 11,3.5 11,1.5 	"/> <line fill="none" stroke="#072460" stroke-linecap="round" stroke-linejoin="round" stroke-miterlimit="10" x1="13" y1="2.5" x2="11" y2="2.5"/> <polyline fill="none" stroke="#072460" stroke-linecap="round" stroke-linejoin="round" stroke-miterlimit="10" points="10.5,20.5 
		13.5,20.5 13.5,9.5 10.5,9.5 	"/> </g> </symbol><symbol viewBox="0 0 24 24" id="icon-support"><title>Slice 1</title><desc>Created with Sketch.</desc> <!-- Generator: Sketch 3.0.3 (7892) - http://www.bohemiancoding.com/sketch -->    <g id="svgstore63af8f01b6164876c8ca755dc226517dPage-1" stroke="none" stroke-width="1" fill="none" fill-rule="evenodd" sketch:type="MSPage"> <path d="M23.5,9 L22.581,9 C21.542,5.343 18.657,2.458 15,1.419 L15,0.5 C15,0.224 14.776,0 14.5,0 L9.5,0 C9.224,0 9,0.224 9,0.5 L9,1.419 C5.343,2.458 2.458,5.343 1.419,9 L0.5,9 C0.224,9 0,9.224 0,9.5 L0,14.5 C0,14.776 0.224,15 0.5,15 L1.419,15 C2.458,18.657 5.343,21.542 9,22.581 L9,23.5 C9,23.776 9.224,24 9.5,24 L14.5,24 C14.776,24 15,23.776 15,23.5 L15,22.581 C18.657,21.542 21.542,18.657 22.581,15 L23.5,15 C23.776,15 24,14.776 24,14.5 L24,9.5 C24,9.224 23.776,9 23.5,9 L23.5,9 Z M10,1 L14,1 L14,6.882 C13.379,6.639 12.706,6.5 12,6.5 C11.294,6.5 10.621,6.639 10,6.882 L10,1 L10,1 Z M6.882,14 L1,14 L1,10 L6.882,10 C6.639,10.621 6.5,11.294 6.5,12 C6.5,12.706 6.639,13.379 6.882,14 L6.882,14 Z M14,23 L10,23 L10,17.118 C10.621,17.362 11.294,17.5 12,17.5 C12.706,17.5 13.379,17.362 14,17.118 L14,23 L14,23 Z M12,16.5 C9.519,16.5 7.5,14.481 7.5,12 C7.5,9.519 9.519,7.5 12,7.5 C14.482,7.5 16.5,9.519 16.5,12 C16.5,14.481 14.482,16.5 12,16.5 L12,16.5 Z M23,14 L17.118,14 C17.362,13.379 17.5,12.706 17.5,12 C17.5,11.294 17.362,10.621 17.118,10 L23,10 L23,14 L23,14 Z" id="svgstore63af8f01b6164876c8ca755dc226517dImported-Layers" fill="#aaa" sketch:type="MSShapeGroup"/> </g> </symbol><symbol viewBox="0 0 32 32" id="icon-twitter"><title>twitter</title> <path id="svgstore190408ed624046dc05d79bc61e511f95bird" fill="#5FA9DD" d="M32,6.076c-1.177,0.522-2.443,0.875-3.771,1.034c1.356-0.812,2.397-2.099,2.887-3.632
	c-1.268,0.752-2.673,1.299-4.169,1.593c-1.198-1.276-2.904-2.073-4.792-2.073c-3.626,0-6.565,2.939-6.565,6.565
	c0,0.515,0.058,1.016,0.17,1.496C10.303,10.785,5.466,8.171,2.228,4.199c-0.565,0.97-0.889,2.097-0.889,3.301
	c0,2.278,1.159,4.287,2.921,5.464c-1.076-0.034-2.088-0.329-2.974-0.821c0,0.027-0.001,0.055-0.001,0.083
	c0,3.181,2.263,5.834,5.266,6.438c-0.551,0.15-1.131,0.23-1.73,0.23c-0.423,0-0.834-0.041-1.235-0.118
	c0.835,2.608,3.26,4.506,6.133,4.559c-2.247,1.761-5.078,2.81-8.154,2.81c-0.53,0-1.053-0.031-1.566-0.092
	c2.905,1.863,6.356,2.95,10.064,2.95c12.076,0,18.679-10.004,18.679-18.679c0-0.285-0.006-0.568-0.019-0.849
	C30.007,8.549,31.12,7.392,32,6.076z"/> </symbol></svg>