<svg xmlns:sketch="http://www.bohemiancoding.com/sketch/ns" xmlns:dc="http://purl.org/dc/elements/1.1/" xmlns:cc="http://creativecommons.org/ns#" xmlns:rdf="http://www.w3.org/1999/02/22-rdf-syntax-ns#" xmlns:svg="http://www.w3.org/2000/svg" xmlns="http://www.w3.org/2000/svg" xmlns:sodipodi="http://sodipodi.sourceforge.net/DTD/sodipodi-0.dtd" xmlns:inkscape="http://www.inkscape.org/namespaces/inkscape"><symbol viewBox="0 0 32 32" id="icon-announcement"><title>announcement</title> <g id="svgstoreadc332f87a6157569fac9e23b51544a5Outline_Icons"> <path d="M1.516,12.851L1.516,19.149" style="fill:none;stroke:#fff;stroke-width:2px;"/> <path d="M30.484,4.035L30.484,27.965" style="fill:none;stroke:#fff;stroke-width:2px;"/> <path d="M30.484,26.706L1.516,17.889L1.516,14.111L30.484,5.294L30.484,26.706Z" style="fill:none;stroke:#fff;stroke-width:2px;"/> <path d="M16.63,23.067C16.63,25.5 14.657,27.475 12.222,27.475C9.786,27.475 7.813,25.5 7.813,23.067L7.813,19.778" style="fill:none;stroke:#fff;stroke-width:2px;"/> </g> </symbol><symbol viewBox="0 0 184 69" id="icon-best-value"><title>best-value</title> <g> <path fill="#4A7E9A" d="M12.452,57.474c0.054,2.494-0.245,4.594-0.897,6.299c-0.896,2.372-2.419,3.58-4.568,3.626
		c-0.545,0.012-1.279-0.13-2.203-0.426c-0.723-0.243-1.445-0.484-2.167-0.728c-0.054,0.173-0.078,0.36-0.073,0.561
		c0.003,0.144,0.021,0.352,0.056,0.622c0.034,0.272,0.054,0.479,0.057,0.623c0.009,0.43-0.229,0.65-0.717,0.661
		c-0.488,0.01-0.894-0.182-1.218-0.576c-0.205-0.197-0.381-1.039-0.527-2.527c-0.111-1.173-0.174-2.089-0.188-2.749L0,62.603
		l0.302-24.012l0.603-0.013c0.401-0.009,0.785,0.191,1.152,0.598c0.367,0.409,0.556,0.828,0.564,1.257
		c0.023,1.061-0.079,2.641-0.307,4.739c-0.228,2.099-0.329,3.679-0.307,4.738c0.003,0.115,0.015,0.66,0.035,1.635
		c0.227-0.091,0.507-0.427,0.838-1.008c0.415-0.726,0.777-1.235,1.087-1.529c0.562-0.528,1.258-0.802,2.09-0.82
		c1.404-0.03,2.692,0.517,3.864,1.638c1.054,1.01,1.769,2.242,2.145,3.697C12.287,54.495,12.416,55.812,12.452,57.474z
		 M10.179,57.759c-0.039-1.782-0.259-3.316-0.658-4.602c-0.589-2-1.527-2.987-2.817-2.959c-1.577,0.034-2.799,1.225-3.666,3.573
		c-0.678,1.855-0.996,3.717-0.956,5.585c0.036,1.667,0.354,3.083,0.952,4.25c0.75,1.565,1.856,2.333,3.319,2.302
		c1.462-0.031,2.529-1.09,3.201-3.176C10.009,61.256,10.218,59.598,10.179,57.759z"/> <path fill="#4A7E9A" d="M27.314,62.445c0.027,1.263-0.795,2.412-2.464,3.452c-1.5,0.95-2.924,1.439-4.271,1.469
		c-3.842,0.082-5.814-2.313-5.919-7.187c-0.046-2.15,0.291-4.465,1.012-6.947c0.964-3.233,2.247-4.867,3.853-4.901
		c1.377-0.029,2.896,0.634,4.561,1.989c1.664,1.355,2.511,2.721,2.54,4.097c0.038,1.778-0.646,3.341-2.051,4.69
		s-3.011,2.044-4.816,2.082c-0.172,0.004-0.54-0.131-1.105-0.406c-0.565-0.274-0.948-0.41-1.148-0.406
		c-0.373,0.008-0.557,0.127-0.552,0.356c0.071,3.296,1.195,4.921,3.374,4.875c1.118-0.023,2.143-0.418,3.072-1.185
		c0.563-0.442,1.18-1.129,1.849-2.062c0.528-0.728,0.88-1.095,1.052-1.098C26.959,61.249,27.297,61.644,27.314,62.445z
		 M24.178,54.598c-0.021-1.003-0.329-1.936-0.92-2.798c-0.594-0.862-1.362-1.283-2.308-1.263c-1.147,0.024-2.063,0.762-2.749,2.21
		c-0.576,1.216-0.851,2.47-0.823,3.76c0.019,0.832,0.298,1.521,0.841,2.068c0.542,0.548,1.229,0.813,2.061,0.795
		c1.176-0.025,2.14-0.548,2.892-1.568C23.867,56.87,24.203,55.802,24.178,54.598z"/> <path fill="#4A7E9A" d="M41.801,63.891c0.021,1.006-0.721,1.87-2.225,2.592c-1.25,0.573-2.463,0.873-3.638,0.898
		c-0.774,0.017-1.667-0.153-2.679-0.507c-0.55-0.219-1.437-0.807-2.662-1.763c-1.342-1.04-2.017-1.763-2.025-2.168
		c-0.02-0.894,0.503-1.31,1.564-1.246l0.259-0.006c0.076,0.868,1.014,1.79,2.812,2.765c1.625,0.894,2.926,1.329,3.9,1.308
		c1.261-0.027,1.883-0.472,1.864-1.334c-0.012-0.517-0.801-1.219-2.369-2.105c-2.147-1.189-3.616-2.149-4.406-2.88
		c-1.61-1.489-2.436-3.225-2.478-5.208c-0.032-1.494,0.324-2.925,1.069-4.292c0.854-1.627,1.954-2.457,3.302-2.486
		c0.975-0.021,2.159,0.406,3.556,1.279c1.396,0.873,2.217,1.766,2.467,2.678c0.245,0.77,0.379,1.669,0.401,2.702
		c0.023,1.118-0.15,2.341-0.523,3.668c-0.253,0.206-0.553,0.312-0.896,0.32c-0.201,0.004-0.518-0.067-0.951-0.216
		c-0.433-0.148-0.651-0.309-0.655-0.481c0.002,0.115,0.152-0.203,0.452-0.956c0.219-0.492,0.315-1.383,0.287-2.673
		c-0.065-3.067-1.06-4.581-2.979-4.54c-1.004,0.021-1.792,0.715-2.365,2.078c-0.492,1.104-0.727,2.215-0.702,3.336
		c0.03,1.408,0.876,2.755,2.539,4.042c0.554,0.448,2.08,1.408,4.579,2.877C40.954,62.544,41.788,63.316,41.801,63.891z"/> <path fill="#4A7E9A" d="M50.852,52.648c-0.227,0.177-0.768,0.332-1.625,0.465c-0.943,0.135-1.486,0.247-1.628,0.336
		c-0.022,0.316-0.002,1.908,0.06,4.774c0.048,2.236,0.108,3.74,0.184,4.513c0.007,0.316,0.089,0.815,0.247,1.501
		c0.157,0.685,0.241,1.214,0.249,1.586c0.005,0.229-0.134,0.462-0.415,0.697c-0.282,0.235-0.538,0.355-0.768,0.36
		c-0.573,0.013-1.044-0.565-1.413-1.732c-0.248-0.855-0.38-1.67-0.396-2.444c-0.087-4.042-0.151-7.023-0.192-8.944
		c-0.171-0.14-0.813-0.125-1.928,0.042c-0.891,0.134-1.345-0.187-1.361-0.96c-0.023-1.089,1.126-1.616,3.45-1.581l0.393-7.795
		c-0.002-0.086-0.041-0.221-0.116-0.406c-0.076-0.185-0.114-0.321-0.116-0.407c-0.004-0.172,0.106-0.339,0.333-0.501
		c0.226-0.162,0.496-0.232,0.812-0.211c1.005,0.065,1.519,0.556,1.538,1.473c0.015,0.717-0.062,1.794-0.231,3.231
		c-0.171,1.438-0.248,2.501-0.233,3.189c0.008,0.344,0.043,0.673,0.107,0.987l2.362-0.179c0.802-0.017,1.21,0.29,1.224,0.92
		C51.396,52.021,51.218,52.382,50.852,52.648z"/> <path fill="#4A7E9A" d="M75.586,48.546c0.226,2.462-0.219,5.871-1.329,10.224c-1.187,4.844-2.497,7.281-3.93,7.312
		c-1.721,0.037-3.337-1.75-4.848-5.359c-0.937-2.188-1.737-4.781-2.404-7.779c-0.317-1.397-0.492-2.872-0.525-4.42
		c-0.005-0.229,0.112-0.468,0.351-0.717c0.238-0.248,0.473-0.376,0.702-0.381c0.344-0.007,0.865,0.269,1.566,0.827
		c-0.104,0.49-0.151,0.979-0.141,1.466c0.037,1.749,0.427,3.848,1.167,6.298c0.679,2.223,1.468,4.214,2.366,5.972
		c0.507,0.965,0.919,1.443,1.235,1.437c1.117-0.024,2.044-2.295,2.778-6.814c0.556-3.51,0.811-6.355,0.764-8.534
		c-0.004-0.172,0.128-0.361,0.396-0.567c0.268-0.206,0.502-0.312,0.703-0.316C75.154,47.179,75.537,47.63,75.586,48.546z"/> <path fill="#4A7E9A" d="M89.525,66.617c0.008,0.4-0.302,0.608-0.933,0.622c-0.688,0.015-1.109-0.264-1.267-0.833
		c-0.029-0.086-0.057-0.645-0.079-1.677c-0.006-0.286-0.054-0.515-0.144-0.685c-1.579,1.21-3.301,1.835-5.164,1.875
		c-1.29,0.027-2.545-0.305-3.765-0.995c-1.394-0.772-2.103-1.762-2.129-2.966c-0.024-1.175,0.768-2.339,2.378-3.492
		c1.468-1.064,2.833-1.61,4.095-1.637l4.256-0.091c0.168-0.176,0.248-0.479,0.238-0.908c-0.041-1.92-0.23-3.365-0.565-4.333
		c-0.55-1.623-1.585-2.418-3.104-2.386c-1.092,0.023-2.079,0.733-2.967,2.128c-0.805,1.28-1.193,2.493-1.169,3.639
		c0.001,0.058,0.003,0.144,0.005,0.258c0.003,0.115,0.005,0.187,0.005,0.215c0.005,0.229-0.107,0.346-0.337,0.351
		c-0.286,0.006-0.605-0.159-0.957-0.496c-0.352-0.336-0.529-0.634-0.535-0.892c-0.018-0.802,0.204-1.818,0.666-3.048
		c0.461-1.228,0.971-2.164,1.531-2.807c0.7-0.79,1.58-1.196,2.642-1.219c1.634-0.035,3.151,0.449,4.547,1.452
		c1.487,1.086,2.263,2.418,2.323,3.994L89.525,66.617z M87.099,59.829c-0.024-1.146-0.926-1.701-2.702-1.663
		c-1.404,0.03-2.633,0.301-3.682,0.811c-1.335,0.66-1.987,1.621-1.961,2.882c0.017,0.773,0.388,1.367,1.114,1.782
		c0.61,0.36,1.33,0.53,2.162,0.513c1.232-0.026,2.392-0.452,3.478-1.279C86.594,62.048,87.125,61.033,87.099,59.829z"/> <path fill="#4A7E9A" d="M95.724,64.806c0.016,0.746-0.378,1.127-1.18,1.145c-1.262,0.026-1.934-2.555-2.017-7.743l-0.285-19.311
		c-0.007-0.315-0.06-0.766-0.158-1.352c-0.099-0.585-0.151-1.021-0.157-1.309c0.535-0.413,0.991-0.624,1.363-0.632
		c0.401-0.009,0.805,0.126,1.213,0.404c0.407,0.278,0.615,0.618,0.624,1.019c0.006,0.287-0.057,0.661-0.19,1.123
		c-0.16,0.578-0.253,0.938-0.278,1.081c-0.303,1.958-0.415,4.684-0.34,8.182c0.121,5.648,0.165,8.372,0.132,8.171
		c0.161,3.524,0.447,6.17,0.858,7.94c0.002,0.086,0.071,0.278,0.206,0.576C95.65,64.398,95.72,64.634,95.724,64.806z"/> <path fill="#4A7E9A" d="M109.836,48.844c0.019,0.889-0.046,2.216-0.194,3.983s-0.209,3.295-0.181,4.586
		c0.011,0.516,0.082,1.497,0.214,2.942c0.13,1.446,0.203,2.484,0.217,3.115c0.027,1.262-0.1,2.023-0.381,2.288
		c-0.17,0.118-0.412,0.181-0.728,0.188c-0.631,0.014-1.067-0.25-1.308-0.79c-0.126-0.541-0.253-1.069-0.378-1.583
		c-0.805,1.296-2.206,2.129-4.205,2.5c-0.744,0.13-1.611-0.184-2.603-0.939c-0.903-0.672-1.505-1.35-1.806-2.034
		c-0.423-0.941-0.663-2.766-0.721-5.473l-0.201-9.373c-0.19-0.86,0.287-1.303,1.434-1.327c0.802-0.017,1.214,0.433,1.234,1.35
		c0.029,1.376,0.024,3.169-0.014,5.378c-0.025,2.811-0.03,4.603-0.014,5.377c-0.007,1.033,0.244,2.06,0.754,3.081
		c0.6,1.221,1.345,1.821,2.232,1.803c1.463-0.032,2.573-1.031,3.335-2.998c0.542-1.474,0.794-3.085,0.757-4.835l-0.121-5.633
		c-0.005-0.229-0.091-0.55-0.258-0.962c-0.166-0.412-0.252-0.747-0.258-1.005c-0.003-0.143,0.009-0.301,0.033-0.474
		c0.393-0.38,0.789-0.59,1.19-0.628C109.156,47.239,109.812,47.726,109.836,48.844z"/> <path fill="#4A7E9A" d="M124.624,60.357c0.026,1.262-0.795,2.412-2.465,3.452c-1.501,0.949-2.922,1.438-4.27,1.468
		c-3.842,0.083-5.815-2.312-5.92-7.187c-0.046-2.15,0.291-4.465,1.013-6.947c0.963-3.233,2.247-4.867,3.853-4.901
		c1.377-0.029,2.896,0.633,4.561,1.989c1.663,1.355,2.511,2.721,2.54,4.097c0.038,1.778-0.646,3.341-2.051,4.69
		c-1.406,1.349-3.011,2.044-4.817,2.083c-0.172,0.004-0.54-0.131-1.105-0.407c-0.564-0.274-0.947-0.41-1.147-0.406
		c-0.373,0.008-0.558,0.127-0.553,0.356c0.071,3.297,1.196,4.922,3.375,4.875c1.118-0.024,2.143-0.419,3.071-1.186
		c0.564-0.442,1.181-1.129,1.85-2.061c0.528-0.728,0.879-1.094,1.052-1.098C124.268,59.16,124.606,59.555,124.624,60.357z
		 M121.487,52.509c-0.021-1.003-0.329-1.936-0.921-2.799c-0.594-0.861-1.36-1.283-2.307-1.262c-1.147,0.024-2.064,0.762-2.749,2.21
		c-0.576,1.216-0.851,2.47-0.823,3.76c0.019,0.832,0.298,1.521,0.841,2.068c0.542,0.548,1.229,0.813,2.061,0.795
		c1.175-0.025,2.14-0.547,2.892-1.568C121.176,54.781,121.513,53.712,121.487,52.509z"/> </g> <path fill="#4A7E9A" d="M183.555,17.63L172.68,0.555C172.459,0.211,172.077,0,171.667,0s-0.792,0.211-1.013,0.555L159.78,17.63
	c-0.352,0.555-0.19,1.303,0.368,1.659s1.301,0.19,1.657-0.37l8.324-13.069c-0.394,19.297-4.862,33.304-13.316,41.631
	c-7.559,7.446-15.701,7.402-15.803,7.408c-0.009,0-0.019,0-0.028,0c-0.813,0-1.481,0.65-1.499,1.468
	c-0.018,0.828,0.64,1.514,1.468,1.532c0.017,0,0.049,0.001,0.097,0.001c1.065,0,9.682-0.255,17.795-8.196
	c9.105-8.911,13.898-23.703,14.287-43.964l8.401,13.19c0.356,0.56,1.099,0.727,1.657,0.37c0.359-0.23,0.555-0.619,0.555-1.015
	C183.742,18.054,183.681,17.831,183.555,17.63z"/> </symbol><symbol viewBox="0 0 32 32" id="icon-cancel"><title>cancel</title> <g> <g id="svgstore010e65227ec84020eb0a7a8ec62b2864Outline_Icons"> <path d="M4.303,4.5L27.303,27.5" style="fill:none;stroke:#fff;stroke-width:2px;"/> <path d="M27.303,4.5L4.303,27.5" style="fill:none;stroke:#fff;stroke-width:2px;"/> </g> </g> </symbol><symbol viewBox="0 0 32 32" id="icon-check"><title>check</title> <path fill="#FFFFFF" d="M31.418,3.858c-0.431-0.099-1.21-0.195-2.386-0.295c-1.206-0.101-1.95-0.111-2.345-0.035
	c-0.4,0.077-1.122,0.443-2.209,1.121c-1.055,0.661-2.672,1.963-4.805,3.87c-2.133,1.91-4.214,3.999-6.187,6.208
	c-1.838,2.057-3.64,4.25-5.363,6.525c-0.646-1.925-1.309-3.279-2.026-4.126c-0.806-0.956-1.538-1.497-2.234-1.657
	c-0.557-0.129-1.276-0.006-2.2,0.374c-0.949,0.389-1.501,0.892-1.638,1.496c-0.104,0.456,0.112,1.113,0.68,2.072
	c1.001,1.691,1.84,3.455,2.492,5.245c0.418,1.117,0.704,1.796,0.874,2.075c0.142,0.235,0.5,0.549,2.013,0.894
	c0.772,0.176,1.407,0.265,1.89,0.265c0.517,0,0.883-0.1,1.115-0.302c0.379-0.316,1.136-1.284,2.313-2.959
	c2.827-4.061,6.091-7.868,9.702-11.317c3.611-3.448,6.811-5.99,9.507-7.549c0.825-0.456,0.983-0.58,1.038-0.624
	c0.176-0.143,0.289-0.316,0.334-0.512C32.05,4.334,31.936,3.977,31.418,3.858z"/> </symbol><symbol viewBox="0 0 36 32" id="icon-comments"><title>comments</title> <path fill="#221F1F" d="M35.238,0H0.762C0.341,0,0,0.341,0,0.762v24.381c0,0.421,0.341,0.762,0.762,0.762h17.969l5.872,5.872
	C24.749,31.923,24.944,32,25.142,32c0.098,0,0.198-0.019,0.292-0.058c0.284-0.118,0.47-0.396,0.47-0.704v-5.333h9.334
	c0.421,0,0.762-0.341,0.762-0.762V0.762C36,0.341,35.659,0,35.238,0z M34.476,24.381h-9.334c-0.421,0-0.762,0.341-0.762,0.762v4.256
	l-4.795-4.795c-0.143-0.143-0.336-0.223-0.539-0.223H1.524V1.524h32.952V24.381z"/> </symbol><symbol viewBox="0 0 15 32" id="icon-connect-facebook"><title>connect-facebook</title> <g id="svgstoref4a90911c5f63683d3760f8303d06a5blayer1" transform="translate(-373.642,-318.344)"> <g id="svgstoref4a90911c5f63683d3760f8303d06a5bLayer_3" transform="matrix(1.7982054,0,0,1.8129643,376.63343,326.35613)"> <path id="svgstoref4a90911c5f63683d3760f8303d06a5bpath3336" fill="#FFFFFF" d="M3.805,13.231H0.158V4.405h-1.822V1.364h1.822v-1.826c0-2.481,1.029-3.957,3.952-3.957
			h2.433v3.042H5.022c-1.138,0-1.213,0.425-1.213,1.218L3.805,1.363H6.56L6.238,4.405H3.805V13.231z"/> </g> </g> </symbol><symbol viewBox="0 0 33 32" id="icon-connect-github"><title>connect-github</title> <path fill-rule="evenodd" clip-rule="evenodd" fill="#FFFFFF" d="M16.404,0C7.346,0,0,7.345,0,16.406
	c0,7.247,4.7,13.396,11.22,15.566c0.82,0.15,1.12-0.356,1.12-0.791c0-0.389-0.014-1.421-0.022-2.79
	c-4.563,0.991-5.526-2.199-5.526-2.199c-0.746-1.895-1.821-2.4-1.821-2.4c-1.489-1.018,0.113-0.997,0.113-0.997
	c1.646,0.116,2.513,1.691,2.513,1.691c1.463,2.507,3.84,1.783,4.774,1.363c0.149-1.06,0.573-1.783,1.042-2.193
	c-3.643-0.414-7.473-1.821-7.473-8.108c0-1.791,0.639-3.255,1.689-4.402C7.458,10.73,6.895,9.062,7.788,6.804
	c0,0,1.377-0.441,4.511,1.682c1.309-0.364,2.712-0.546,4.107-0.552c1.393,0.006,2.797,0.188,4.107,0.552
	c3.132-2.123,4.507-1.682,4.507-1.682c0.895,2.259,0.332,3.927,0.163,4.342c1.051,1.147,1.686,2.611,1.686,4.402
	c0,6.302-3.836,7.689-7.49,8.095c0.589,0.506,1.114,1.508,1.114,3.038c0,2.193-0.02,3.963-0.02,4.5c0,0.439,0.295,0.949,1.128,0.789
	c6.513-2.174,11.209-8.318,11.209-15.564C32.81,7.345,25.464,0,16.404,0z"/> </symbol><symbol viewBox="0 0 32 32" id="icon-connect-googleplus"><title>connect-googleplus</title> <g> <g> <path fill="#FFFFFF" d="M16.852,18.269l-1.501-1.165c-0.457-0.379-1.082-0.879-1.082-1.795c0-0.92,0.625-1.504,1.168-2.046
			c1.748-1.376,3.495-2.84,3.495-5.926c0-3.173-1.997-4.843-2.954-5.635h2.58L21.267,0h-8.205c-2.251,0-5.496,0.533-7.871,2.494
			C3.4,4.038,2.527,6.168,2.527,8.085c0,3.255,2.499,6.554,6.912,6.554c0.417,0,0.873-0.041,1.331-0.084
			c-0.206,0.501-0.414,0.919-0.414,1.628c0,1.293,0.664,2.085,1.25,2.836C9.73,19.148,6.23,19.356,3.65,20.942
			c-2.458,1.461-3.205,3.589-3.205,5.09c0,3.09,2.913,5.968,8.952,5.968c7.162,0,10.953-3.963,10.953-7.886
			C20.35,21.231,18.685,19.813,16.852,18.269z M11.397,13.47c-3.583,0-5.206-4.632-5.206-7.426c0-1.088,0.206-2.211,0.915-3.089
			c0.668-0.836,1.831-1.378,2.918-1.378c3.454,0,5.245,4.673,5.245,7.679c0,0.752-0.083,2.085-1.041,3.048
			C13.559,12.972,12.438,13.47,11.397,13.47z M11.439,30.251c-4.455,0-7.328-2.131-7.328-5.095c0-2.963,2.664-3.965,3.581-4.297
			c1.748-0.588,3.998-0.67,4.373-0.67c0.416,0,0.625,0,0.956,0.042c3.167,2.254,4.542,3.378,4.542,5.511
			C17.562,28.327,15.437,30.251,11.439,30.251z"/> <polygon fill="#FFFFFF" points="27.369,13.406 27.369,9.234 25.308,9.234 25.308,13.406 21.142,13.406 21.142,15.49 25.308,15.49 
			25.308,19.688 27.369,19.688 27.369,15.49 31.556,15.49 31.556,13.406 		"/> </g> </g> </symbol><symbol viewBox="0 0 32 32" id="icon-connect-rss"><title>connect-rss</title> <g id="svgstore11ddc129ccf517558e235987ca6c72earss_1_"> <path fill="#FFFFFF" d="M4.312,31.962c-2.347,0-4.249-1.9-4.249-4.247c0-2.345,1.902-4.247,4.249-4.247
		c2.343,0,4.249,1.902,4.249,4.247C8.561,30.062,6.655,31.962,4.312,31.962z M14.969,32c0-4.006-1.554-7.779-4.369-10.61
		c-2.811-2.826-6.532-4.384-10.537-4.384v-6.134c11.348,0,21.04,9.78,21.04,21.128H14.969z M25.805,32
		c0-14.263-11.724-25.868-25.742-25.868V0c17.354,0,31.874,14.355,31.874,32H25.805z"/> </g> </symbol><symbol viewBox="0 0 40 32" id="icon-connect-twitter"><title>connect-twitter</title> <path id="svgstore0f892c66dbb744604f0d6063eab1a341bird" fill="#FFFFFF" d="M39.378,3.788c-1.448,0.642-3.006,1.077-4.64,1.272c1.669-0.999,2.95-2.583,3.553-4.469
	c-1.56,0.925-3.289,1.598-5.13,1.96C31.686,0.981,29.587,0,27.264,0c-4.462,0-8.078,3.617-8.078,8.078
	c0,0.634,0.071,1.25,0.209,1.841C12.679,9.582,6.727,6.366,2.743,1.478C2.048,2.671,1.649,4.058,1.649,5.54
	c0,2.803,1.426,5.275,3.594,6.724c-1.324-0.042-2.569-0.405-3.66-1.01c0,0.033-0.001,0.068-0.001,0.102
	c0,3.914,2.785,7.179,6.48,7.922c-0.678,0.185-1.392,0.283-2.129,0.283c-0.521,0-1.026-0.05-1.52-0.145
	c1.027,3.209,4.012,5.545,7.547,5.61c-2.765,2.167-6.249,3.458-10.034,3.458c-0.652,0-1.296-0.038-1.927-0.113
	C3.575,30.662,7.821,32,12.384,32c14.86,0,22.985-12.31,22.985-22.985c0-0.351-0.007-0.699-0.023-1.045
	C36.926,6.831,38.295,5.407,39.378,3.788z"/> </symbol><symbol viewBox="0 0 38 32" id="icon-connect-vimeo"><title>connect-vimeo</title> <g id="svgstore7a40ef098761dc606dbffbf97f634e6dvimeo_1_"> <path fill="#FFFFFF" d="M29.5,22.194C24.457,28.732,20.192,32,16.701,32c-2.16,0-3.988-1.995-5.482-5.982
		c-1-3.657-1.995-7.315-2.995-10.972C7.117,11.06,5.925,9.065,4.653,9.065c-0.277,0-1.248,0.581-2.91,1.745L0,8.567
		c1.829-1.606,3.626-3.214,5.398-4.822c2.439-2.105,4.268-3.211,5.488-3.324c2.878-0.275,4.651,1.691,5.317,5.903
		c0.719,4.542,1.216,7.366,1.498,8.475c0.829,3.768,1.743,5.65,2.741,5.65c0.777,0,1.937-1.218,3.488-3.655
		c1.554-2.439,2.383-4.292,2.495-5.567c0.221-2.106-0.613-3.16-2.495-3.16c-0.885,0-1.802,0.196-2.743,0.583
		c1.829-5.927,5.319-8.81,10.472-8.644c3.824,0.11,5.621,2.576,5.4,7.396C36.896,11.004,34.376,15.934,29.5,22.194z"/> </g> </symbol><symbol viewBox="0 0 46 32" id="icon-connect-youtube"><title>connect-youtube</title> <g> <path id="svgstorec27d67edc7b846c86766821ab3364773The_Sharpness" opacity="0.12" fill-rule="evenodd" clip-rule="evenodd" fill="#FFFFFF" d="M18.05,9.118l10.781,7.199
		l1.513-0.785L18.05,9.118z"/> <g id="svgstorec27d67edc7b846c86766821ab3364773Lozenge"> <g> <path fill="#FFFFFF" d="M45.043,6.903c0,0-0.445-3.135-1.809-4.516c-1.73-1.812-3.669-1.821-4.559-1.927
				C32.309,0,22.759,0,22.759,0h-0.02c0,0-9.55,0-15.917,0.46C5.932,0.566,3.994,0.575,2.263,2.387
				C0.899,3.768,0.455,6.903,0.455,6.903S0,10.585,0,14.267v3.452c0,3.682,0.455,7.364,0.455,7.364s0.444,3.135,1.808,4.516
				c1.731,1.812,4.004,1.755,5.017,1.945C10.92,31.892,22.749,32,22.749,32s9.56-0.014,15.927-0.475
				c0.889-0.106,2.829-0.115,4.559-1.927c1.364-1.381,1.809-4.516,1.809-4.516s0.454-3.682,0.454-7.364v-3.452
				C45.497,10.585,45.043,6.903,45.043,6.903z M18.052,21.901L18.05,9.118l12.294,6.414L18.052,21.901z"/> </g> </g> </g> </symbol><symbol viewBox="0 0 32 32" id="icon-discount"><title>discount</title> <g> <path fill="#072460" d="M14.667,22.667H14c-0.368,0-0.667,0.298-0.667,0.667C13.333,23.702,13.631,24,14,24h0.667
		c0.368,0,0.667-0.298,0.667-0.667C15.333,22.965,15.035,22.667,14.667,22.667z"/> <path fill="#072460" d="M27.758,22.667h-1.454c-0.368,0-0.667,0.298-0.667,0.667c0,0.368,0.298,0.667,0.667,0.667h1.454
		c0.368,0,0.667-0.298,0.667-0.667C28.424,22.965,28.126,22.667,27.758,22.667z"/> <path fill="#072460" d="M23.393,22.667h-1.454c-0.368,0-0.667,0.298-0.667,0.667c0,0.368,0.298,0.667,0.667,0.667h1.454
		c0.368,0,0.667-0.298,0.667-0.667C24.06,22.965,23.762,22.667,23.393,22.667z"/> <path fill="#072460" d="M19.03,22.667h-1.454c-0.368,0-0.667,0.298-0.667,0.667c0,0.368,0.298,0.667,0.667,0.667h1.454
		c0.368,0,0.667-0.298,0.667-0.667C19.696,22.965,19.398,22.667,19.03,22.667z"/> <path fill="#072460" d="M31.333,22.667h-0.667c-0.368,0-0.667,0.298-0.667,0.667C30,23.702,30.298,24,30.666,24h0.667
		C31.702,24,32,23.702,32,23.333C32,22.965,31.702,22.667,31.333,22.667z"/> <path fill="#072460" d="M14.082,21.133c0.131,0.134,0.303,0.201,0.477,0.201c0.168,0,0.337-0.064,0.466-0.19
		c0.263-0.258,0.268-0.68,0.01-0.943c-0.881-0.901-1.678-1.902-2.379-2.971l10.435,4.058c0.342,0.133,0.729-0.036,0.863-0.379
		c0.134-0.344-0.036-0.73-0.379-0.863l-10.413-4.049l18.416-7.258C31.827,8.64,31.992,8.403,32,8.136
		c0.007-0.267-0.146-0.512-0.388-0.624C29.427,6.509,27.09,6,24.667,6C19.06,6,14.22,9.718,11.219,14.61
		c-1.195-2.554-1.885-5.311-1.885-7.943C9.333,4.094,7.24,2,4.667,2S0,4.094,0,6.667s2.094,4.667,4.667,4.667
		c1.459,0,2.747-0.687,3.604-1.739c0.36,2.19,1.087,4.385,2.149,6.428c-1.053,2.031-1.795,4.203-2.156,6.375
		c-0.857-1.048-2.142-1.731-3.598-1.731C2.094,20.667,0,22.76,0,25.333S2.094,30,4.667,30s4.667-2.094,4.667-4.667
		c0-2.628,0.692-5.384,1.878-7.934C12.039,18.749,12.992,20.018,14.082,21.133z M24.667,7.333c1.672,0,3.297,0.263,4.853,0.783
		L12.64,14.768C15.42,10.5,19.726,7.333,24.667,7.333z M4.667,10c-1.838,0-3.333-1.495-3.333-3.333s1.495-3.333,3.333-3.333
		S8,4.829,8,6.667S6.505,10,4.667,10z M4.667,28.667c-1.838,0-3.333-1.495-3.333-3.333S2.829,22,4.667,22S8,23.495,8,25.333
		S6.505,28.667,4.667,28.667z"/> </g> </symbol><symbol viewBox="0 0 24 24" id="icon-docs"><title>docs</title> <g opacity="0.1"> <path fill="none" stroke="#202B5D" stroke-width="1.0928" stroke-linecap="round" stroke-linejoin="round" stroke-miterlimit="10" d="
		M19.057,11.454c0-3.621-2.937-6.557-6.557-6.557c-3.622,0-6.557,2.936-6.557,6.557c0,3.054,2.09,5.614,4.918,6.342v1.307h3.278
		v-1.307C16.965,17.067,19.057,14.508,19.057,11.454z"/> <line fill="none" stroke="#202B5D" stroke-width="1.0928" stroke-linecap="round" stroke-linejoin="round" stroke-miterlimit="10" x1="13.047" y1="23.475" x2="11.954" y2="23.475"/> <line fill="none" stroke="#202B5D" stroke-width="1.0928" stroke-linecap="round" stroke-linejoin="round" stroke-miterlimit="10" x1="14.14" y1="21.289" x2="10.861" y2="21.289"/> <line fill="none" stroke="#202B5D" stroke-width="1.0928" stroke-linecap="round" stroke-linejoin="round" stroke-miterlimit="10" x1="12.5" y1="0.525" x2="12.5" y2="2.711"/> <line fill="none" stroke="#202B5D" stroke-width="1.0928" stroke-linecap="round" stroke-linejoin="round" stroke-miterlimit="10" x1="23.429" y1="11.454" x2="21.243" y2="11.454"/> <line fill="none" stroke="#202B5D" stroke-width="1.0928" stroke-linecap="round" stroke-linejoin="round" stroke-miterlimit="10" x1="1.572" y1="11.454" x2="3.758" y2="11.454"/> <line fill="none" stroke="#202B5D" stroke-width="1.0928" stroke-linecap="round" stroke-linejoin="round" stroke-miterlimit="10" x1="3.999" y1="2.954" x2="6.317" y2="5.273"/> <line fill="none" stroke="#202B5D" stroke-width="1.0928" stroke-linecap="round" stroke-linejoin="round" stroke-miterlimit="10" x1="21" y1="2.954" x2="18.681" y2="5.273"/> </g> </symbol><symbol viewBox="0 0 24 24" id="icon-external"><title>external</title> <style type="text/css"> .button.external:hover #icon-external path { <!-- fill: #4a7e9a; --> } </style> <path id="svgstoref81d4c8871b056cd097658c38dcba521test" fill="#ffffff" d="M23.959,1.657c-0.012-0.062-0.035-0.119-0.053-0.179c-0.02-0.069-0.036-0.139-0.064-0.206
	c-0.029-0.071-0.069-0.135-0.106-0.202c-0.028-0.051-0.05-0.104-0.083-0.153c-0.151-0.226-0.346-0.421-0.572-0.572
	c-0.049-0.033-0.102-0.055-0.153-0.083c-0.067-0.037-0.131-0.077-0.202-0.106C22.66,0.13,22.59,0.114,22.521,0.094
	c-0.06-0.018-0.117-0.041-0.178-0.053C22.209,0.014,22.075,0,21.939,0H7.515C6.377,0,5.454,0.923,5.454,2.061
	c0,1.138,0.923,2.061,2.061,2.061h9.45L0.604,20.482c-0.805,0.805-0.805,2.109,0,2.914C1.006,23.799,1.533,24,2.061,24
	c0.527,0,1.054-0.201,1.457-0.604L19.879,7.035v9.45c0,1.138,0.923,2.061,2.061,2.061c1.138,0,2.061-0.923,2.061-2.061V2.061
	C24,1.925,23.986,1.79,23.959,1.657z"/> </symbol><symbol viewBox="0 0 35 32" id="icon-heart"><title>heart</title> <g id="svgstore294544d9f2bc448536a5714d81417aa0heart_x5F_empty_1_" display="none"> <path id="svgstore294544d9f2bc448536a5714d81417aa0heart_x5F_empty" display="inline" fill="#EA284E" d="M17.542,4.552C11.612-4.53,0,1.423,0,9.799
		C0,16.258,10.097,21.821,17.542,32c7.445-10.179,17.542-15.742,17.542-22.201C35.085,1.423,23.841-4.53,17.542,4.552z
		 M17.542,26.04c-2.289-2.645-4.668-4.976-6.775-7.039c-3.797-3.715-7.045-6.897-7.045-9.202c0-3.478,3.237-6.077,6.133-6.077
		c1.789,0,3.327,0.964,4.569,2.866l3.024,4.631l3.152-4.546c1.338-1.931,2.995-2.952,4.79-2.952c2.818,0,5.971,2.598,5.971,6.077
		c0,2.305-3.251,5.486-7.015,9.17C22.21,21.064,19.828,23.395,17.542,26.04z"/> </g> <g> <g> <path fill="#EA284E" d="M9.879,0.023l0,3c2.022,0,3.811,1.104,5.175,3.192l2.437,3.732l2.54-3.663
			c1.48-2.134,3.342-3.262,5.385-3.262c3.503,0,6.692,3.241,6.692,6.799c0,2.609-3.351,5.889-7.231,9.687
			c-2.316,2.267-4.864,4.761-7.311,7.667c-2.447-2.905-4.995-5.399-7.311-7.667c-3.88-3.798-7.231-7.079-7.231-9.687
			c0-1.748,0.756-3.442,2.129-4.769c1.335-1.29,3.058-2.03,4.726-2.03L9.879,0.023 M25.416,0.023c-2.757,0-5.615,1.329-7.85,4.552
			c-2.104-3.222-4.924-4.552-7.686-4.552C4.856,0.023,0.023,4.418,0.023,9.822c0,6.459,10.097,12.022,17.542,22.201
			c7.445-10.179,17.542-15.742,17.542-22.201C35.108,4.419,30.428,0.023,25.416,0.023L25.416,0.023z"/> </g> </g> </symbol><symbol viewBox="0 0 20 24" id="icon-logo-checkout"><title>logo</title><desc>Created with Sketch.</desc>   <g id="svgstore0f837d2eec70a063a02341e4226f4cefPage-1" sketch:type="MSPage"> <path id="svgstore0f837d2eec70a063a02341e4226f4cefImported-Layers" sketch:type="MSShapeGroup" fill="#072460" d="M9.352,12.236H7.254v-1.39H5.807
		c-0.325,0-0.588-0.271-0.588-0.606c0-0.335,0.263-0.606,0.588-0.606h1.447V8.281H5.807c-0.325,0-0.588-0.272-0.588-0.606
		c0-0.335,0.263-0.606,0.588-0.606h1.447V5.642h2.134c2.062,0,3.303,0.756,3.518,2.559h6.96C19.654,2.976,16.406,0,9.672,0H0v23.77
		h7.254v-6.405h2.738c5.999,0,9.54-2.698,9.859-7.71h-6.96C12.635,11.35,11.424,12.236,9.352,12.236"/> </g> </symbol><symbol viewBox="0 0 20 24" id="icon-logo"><title>logo</title><desc>Created with Sketch.</desc> <!-- Generator: Sketch 3.0.3 (7892) - http://www.bohemiancoding.com/sketch -->   <!-- <style>
	.edd-checkout #icon-logo path {
		fill: #072460;
	}
</style> -->  <g id="svgstore54e9a70cddd558632d5ab0b0b1fcceecPage-1" stroke="none" stroke-width="1" fill="none" fill-rule="evenodd" sketch:type="MSPage"> <path d="M9.35176471,12.2363636 L7.25388235,12.2363636 L7.25388235,10.8465455 L5.80682353,10.8465455 C5.48188235,10.8465455 5.21858824,10.5752727 5.21858824,10.2407273 C5.21858824,9.90593939 5.48188235,9.63466667 5.80682353,9.63466667 L7.25388235,9.63466667 L7.25388235,8.28145455 L5.80682353,8.28145455 C5.48188235,8.28145455 5.21858824,8.00993939 5.21858824,7.67539394 C5.21858824,7.34060606 5.48188235,7.06933333 5.80682353,7.06933333 L7.25388235,7.06933333 L7.25388235,5.64193939 L9.38752941,5.64193939 C11.4494118,5.64193939 12.6903529,6.39757576 12.9058824,8.20121212 L19.8654118,8.20121212 C19.6538824,2.97648485 16.4063529,0 9.672,0 L0,0 L0,23.7701818 L7.25388235,23.7701818 L7.25388235,17.3653333 L9.992,17.3653333 C15.9910588,17.3653333 19.5324706,14.6673939 19.8510588,9.65575758 L12.8905882,9.65575758 C12.6348235,11.3500606 11.4235294,12.2363636 9.35176471,12.2363636" id="svgstore54e9a70cddd558632d5ab0b0b1fcceecImported-Layers" fill="#f3f6fd" sketch:type="MSShapeGroup"/> </g> </symbol><symbol viewBox="0 0 24 32" id="icon-padlock"><title>padlock</title> <g> <path fill="#072460" d="M0,32h24V12h-4V8c0-4.411-3.589-8-8-8C7.589,0,4,3.589,4,8v4H0V32z M10.667,20
		c0-0.735,0.598-1.333,1.333-1.333c0.735,0,1.333,0.598,1.333,1.333c0,0.491-0.27,0.917-0.667,1.148v3.519
		c0,0.368-0.299,0.667-0.667,0.667c-0.368,0-0.667-0.299-0.667-0.667v-3.519C10.937,20.917,10.667,20.491,10.667,20z M5.333,8
		c0-3.676,2.991-6.667,6.667-6.667S18.667,4.324,18.667,8v4H5.333V8z"/> </g> </symbol><symbol viewBox="0 0 32 32" id="icon-plus"><title>plus</title> <path fill="#FFFFFF" d="M30.667,14.667H17.349l0.013-13.332C17.362,0.598,16.766,0.001,16.03,0h-0.001
	c-0.736,0-1.333,0.596-1.333,1.332l-0.013,13.335H1.333C0.597,14.667,0,15.264,0,16c0,0.736,0.597,1.333,1.333,1.333h13.346
	l-0.013,13.332c-0.001,0.736,0.596,1.334,1.332,1.335H16c0.736,0,1.333-0.596,1.334-1.332l0.013-13.335h13.321
	C31.403,17.333,32,16.736,32,16C32,15.264,31.403,14.667,30.667,14.667z"/> </symbol><symbol viewBox="0 0 32 32" id="icon-remove"><title>remove</title> <style> .edd-remove-from-cart:hover path { fill: #373737; } </style> <g> <path fill="#22acda" d="M17.86,15.999l4.114-4.114c0.568-0.568,0.568-1.489,0.001-2.057c-0.568-0.568-1.491-0.568-2.057,0
		l-4.115,4.114L11.689,9.83c-0.568-0.568-1.489-0.568-2.057,0s-0.568,1.489,0,2.057L13.745,16l-4.114,4.114
		c-0.568,0.568-0.568,1.49,0,2.057c0.284,0.284,0.656,0.426,1.029,0.426s0.744-0.142,1.029-0.425l4.114-4.114l4.114,4.114
		c0.284,0.283,0.657,0.425,1.029,0.425s0.745-0.142,1.029-0.425c0.567-0.568,0.567-1.49,0-2.058L17.86,15.999z"/> <path fill="#22acda" d="M16,0C7.178,0,0,7.178,0,16c0,8.823,7.178,16,16,16c8.823,0,16-7.177,16-16C32,7.178,24.823,0,16,0z
		 M16,29.092C8.782,29.092,2.909,23.219,2.909,16S8.782,2.909,16,2.909S29.092,8.782,29.092,16S23.219,29.092,16,29.092z"/> </g> </symbol><symbol viewBox="0 0 32 32" id="icon-renew"><title>renew</title> <g> <path fill="#072460" d="M9.248,13.672c-0.287-0.241-0.716-0.203-0.956,0.086l-3.428,4.105c-0.339-2.44,0.159-4.923,1.467-7.114
		c1.599-2.68,4.212-4.619,7.169-5.317c3.898-0.923,7.976,0.371,10.638,3.375c0.248,0.28,0.677,0.304,0.957,0.058
		c0.281-0.249,0.308-0.677,0.058-0.958c-2.992-3.38-7.577-4.834-11.966-3.797c-3.312,0.783-6.237,2.95-8.022,5.944
		c-1.213,2.034-1.798,4.293-1.754,6.565l-2.168-3.229c-0.208-0.311-0.631-0.395-0.942-0.185c-0.311,0.209-0.394,0.63-0.185,0.942
		l3.783,5.634c0.119,0.178,0.315,0.289,0.528,0.3c0.012,0.001,0.024,0.001,0.036,0.001c0.201,0,0.392-0.089,0.521-0.244l4.351-5.209
		C9.574,14.34,9.535,13.912,9.248,13.672z"/> <path fill="#072460" d="M31.885,19.228l-3.782-5.635c-0.119-0.177-0.314-0.288-0.528-0.3c-0.155-0.001-0.302,0.059-0.429,0.15
		c-0.027,0.016-0.049,0.034-0.073,0.053c-0.016,0.016-0.04,0.022-0.055,0.04l-0.069,0.082c-0.008,0.011-0.018,0.019-0.025,0.03
		l-4.258,5.097c-0.24,0.288-0.201,0.716,0.086,0.956c0.288,0.24,0.717,0.203,0.956-0.086l3.265-3.909
		c0.118,4.912-3.466,9.677-8.476,10.86c-3.659,0.868-7.448-0.196-10.132-2.842c-0.266-0.262-0.697-0.26-0.96,0.008
		c-0.263,0.266-0.26,0.696,0.007,0.96c2.327,2.293,5.391,3.529,8.558,3.528c0.943,0,1.894-0.109,2.84-0.333
		c5.484-1.294,9.357-6.177,9.531-11.504l2.417,3.6c0.131,0.196,0.346,0.301,0.563,0.301c0.131,0,0.262-0.037,0.378-0.115
		C32.01,19.961,32.094,19.538,31.885,19.228z"/> </g> </symbol><symbol viewBox="0 0 32 32" id="icon-share"><title>share</title> <g id="svgstore62379f309c524a49fd9adc09c525f3fashare_x5F_alt"> <path fill="#FFFFFF" d="M26.75,21.818c-1.315,0-2.503,0.511-3.406,1.331l-9.327-5.501c0.125-0.531,0.21-1.077,0.21-1.648
		c0-0.588-0.091-1.151-0.226-1.697l9.3-5.486c0.909,0.84,2.114,1.365,3.449,1.365c2.812,0,5.091-2.278,5.091-5.091S29.562,0,26.75,0
		c-2.813,0-5.091,2.278-5.091,5.091c0,0.423,0.067,0.828,0.165,1.222l-9.097,5.364c-1.301-1.685-3.318-2.79-5.614-2.79
		C3.185,8.886,0,12.07,0,16s3.185,7.114,7.114,7.114c2.312,0,4.347-1.121,5.646-2.83l9.078,5.354
		c-0.105,0.409-0.179,0.83-0.179,1.271c0,2.813,2.278,5.091,5.091,5.091c2.812,0,5.091-2.278,5.091-5.091
		S29.562,21.818,26.75,21.818z"/> </g> </symbol><symbol viewBox="0 0 32 32" id="icon-shopping-bag"><title>shopping-bag</title> <g> <path fill="#ffffff" d="M28.651,10.653H3.349c-0.368,0-0.666,0.298-0.666,0.666v19.975c0,0.368,0.298,0.666,0.666,0.666h25.301
		c0.368,0,0.666-0.298,0.666-0.666V11.319C29.316,10.951,29.018,10.653,28.651,10.653z"/> <path fill="#ffffff" d="M10.008,9.321c0.368,0,0.666-0.298,0.666-0.666V6.658c0-2.937,2.39-5.327,5.327-5.327
		c2.937,0,5.327,2.39,5.327,5.327v1.997c0,0.368,0.298,0.666,0.666,0.666c0.368,0,0.666-0.298,0.666-0.666V6.658
		C22.658,2.987,19.671,0,16,0c-3.672,0-6.658,2.987-6.658,6.658v1.997C9.342,9.024,9.64,9.321,10.008,9.321z"/> </g> </symbol><symbol viewBox="0 0 32 32" id="icon-spinner"><title>spinner</title> <g> <path fill="#FFFFFF" d="M0.179,18.971l3.227-5.581c0.053-0.092,0.114-0.179,0.187-0.255c0.223-0.246,0.531-0.405,0.868-0.434
		c0.434-0.033,0.857,0.139,1.137,0.471l4.285,5.109c0.473,0.564,0.399,1.405-0.165,1.878c-0.564,0.473-1.405,0.4-1.878-0.165
		L5.9,17.681c0.737,3.776,3.755,7.121,7.735,8.053c3.371,0.792,6.858-0.194,9.325-2.635c0.524-0.518,1.368-0.514,1.886,0.01
		c0.518,0.523,0.513,1.367-0.01,1.885c-2.414,2.387-5.597,3.675-8.89,3.674c-0.969,0-1.949-0.111-2.92-0.339
		c-4.807-1.126-8.504-5.068-9.619-9.616l-0.919,1.59c-0.247,0.428-0.695,0.666-1.156,0.666c-0.227,0-0.456-0.057-0.666-0.179
		C0.029,20.424-0.189,19.608,0.179,18.971z"/> <path fill="#FFFFFF" d="M22.114,13.189c0.564-0.472,1.405-0.399,1.878,0.165l2.296,2.74c-0.045-1.709-0.529-3.398-1.447-4.93
		c-1.482-2.473-3.903-4.259-6.644-4.901C14.603,5.42,10.853,6.619,8.409,9.39c-0.487,0.552-1.33,0.605-1.882,0.118
		C5.975,9.021,5.922,8.178,6.409,7.626c3.095-3.509,7.846-5.029,12.397-3.959c3.439,0.806,6.473,3.039,8.323,6.127
		c0.832,1.388,1.373,2.882,1.64,4.414l0.755-1.257c0.379-0.63,1.199-0.835,1.829-0.456c0.631,0.379,0.836,1.199,0.456,1.83
		l-3.413,5.682c-0.222,0.369-0.609,0.609-1.038,0.643c-0.035,0.003-0.07,0.004-0.104,0.004c-0.393,0-0.768-0.173-1.022-0.477
		l-4.283-5.109C21.476,14.503,21.549,13.662,22.114,13.189z"/> </g> </symbol><symbol viewBox="0 0 24 24" id="icon-support-2"><title>Slice 1</title><desc>Created with Sketch.</desc> <!-- Generator: Sketch 3.0.3 (7892) - http://www.bohemiancoding.com/sketch -->    <g id="svgstore03b1a28fdae523339f44465631f4fedbPage-1" stroke="none" stroke-width="1" fill="none" fill-rule="evenodd" sketch:type="MSPage"> <g id="svgstore03b1a28fdae523339f44465631f4fedbImported-EPS" sketch:type="MSLayerGroup" fill="#072460"> <path d="M23.5,10 L22.808,10 C21.987,5.548 18.452,2.014 14,1.192 L14,0.5 C14,0.224 13.776,0 13.5,0 L10.5,0 C10.224,0 10,0.224 10,0.5 L10,1.192 C5.547,2.014 2.012,5.548 1.19,10 L0.5,10 C0.224,10 0,10.224 0,10.5 L0,13.5 C0,13.776 0.224,14 0.5,14 L1.19,14 C2.012,18.453 5.547,21.988 10,22.809 L10,23.5 C10,23.776 10.224,24 10.5,24 L13.5,24 C13.776,24 14,23.776 14,23.5 L14,22.809 C18.453,21.987 21.986,18.454 22.808,14 L23.5,14 C23.776,14 24,13.776 24,13.5 L24,10.5 C24,10.224 23.776,10 23.5,10 L23.5,10 Z M21.792,10 L17.118,10 C16.559,8.575 15.425,7.441 14,6.882 L14,2.208 C17.903,3.004 20.997,6.098 21.792,10 L21.792,10 Z M12,16.5 C9.519,16.5 7.5,14.481 7.5,12 C7.5,9.519 9.519,7.5 12,7.5 C14.481,7.5 16.5,9.519 16.5,12 C16.5,14.481 14.481,16.5 12,16.5 L12,16.5 Z M13,1 L13,6.595 C12.675,6.535 12.342,6.5 12,6.5 C11.659,6.5 11.325,6.536 11,6.596 L11,1 L13,1 L13,1 Z M10,2.208 L10,6.882 C8.576,7.441 7.441,8.575 6.882,10 L2.207,10 C3.002,6.098 6.097,3.004 10,2.208 L10,2.208 Z M1,11 L6.596,11 C6.536,11.325 6.5,11.658 6.5,12 C6.5,12.342 6.536,12.675 6.596,13 L1,13 L1,11 L1,11 Z M2.207,14 L6.883,14 C7.441,15.425 8.576,16.559 10,17.118 L10,21.792 C6.098,20.998 3.003,17.903 2.207,14 L2.207,14 Z M11,23 L11,17.404 C11.325,17.464 11.659,17.5 12,17.5 C12.342,17.5 12.675,17.465 13,17.404 L13,23 L11,23 L11,23 Z M14,21.792 L14,17.118 C15.425,16.559 16.559,15.425 17.118,14 L21.792,14 C20.997,17.903 17.903,20.998 14,21.792 L14,21.792 Z M23,13 L17.404,13 C17.464,12.675 17.5,12.342 17.5,12 C17.5,11.658 17.464,11.325 17.404,11 L23,11 L23,13 L23,13 Z" id="svgstore03b1a28fdae523339f44465631f4fedbImported-Layers" sketch:type="MSShapeGroup"/> </g> </g> </symbol><symbol viewBox="0 0 24 24" id="icon-support-3"><title>support-3</title> <path display="none" fill="#072460" d="M20.829,0.124c-0.107-0.094-0.245-0.137-0.396-0.12l-7.5,1C12.686,1.038,12.5,1.25,12.5,1.5
	V2H11H9.107L4.704,0.043c-0.25-0.111-0.547,0.002-0.66,0.254c-0.112,0.252,0.001,0.548,0.254,0.66L7.23,2.261
	C4.785,3.01,3,5.29,3,7.979V20.5C3,20.776,3.224,21,3.5,21S4,20.776,4,20.5V7.979C4,5.403,5.973,3.303,8.5,3.05v1.243
	C7.011,4.898,6,6.372,6,8v15.5C6,23.776,6.224,24,6.5,24h7c0.276,0,0.5-0.224,0.5-0.5V8c0-1.628-1.011-3.102-2.5-3.706V3h1v0.5
	c0,0.25,0.186,0.462,0.434,0.496l7.5,1C20.456,4.999,20.479,5,20.5,5c0.12,0,0.237-0.043,0.329-0.124C20.938,4.781,21,4.644,21,4.5
	v-4C21,0.356,20.938,0.219,20.829,0.124z M13,20h-2V10h2V20z M13,8v1h-2.5C10.224,9,10,9.224,10,9.5v11c0,0.276,0.224,0.5,0.5,0.5
	H13v2H7V8c0-1.317,0.881-2.498,2.143-2.873C9.355,5.063,9.5,4.869,9.5,4.647V3h1v1.647c0,0.221,0.146,0.416,0.357,0.479
	C12.119,5.502,13,6.684,13,8z M20,3.929l-6.5-0.867V1.938L20,1.071V3.929z"/> <g opacity="0.1"> <path fill="none" stroke="#072460" stroke-linecap="round" stroke-linejoin="round" stroke-miterlimit="10" d="M13,4.648V2.5h2
		v2.148c1.447,0.43,2.5,1.768,2.5,3.352v15.5h-7V8C10.5,6.416,11.556,5.078,13,4.648z"/> <path fill="none" stroke="#072460" stroke-linecap="round" stroke-linejoin="round" stroke-miterlimit="10" d="M19.5,0.5l-4.5,2
		h0.022c3.025,0,5.478,2.454,5.478,5.478V20.5"/> <polygon fill="none" stroke="#072460" stroke-linecap="round" stroke-linejoin="round" stroke-miterlimit="10" points="3.5,0.5 
		3.5,4.5 11,3.5 11,1.5 	"/> <line fill="none" stroke="#072460" stroke-linecap="round" stroke-linejoin="round" stroke-miterlimit="10" x1="13" y1="2.5" x2="11" y2="2.5"/> <polyline fill="none" stroke="#072460" stroke-linecap="round" stroke-linejoin="round" stroke-miterlimit="10" points="10.5,20.5 
		13.5,20.5 13.5,9.5 10.5,9.5 	"/> </g> </symbol><symbol viewBox="0 0 24 24" id="icon-support"><title>Slice 1</title><desc>Created with Sketch.</desc> <!-- Generator: Sketch 3.0.3 (7892) - http://www.bohemiancoding.com/sketch -->    <g id="svgstorebc2279f098866de9d7b9f6e55ab30e76Page-1" stroke="none" stroke-width="1" fill="none" fill-rule="evenodd" sketch:type="MSPage"> <path d="M23.5,9 L22.581,9 C21.542,5.343 18.657,2.458 15,1.419 L15,0.5 C15,0.224 14.776,0 14.5,0 L9.5,0 C9.224,0 9,0.224 9,0.5 L9,1.419 C5.343,2.458 2.458,5.343 1.419,9 L0.5,9 C0.224,9 0,9.224 0,9.5 L0,14.5 C0,14.776 0.224,15 0.5,15 L1.419,15 C2.458,18.657 5.343,21.542 9,22.581 L9,23.5 C9,23.776 9.224,24 9.5,24 L14.5,24 C14.776,24 15,23.776 15,23.5 L15,22.581 C18.657,21.542 21.542,18.657 22.581,15 L23.5,15 C23.776,15 24,14.776 24,14.5 L24,9.5 C24,9.224 23.776,9 23.5,9 L23.5,9 Z M10,1 L14,1 L14,6.882 C13.379,6.639 12.706,6.5 12,6.5 C11.294,6.5 10.621,6.639 10,6.882 L10,1 L10,1 Z M6.882,14 L1,14 L1,10 L6.882,10 C6.639,10.621 6.5,11.294 6.5,12 C6.5,12.706 6.639,13.379 6.882,14 L6.882,14 Z M14,23 L10,23 L10,17.118 C10.621,17.362 11.294,17.5 12,17.5 C12.706,17.5 13.379,17.362 14,17.118 L14,23 L14,23 Z M12,16.5 C9.519,16.5 7.5,14.481 7.5,12 C7.5,9.519 9.519,7.5 12,7.5 C14.482,7.5 16.5,9.519 16.5,12 C16.5,14.481 14.482,16.5 12,16.5 L12,16.5 Z M23,14 L17.118,14 C17.362,13.379 17.5,12.706 17.5,12 C17.5,11.294 17.362,10.621 17.118,10 L23,10 L23,14 L23,14 Z" id="svgstorebc2279f098866de9d7b9f6e55ab30e76Imported-Layers" fill="#aaa" sketch:type="MSShapeGroup"/> </g> </symbol><symbol viewBox="0 0 32 32" id="icon-twitter"><title>twitter</title> <path id="svgstore190408ed624046dc05d79bc61e511f95bird" fill="#5FA9DD" d="M32,6.076c-1.177,0.522-2.443,0.875-3.771,1.034c1.356-0.812,2.397-2.099,2.887-3.632
	c-1.268,0.752-2.673,1.299-4.169,1.593c-1.198-1.276-2.904-2.073-4.792-2.073c-3.626,0-6.565,2.939-6.565,6.565
	c0,0.515,0.058,1.016,0.17,1.496C10.303,10.785,5.466,8.171,2.228,4.199c-0.565,0.97-0.889,2.097-0.889,3.301
	c0,2.278,1.159,4.287,2.921,5.464c-1.076-0.034-2.088-0.329-2.974-0.821c0,0.027-0.001,0.055-0.001,0.083
	c0,3.181,2.263,5.834,5.266,6.438c-0.551,0.15-1.131,0.23-1.73,0.23c-0.423,0-0.834-0.041-1.235-0.118
	c0.835,2.608,3.26,4.506,6.133,4.559c-2.247,1.761-5.078,2.81-8.154,2.81c-0.53,0-1.053-0.031-1.566-0.092
	c2.905,1.863,6.356,2.95,10.064,2.95c12.076,0,18.679-10.004,18.679-18.679c0-0.285-0.006-0.568-0.019-0.849
	C30.007,8.549,31.12,7.392,32,6.076z"/> </symbol></svg>